{"glyphs":{"0":{"ha":914,"x_min":83,"x_max":831,"o":"m 83 663 q 112 813 83 746 q 190 925 140 879 q 309 996 240 971 q 457 1021 378 1021 q 605 996 536 1021 q 724 925 674 971 q 802 813 774 879 q 831 663 831 746 l 831 240 q 802 90 831 157 q 724 -22 774 24 q 605 -93 674 -68 q 457 -118 536 -118 q 309 -93 378 -118 q 190 -22 240 -68 q 112 90 140 24 q 83 240 83 157 l 83 663 m 267 240 q 318 99 267 149 q 457 49 369 49 q 596 99 544 49 q 647 240 647 149 l 647 663 q 596 804 647 754 q 457 854 544 854 q 318 804 369 854 q 267 663 267 754 l 267 240 z "},"1":{"ha":560,"x_min":56,"x_max":421,"o":"m 421 -97 l 238 -97 l 238 829 q 142 823 188 825 q 56 818 96 821 l 56 985 q 226 995 131 988 q 421 1014 321 1003 l 421 -97 z "},"2":{"ha":850,"x_min":69,"x_max":781,"o":"m 69 17 q 74 99 69 63 q 91 169 78 136 q 128 234 104 203 q 193 301 153 265 q 292 379 233 338 q 433 475 351 421 q 515 535 483 508 q 565 588 547 563 q 590 640 583 614 q 597 693 597 665 q 552 812 597 769 q 431 854 507 854 q 363 844 394 854 q 308 815 332 835 q 269 763 283 794 q 256 685 256 731 l 72 685 q 102 839 72 775 q 182 943 132 903 q 297 1002 232 983 q 431 1021 361 1021 q 563 1000 500 1021 q 675 938 626 979 q 752 836 724 897 q 781 693 781 775 q 767 590 781 638 q 725 501 754 543 q 650 417 696 458 q 539 332 604 375 q 397 234 451 274 q 312 166 342 194 q 271 116 282 138 q 260 69 260 94 l 354 69 q 606 83 494 69 q 776 108 717 96 l 776 -61 q 610 -85 715 -74 q 354 -97 506 -97 l 69 -97 l 69 17 l 69 17 z "},"3":{"ha":897,"x_min":69,"x_max":813,"o":"m 97 700 q 129 846 100 785 q 206 946 158 907 q 317 1003 254 985 q 451 1021 381 1021 q 585 1001 522 1021 q 697 942 649 982 q 773 844 744 903 q 801 706 801 785 q 761 563 801 625 q 654 465 721 501 q 769 372 726 436 q 813 211 813 308 q 791 88 813 147 q 724 -18 769 28 q 606 -91 678 -64 q 436 -118 535 -118 q 300 -99 365 -118 q 184 -40 235 -81 q 103 65 133 1 q 69 217 72 128 l 251 217 q 270 141 254 172 q 311 89 286 110 q 368 58 336 68 q 436 49 400 49 q 581 94 532 49 q 629 215 629 140 q 583 333 629 288 q 440 378 536 378 l 303 378 l 303 539 l 440 539 q 573 584 528 539 q 618 703 618 629 q 572 813 618 769 q 451 856 526 856 q 386 847 417 856 q 333 818 356 838 q 295 769 310 799 q 279 700 281 740 l 97 700 l 97 700 z "},"4":{"ha":896,"x_min":42,"x_max":864,"o":"m 703 303 q 786 315 746 308 q 864 331 826 321 l 864 164 q 786 148 826 154 q 703 136 746 142 l 703 -97 l 519 -97 l 519 119 q 358 113 436 114 q 214 111 281 111 l 42 111 l 42 278 l 424 1000 l 703 1000 l 703 303 m 236 278 q 371 279 299 278 q 519 286 443 281 l 519 825 l 236 278 z "},"5":{"ha":881,"x_min":69,"x_max":819,"o":"m 147 1000 l 782 1000 l 782 833 l 308 833 l 281 561 q 359 608 308 585 q 488 631 410 631 q 614 608 554 631 q 719 539 674 585 q 792 424 765 493 q 819 260 819 354 q 790 99 819 169 q 710 -19 761 29 q 588 -93 658 -68 q 438 -118 518 -118 q 299 -97 364 -118 q 184 -33 233 -75 q 104 69 135 8 q 69 210 74 131 l 261 210 q 314 92 269 135 q 438 49 358 49 q 515 62 479 49 q 578 101 551 75 q 621 166 606 126 q 636 260 636 206 q 621 354 636 314 q 580 420 606 394 q 520 459 554 446 q 449 472 486 472 q 378 461 410 472 q 322 433 346 450 q 281 397 297 417 q 256 363 264 378 l 83 363 l 147 1000 z "},"6":{"ha":883,"x_min":69,"x_max":814,"o":"m 440 432 q 365 418 400 432 q 306 379 331 404 q 267 319 281 354 q 253 240 253 283 q 306 99 253 149 q 440 49 358 49 q 575 99 522 49 q 628 240 628 149 q 614 319 628 283 q 575 379 600 354 q 515 418 550 404 q 440 432 481 432 m 69 664 q 98 813 69 747 q 176 925 126 879 q 295 996 226 971 q 444 1021 364 1021 q 583 999 518 1021 q 699 933 649 976 q 779 829 749 890 q 814 689 810 768 l 622 689 q 569 811 615 767 q 444 856 524 856 q 309 808 361 856 q 257 664 257 760 l 257 503 q 344 565 289 539 q 475 590 399 590 q 596 569 536 590 q 703 503 656 547 q 781 394 751 460 q 811 240 811 329 q 788 103 811 168 q 719 -11 765 38 q 604 -89 674 -60 q 442 -118 535 -118 q 294 -93 363 -118 q 176 -22 226 -68 q 98 91 126 25 q 69 240 69 157 l 69 664 z "},"7":{"ha":826,"x_min":42,"x_max":785,"o":"m 785 833 q 531 406 638 640 q 365 -97 425 172 l 160 -97 q 235 166 190 39 q 335 410 281 293 q 453 633 390 526 q 581 833 515 739 l 42 833 l 42 1000 l 785 1000 l 785 833 l 785 833 z "},"8":{"ha":881,"x_min":69,"x_max":811,"o":"m 440 1021 q 597 996 529 1021 q 709 928 664 971 q 777 827 754 885 q 800 704 800 769 q 761 563 800 622 q 657 465 722 504 q 769 367 728 433 q 811 210 811 301 q 788 83 811 143 q 717 -21 764 24 q 601 -92 671 -65 q 440 -118 532 -118 q 279 -92 349 -118 q 163 -21 210 -65 q 93 83 117 24 q 69 210 69 143 q 111 367 69 301 q 224 465 153 433 q 119 563 158 504 q 81 704 81 622 q 103 827 81 769 q 172 928 126 885 q 284 996 217 971 q 440 1021 351 1021 m 253 214 q 302 92 253 136 q 440 47 351 47 q 578 92 529 47 q 628 214 628 136 q 578 334 628 290 q 440 378 529 378 q 302 334 351 378 q 253 214 253 290 m 263 696 q 310 582 263 625 q 440 539 357 539 q 571 582 524 539 q 618 696 618 625 q 571 812 618 768 q 440 856 524 856 q 310 812 357 856 q 263 696 263 768 z "},"9":{"ha":883,"x_min":69,"x_max":814,"o":"m 443 471 q 578 522 525 471 q 631 663 631 574 q 578 804 631 754 q 443 854 525 854 q 308 804 361 854 q 256 663 256 754 q 308 522 256 574 q 443 471 361 471 m 261 214 q 314 92 268 136 q 439 47 360 47 q 574 95 522 47 q 626 239 626 143 l 626 392 q 531 333 586 353 q 401 313 476 313 q 283 334 342 313 q 177 399 224 356 q 101 508 131 443 q 72 663 72 574 q 95 800 72 735 q 164 914 118 865 q 279 992 210 963 q 442 1021 349 1021 q 589 996 521 1021 q 707 924 657 971 q 785 812 757 878 q 814 663 814 746 l 814 239 q 785 90 814 156 q 707 -22 757 24 q 588 -93 657 -68 q 439 -118 519 -118 q 300 -96 365 -118 q 185 -31 235 -74 q 104 74 135 13 q 69 214 74 135 l 261 214 z "}," ":{"ha":347,"x_min":0,"x_max":0,"o":""}," ":{"ha":347,"x_min":0,"x_max":0,"o":""},"!":{"ha":417,"x_min":97,"x_max":319,"o":"m 97 1000 l 319 1000 l 283 194 l 133 194 l 97 1000 m 104 97 l 313 97 l 313 -99 q 208 -108 264 -106 q 104 -111 153 -111 l 104 97 z "},"\"":{"ha":578,"x_min":56,"x_max":522,"o":"m 56 1000 l 258 1000 l 236 588 l 78 588 l 56 1000 m 522 1000 l 500 588 l 342 588 l 319 1000 l 522 1000 z "},"#":{"ha":1053,"x_min":69,"x_max":983,"o":"m 222 194 l 69 194 l 69 340 l 250 340 l 292 563 l 132 563 l 132 708 l 319 708 l 375 1000 l 544 1000 l 489 708 l 653 708 l 708 1000 l 878 1000 l 822 708 l 983 708 l 983 563 l 794 563 l 753 340 l 919 340 l 919 194 l 725 194 l 669 -97 l 500 -97 l 556 194 l 392 194 l 336 -97 l 167 -97 l 222 194 m 583 340 l 625 563 l 461 563 l 419 340 l 583 340 z "},"$":{"ha":876,"x_min":69,"x_max":807,"o":"m 624 192 q 595 285 624 250 q 508 344 567 321 l 508 57 q 592 102 561 69 q 624 192 624 135 m 251 207 q 285 108 254 144 q 369 57 317 71 l 369 392 l 329 406 q 86 708 86 486 q 108 830 86 776 q 167 922 129 883 q 257 985 206 961 q 369 1017 308 1008 l 369 1160 l 508 1160 l 508 1017 q 622 983 568 1008 q 715 918 675 958 q 777 819 754 878 q 800 686 800 761 l 618 686 q 588 791 618 753 q 508 844 557 829 l 508 540 l 557 525 q 659 481 613 507 q 738 415 706 454 q 789 324 771 376 q 807 200 807 271 q 784 76 807 131 q 720 -18 761 21 q 625 -81 679 -57 q 508 -112 571 -104 l 508 -257 l 369 -257 l 369 -114 q 253 -83 307 -106 q 158 -20 199 -60 q 93 76 117 19 q 69 207 69 132 l 251 207 m 269 708 q 293 638 269 668 q 369 586 317 607 l 369 843 q 295 793 321 828 q 269 708 269 758 z "},"%":{"ha":1281,"x_min":69,"x_max":1211,"o":"m 465 -97 l 288 -97 l 815 1000 l 993 1000 l 465 -97 m 69 806 q 88 890 69 851 q 140 956 107 928 q 217 1001 172 985 q 311 1017 261 1017 q 406 1001 361 1017 q 483 956 450 985 q 534 890 515 928 q 553 806 553 851 l 553 622 q 534 538 553 576 q 483 470 515 499 q 406 426 450 442 q 311 410 361 410 q 217 426 261 410 q 140 470 172 442 q 88 538 107 499 q 69 622 69 576 l 69 806 m 229 629 q 248 569 229 597 q 311 542 267 542 q 374 569 356 542 q 393 629 393 597 l 393 799 q 374 858 393 831 q 311 885 356 885 q 248 858 267 885 q 229 799 229 831 l 229 629 m 728 282 q 747 366 728 328 q 798 433 765 404 q 875 477 831 461 q 969 493 919 493 q 1064 477 1019 493 q 1141 433 1108 461 q 1192 366 1174 404 q 1211 282 1211 328 l 1211 99 q 1192 14 1211 53 q 1141 -53 1174 -25 q 1064 -98 1108 -82 q 969 -114 1019 -114 q 875 -98 919 -114 q 798 -53 831 -82 q 747 14 765 -25 q 728 99 728 53 l 728 282 m 888 106 q 906 46 888 74 q 969 18 925 18 q 1033 46 1014 18 q 1051 106 1051 74 l 1051 275 q 1033 334 1051 307 q 969 361 1014 361 q 906 334 925 361 q 888 275 888 307 l 888 106 z "},"&":{"ha":947,"x_min":69,"x_max":926,"o":"m 318 742 q 334 663 318 697 q 383 586 350 628 l 407 557 q 469 600 442 579 q 515 642 496 621 q 543 688 533 664 q 553 744 553 713 q 519 831 553 801 q 435 861 485 861 q 350 831 382 861 q 318 742 318 800 m 69 178 q 122 349 69 278 q 261 475 174 419 l 236 507 q 193 568 211 540 q 163 624 175 596 q 147 681 151 651 q 142 746 142 710 q 166 861 142 810 q 231 948 190 913 q 323 1002 271 983 q 432 1021 375 1021 q 551 1001 496 1021 q 645 947 606 982 q 707 861 685 911 q 729 749 729 811 q 717 659 729 700 q 678 581 706 618 q 608 507 651 543 q 504 432 565 471 l 675 218 q 706 297 694 257 q 717 374 717 338 l 886 374 q 860 217 886 292 q 788 78 835 142 l 926 -97 l 713 -97 l 665 -37 q 555 -97 613 -75 q 415 -118 497 -118 q 266 -97 331 -118 q 158 -36 201 -75 q 92 58 114 3 q 69 178 69 113 m 250 178 q 294 76 250 113 q 415 40 338 40 q 498 53 464 40 q 564 90 532 67 l 361 346 q 279 270 308 308 q 250 178 250 232 z "},"'":{"ha":314,"x_min":56,"x_max":258,"o":"m 56 1000 l 258 1000 l 236 588 l 78 588 l 56 1000 z "},"(":{"ha":500,"x_min":111,"x_max":472,"o":"m 472 1083 q 339 775 386 940 q 292 435 292 610 q 339 94 292 260 q 472 -214 386 -71 l 303 -214 q 160 92 208 -75 q 111 435 111 260 q 160 777 111 610 q 303 1083 208 944 l 472 1083 l 472 1083 z "},")":{"ha":500,"x_min":28,"x_max":389,"o":"m 197 1083 q 340 777 292 944 q 389 435 389 610 q 340 92 389 260 q 197 -214 292 -75 l 28 -214 q 161 94 114 -71 q 208 435 208 260 q 161 775 208 610 q 28 1083 114 940 l 197 1083 l 197 1083 z "},"*":{"ha":699,"x_min":69,"x_max":629,"o":"m 282 1000 l 417 1000 l 417 821 l 588 875 l 629 749 l 458 692 l 565 546 l 454 467 l 350 613 l 244 467 l 133 546 l 240 692 l 69 749 l 111 875 l 282 821 l 282 1000 z "},"+":{"ha":833,"x_min":69,"x_max":764,"o":"m 764 335 l 500 335 l 500 71 l 333 71 l 333 335 l 69 335 l 69 501 l 333 501 l 333 765 l 500 765 l 500 501 l 764 501 l 764 335 z "},",":{"ha":417,"x_min":97,"x_max":319,"o":"m 319 -46 q 296 -162 319 -112 q 238 -244 272 -211 q 166 -296 204 -278 q 97 -319 128 -314 l 97 -229 q 174 -183 139 -215 q 215 -104 208 -151 q 154 -110 185 -108 q 97 -111 124 -111 l 97 111 l 319 111 l 319 -46 l 319 -46 z "},"-":{"ha":597,"x_min":69,"x_max":528,"o":"m 528 349 l 69 349 l 69 515 l 528 515 l 528 349 z "},".":{"ha":417,"x_min":97,"x_max":319,"o":"m 319 -97 q 208 -108 267 -104 q 97 -111 150 -111 l 97 111 l 319 111 l 319 -97 l 319 -97 z "},"/":{"ha":650,"x_min":28,"x_max":622,"o":"m 206 -97 l 28 -97 l 444 1000 l 622 1000 l 206 -97 z "},":":{"ha":417,"x_min":97,"x_max":319,"o":"m 319 -97 q 208 -108 267 -104 q 97 -111 150 -111 l 97 111 l 319 111 l 319 -97 m 97 694 l 319 694 l 319 486 q 208 476 267 479 q 97 472 150 472 l 97 694 z "},";":{"ha":417,"x_min":97,"x_max":319,"o":"m 319 486 q 208 476 267 479 q 97 472 150 472 l 97 694 l 319 694 l 319 486 m 97 -243 q 173 -192 139 -228 q 215 -104 207 -156 q 154 -110 185 -108 q 97 -111 124 -111 l 97 111 l 319 111 l 319 -46 q 296 -167 319 -115 q 238 -254 272 -219 q 166 -308 204 -289 q 97 -333 128 -328 l 97 -243 z "},"<":{"ha":833,"x_min":69,"x_max":764,"o":"m 764 842 l 764 660 l 242 431 l 764 200 l 764 18 l 69 324 l 69 536 l 764 842 z "},"=":{"ha":833,"x_min":69,"x_max":764,"o":"m 764 515 l 69 515 l 69 682 l 764 682 l 764 515 m 69 321 l 764 321 l 764 154 l 69 154 l 69 321 z "},">":{"ha":833,"x_min":69,"x_max":764,"o":"m 764 324 l 69 18 l 69 200 l 592 431 l 69 660 l 69 842 l 764 536 l 764 324 z "},"?":{"ha":808,"x_min":56,"x_max":725,"o":"m 301 222 q 304 315 301 274 q 319 392 307 357 q 354 458 331 426 q 419 522 378 489 q 476 569 453 547 q 515 614 500 592 q 536 660 529 636 q 543 711 543 683 q 504 820 543 778 q 392 863 465 863 q 278 816 317 863 q 236 694 239 769 l 56 694 q 81 834 56 774 q 151 936 107 894 q 258 999 196 978 q 392 1021 319 1021 q 520 1001 460 1021 q 626 943 581 982 q 699 846 672 904 q 725 711 725 788 q 713 619 725 660 q 677 542 700 578 q 622 476 654 507 q 547 411 589 444 q 510 377 525 394 q 485 338 494 360 q 472 288 476 315 q 468 222 468 260 l 468 194 l 301 194 l 301 222 m 283 97 l 492 97 l 492 -99 q 388 -108 443 -106 q 283 -111 332 -111 l 283 97 z "},"@":{"ha":1126,"x_min":69,"x_max":1057,"o":"m 990 103 q 915 13 960 53 q 816 -57 871 -28 q 697 -102 761 -86 q 564 -118 633 -118 q 363 -82 454 -118 q 207 18 272 -46 q 106 169 142 82 q 69 356 69 256 l 69 547 q 106 734 69 647 q 207 885 142 821 q 363 985 272 949 q 565 1021 454 1021 q 766 985 675 1021 q 922 885 857 949 q 1022 735 986 822 q 1057 549 1057 649 l 1057 365 q 1040 275 1057 314 q 996 209 1024 236 q 930 168 968 182 q 849 154 892 154 q 745 180 786 154 q 685 249 704 206 q 621 195 661 219 q 522 171 581 171 q 442 187 479 171 q 377 232 404 203 q 334 302 350 261 q 318 393 318 343 l 318 514 q 334 606 318 564 q 377 676 350 647 q 442 722 404 706 q 522 738 479 738 q 598 719 567 738 q 649 672 629 701 l 649 722 l 792 722 l 792 350 q 809 290 792 306 q 849 274 826 274 q 895 295 876 274 q 914 361 914 317 l 914 553 q 885 703 914 640 q 809 808 857 767 q 698 867 761 849 q 565 886 635 886 q 431 867 494 886 q 318 807 367 847 q 241 703 269 767 q 213 551 213 639 l 213 351 q 241 200 213 264 q 318 95 269 136 q 431 35 367 54 q 567 15 496 15 q 815 103 718 15 l 990 103 m 465 403 q 485 323 465 356 q 556 290 506 290 q 626 323 607 290 q 644 403 644 356 l 644 506 q 626 586 644 554 q 556 618 607 618 q 485 586 506 618 q 465 506 465 554 l 465 403 z "},"A":{"ha":1001,"x_min":35,"x_max":967,"o":"m 967 -97 l 775 -97 l 696 171 q 493 130 594 142 q 286 115 392 118 l 224 -97 l 35 -97 l 371 1000 l 631 1000 l 967 -97 m 336 283 q 493 298 417 288 q 649 331 569 308 l 500 833 l 336 283 z "},"B":{"ha":924,"x_min":97,"x_max":861,"o":"m 97 1000 l 508 1000 q 635 981 578 1000 q 732 927 692 963 q 794 842 772 892 q 815 729 815 792 q 783 589 815 650 q 685 481 750 528 q 810 374 760 440 q 861 204 861 307 q 835 76 861 132 q 764 -19 810 19 q 656 -77 718 -57 q 518 -97 593 -97 l 97 -97 l 97 1000 m 518 69 q 636 107 594 69 q 678 207 678 144 q 628 319 678 271 q 499 393 578 368 q 281 339 401 361 l 281 69 l 518 69 m 281 497 q 544 573 454 525 q 635 711 635 621 q 601 801 635 768 q 508 833 568 833 l 281 833 l 281 497 z "},"C":{"ha":964,"x_min":76,"x_max":901,"o":"m 901 238 q 853 83 892 150 q 757 -28 814 17 q 631 -95 700 -72 q 490 -118 561 -118 q 340 -92 414 -118 q 207 -15 265 -65 q 113 113 149 36 q 76 289 76 189 l 76 614 q 113 790 76 714 q 207 917 149 867 q 340 994 265 968 q 490 1021 414 1021 q 628 999 560 1021 q 753 933 697 976 q 849 826 810 890 q 900 679 888 763 l 714 679 q 633 809 694 765 q 490 853 571 853 q 401 838 443 853 q 327 792 358 822 q 278 717 296 763 q 260 614 260 672 l 260 289 q 278 185 260 231 q 327 110 296 140 q 401 65 358 81 q 490 50 443 50 q 638 97 575 50 q 717 238 701 144 l 901 238 l 901 238 z "},"D":{"ha":965,"x_min":97,"x_max":889,"o":"m 475 1000 q 626 974 551 1000 q 758 897 700 947 q 853 769 817 846 q 889 593 889 693 l 889 310 q 853 133 889 210 q 758 6 817 57 q 626 -71 700 -44 q 475 -97 551 -97 l 97 -97 l 97 1000 l 475 1000 m 475 69 q 565 85 522 69 q 638 131 607 100 q 688 206 669 161 q 706 310 706 251 l 706 593 q 688 697 706 651 q 638 772 669 742 q 565 818 607 803 q 475 833 522 833 l 281 833 l 281 69 l 475 69 z "},"E":{"ha":833,"x_min":97,"x_max":757,"o":"m 97 1000 l 757 1000 l 757 833 l 281 833 l 281 522 q 499 535 389 525 q 708 569 610 546 l 708 401 q 499 368 610 378 q 281 356 389 358 l 281 71 l 757 71 l 757 -97 l 97 -97 l 97 1000 z "},"F":{"ha":813,"x_min":97,"x_max":757,"o":"m 97 1000 l 757 1000 l 757 833 l 281 833 l 281 514 q 499 527 389 517 q 708 561 610 538 l 708 394 q 499 361 610 371 q 281 349 389 351 l 281 -97 l 97 -97 l 97 1000 z "},"G":{"ha":981,"x_min":76,"x_max":904,"o":"m 490 -118 q 340 -92 414 -118 q 207 -15 265 -65 q 113 113 149 36 q 76 289 76 189 l 76 614 q 113 790 76 714 q 207 917 149 867 q 340 994 265 968 q 490 1021 414 1021 q 628 999 560 1021 q 753 933 697 976 q 849 826 810 890 q 900 679 888 763 l 714 679 q 633 809 694 765 q 490 853 571 853 q 401 838 443 853 q 327 792 358 822 q 278 717 296 763 q 260 614 260 672 l 260 289 q 278 185 260 231 q 327 110 296 140 q 401 65 358 81 q 490 50 443 50 q 580 65 538 50 q 653 110 622 81 q 703 185 685 140 q 721 289 721 231 l 721 326 q 577 315 647 319 q 439 311 507 311 l 439 476 q 667 488 549 476 q 904 515 785 499 l 904 289 q 868 113 904 189 q 774 -15 832 36 q 641 -92 715 -65 q 490 -118 567 -118 z "},"H":{"ha":1036,"x_min":97,"x_max":939,"o":"m 97 1000 l 281 1000 l 281 524 q 524 538 399 526 q 756 574 650 549 l 756 1000 l 939 1000 l 939 -97 l 756 -97 l 756 407 q 524 371 650 382 q 281 357 399 360 l 281 -97 l 97 -97 l 97 1000 z "},"I":{"ha":378,"x_min":97,"x_max":281,"o":"m 97 1000 l 281 1000 l 281 -97 l 97 -97 l 97 1000 z "},"J":{"ha":749,"x_min":35,"x_max":658,"o":"m 658 207 q 576 -37 658 43 q 351 -118 494 -118 q 119 -31 200 -118 q 35 238 38 57 l 218 238 q 253 93 221 138 q 351 49 285 49 q 444 86 414 49 q 475 207 475 124 l 475 1000 l 658 1000 l 658 207 l 658 207 z "},"K":{"ha":925,"x_min":97,"x_max":876,"o":"m 97 1000 l 281 1000 l 281 496 q 416 620 353 556 q 531 750 479 685 q 624 878 583 815 q 690 1000 664 942 l 876 1000 q 746 758 832 889 q 539 501 660 628 l 872 -97 l 658 -97 l 401 372 q 342 324 372 347 q 281 278 313 300 l 281 -97 l 97 -97 l 97 1000 z "},"L":{"ha":799,"x_min":97,"x_max":757,"o":"m 97 1000 l 281 1000 l 281 71 l 757 71 l 757 -97 l 97 -97 l 97 1000 z "},"M":{"ha":1244,"x_min":97,"x_max":1147,"o":"m 622 200 l 843 1000 l 1147 1000 l 1147 -97 l 967 -97 l 967 788 l 724 -97 l 521 -97 l 278 788 l 278 -97 l 97 -97 l 97 1000 l 401 1000 l 622 200 z "},"N":{"ha":994,"x_min":97,"x_max":897,"o":"m 97 1000 l 414 1000 q 465 788 435 897 q 535 569 496 679 q 620 348 574 458 q 717 133 667 238 l 717 1000 l 897 1000 l 897 -97 l 639 -97 q 531 114 583 3 q 433 341 479 225 q 348 575 388 457 q 278 810 308 693 l 278 -97 l 97 -97 l 97 1000 z "},"O":{"ha":981,"x_min":76,"x_max":904,"o":"m 904 289 q 868 113 904 189 q 774 -15 832 36 q 641 -92 715 -65 q 490 -118 567 -118 q 340 -92 414 -118 q 207 -15 265 -65 q 113 113 149 36 q 76 289 76 189 l 76 614 q 113 790 76 714 q 207 917 149 867 q 340 994 265 968 q 490 1021 414 1021 q 641 994 567 1021 q 774 917 715 968 q 868 790 832 867 q 904 614 904 714 l 904 289 m 260 289 q 278 185 260 231 q 327 110 296 140 q 401 65 358 81 q 490 50 443 50 q 580 65 538 50 q 653 110 622 81 q 703 185 685 140 q 721 289 721 231 l 721 614 q 703 717 721 672 q 653 792 685 763 q 580 838 622 822 q 490 853 538 853 q 401 838 443 853 q 327 792 358 822 q 278 717 296 763 q 260 614 260 672 l 260 289 z "},"P":{"ha":886,"x_min":97,"x_max":831,"o":"m 281 -97 l 97 -97 l 97 1000 l 504 1000 q 632 981 572 1000 q 735 922 692 961 q 805 827 779 883 q 831 699 831 771 q 789 529 831 603 q 674 403 747 456 q 500 320 601 351 q 281 276 399 289 l 281 -97 m 281 444 q 453 480 383 457 q 567 535 524 503 q 628 607 610 568 q 647 690 647 646 q 610 795 647 757 q 503 833 572 833 l 281 833 l 281 444 z "},"Q":{"ha":989,"x_min":76,"x_max":913,"o":"m 913 -265 q 772 -241 850 -257 q 615 -203 693 -225 q 467 -156 538 -181 q 347 -107 396 -132 q 240 -40 289 -78 q 154 47 190 -1 q 97 151 118 94 q 76 276 76 208 l 76 614 q 113 790 76 714 q 207 917 149 867 q 340 994 265 968 q 490 1021 414 1021 q 641 994 567 1021 q 774 917 715 968 q 868 790 832 867 q 904 614 904 714 l 904 289 q 888 171 904 225 q 842 74 871 117 q 773 -3 813 31 q 686 -58 733 -36 q 806 -83 743 -74 q 913 -97 868 -92 l 913 -265 m 260 289 q 278 185 260 231 q 327 110 296 140 q 401 65 358 81 q 490 50 443 50 q 580 65 538 50 q 653 110 622 81 q 703 185 685 140 q 721 289 721 231 l 721 614 q 703 717 721 672 q 653 792 685 763 q 580 838 622 822 q 490 853 538 853 q 401 838 443 853 q 327 792 358 822 q 278 717 296 763 q 260 614 260 672 l 260 289 z "},"R":{"ha":900,"x_min":97,"x_max":838,"o":"m 281 -97 l 97 -97 l 97 1000 l 504 1000 q 632 981 572 1000 q 735 922 692 961 q 805 827 779 883 q 831 699 831 771 q 770 503 831 583 q 607 374 710 422 q 678 260 643 321 q 742 138 713 200 q 797 16 772 76 q 838 -97 821 -44 l 632 -97 q 550 98 603 -11 q 425 314 497 207 q 354 303 390 307 q 281 296 318 299 l 281 -97 m 281 463 q 453 491 383 469 q 567 544 524 513 q 628 613 610 575 q 647 692 647 651 q 606 797 647 760 q 499 833 565 833 l 281 833 l 281 463 z "},"S":{"ha":901,"x_min":76,"x_max":818,"o":"m 635 194 q 597 296 635 258 q 479 360 558 333 l 340 406 q 97 708 97 486 q 125 846 97 788 q 201 943 153 904 q 313 1001 249 982 q 451 1021 378 1021 q 588 1001 522 1021 q 702 940 653 981 q 781 835 751 899 q 811 686 811 772 l 629 686 q 578 813 629 774 q 451 853 528 853 q 325 814 369 853 q 281 708 281 775 q 310 631 281 664 q 407 576 340 597 l 568 525 q 668 481 622 507 q 747 415 714 454 q 799 324 781 376 q 818 200 818 271 q 788 61 818 121 q 705 -38 757 1 q 585 -98 653 -78 q 442 -118 517 -118 q 302 -99 368 -118 q 186 -40 236 -79 q 106 61 136 0 q 76 207 76 122 l 258 207 q 313 88 261 125 q 442 50 364 50 q 580 85 525 50 q 635 194 635 119 z "},"T":{"ha":903,"x_min":56,"x_max":847,"o":"m 847 832 l 543 832 l 543 -97 l 360 -97 l 360 832 l 56 832 l 56 1000 l 847 1000 l 847 832 z "},"U":{"ha":981,"x_min":90,"x_max":890,"o":"m 890 275 q 856 107 890 179 q 765 -14 821 35 q 637 -87 708 -62 q 490 -111 565 -111 q 344 -87 415 -111 q 216 -14 272 -62 q 125 107 160 35 q 90 275 90 179 l 90 1000 l 274 1000 l 274 275 q 290 183 274 224 q 335 115 306 143 q 403 72 364 86 q 490 57 443 57 q 577 72 538 57 q 646 115 617 86 q 691 183 675 143 q 707 275 707 224 l 707 1000 l 890 1000 l 890 275 l 890 275 z "},"V":{"ha":1029,"x_min":49,"x_max":981,"o":"m 49 1000 l 240 1000 l 517 78 l 792 1000 l 981 1000 l 644 -97 l 385 -97 l 49 1000 z "},"W":{"ha":1472,"x_min":56,"x_max":1417,"o":"m 56 1000 l 243 1000 l 426 125 l 608 1000 l 865 1000 l 1049 125 l 1231 1000 l 1417 1000 l 1178 -97 l 921 -97 l 736 769 l 550 -97 l 294 -97 l 56 1000 z "},"X":{"ha":1007,"x_min":56,"x_max":951,"o":"m 382 465 l 74 1000 l 278 1000 l 504 600 l 732 1000 l 933 1000 l 625 469 l 951 -97 l 743 -97 l 503 328 l 261 -97 l 56 -97 l 382 465 z "},"Y":{"ha":1031,"x_min":42,"x_max":989,"o":"m 247 1000 l 517 525 l 786 1000 l 989 1000 l 606 340 l 606 -97 l 422 -97 l 422 342 l 42 1000 l 247 1000 z "},"Z":{"ha":961,"x_min":97,"x_max":871,"o":"m 97 64 q 219 301 151 189 q 358 510 286 413 q 504 688 431 607 q 644 833 578 769 l 128 833 l 128 1000 l 871 1000 l 871 803 q 697 638 781 725 q 538 458 613 551 q 403 266 464 364 q 299 71 342 168 l 854 71 l 854 -97 l 97 -97 l 97 64 l 97 64 z "},"[":{"ha":528,"x_min":139,"x_max":472,"o":"m 472 1083 l 472 931 l 313 931 l 313 -61 l 472 -61 l 472 -214 l 139 -214 l 139 1083 l 472 1083 z "},"\\":{"ha":650,"x_min":28,"x_max":622,"o":"m 206 1000 l 622 -97 l 444 -97 l 28 1000 l 206 1000 z "},"]":{"ha":528,"x_min":56,"x_max":389,"o":"m 389 -214 l 56 -214 l 56 -61 l 215 -61 l 215 931 l 56 931 l 56 1083 l 389 1083 l 389 -214 z "},"^":{"ha":769,"x_min":42,"x_max":728,"o":"m 283 1000 l 486 1000 l 728 528 l 550 528 l 385 851 l 219 528 l 42 528 l 283 1000 z "},"_":{"ha":618,"x_min":0,"x_max":618,"o":"m 618 -243 l 0 -243 l 0 -97 l 618 -97 l 618 -243 z "},"`":{"ha":415,"x_min":28,"x_max":388,"o":"m 28 1000 l 258 1000 l 388 807 l 215 807 l 28 1000 z "},"a":{"ha":835,"x_min":69,"x_max":744,"o":"m 69 376 q 89 508 69 447 q 146 615 108 569 q 240 685 183 660 q 369 711 296 711 q 486 690 435 711 q 575 628 538 668 l 575 694 l 744 694 l 744 -97 l 575 -97 l 575 -31 q 486 -92 538 -71 q 369 -114 435 -114 q 240 -88 296 -114 q 146 -17 183 -62 q 89 89 108 28 q 69 221 69 150 l 69 376 m 246 221 q 260 132 246 167 q 297 76 274 97 q 349 47 319 56 q 407 39 378 39 q 465 47 436 39 q 516 76 493 56 q 553 132 539 97 q 568 221 568 167 l 568 376 q 553 465 568 431 q 516 521 539 500 q 465 550 493 542 q 407 558 436 558 q 349 550 378 558 q 297 521 319 542 q 260 465 274 500 q 246 376 246 431 l 246 221 z "},"b":{"ha":835,"x_min":90,"x_max":765,"o":"m 765 221 q 746 89 765 150 q 689 -17 726 28 q 595 -88 651 -62 q 465 -114 539 -114 q 349 -92 400 -114 q 260 -31 297 -71 l 260 -97 l 90 -97 l 90 1000 l 267 1000 l 267 635 q 353 691 303 671 q 465 711 403 711 q 595 685 539 711 q 689 615 651 660 q 746 508 726 569 q 765 376 765 447 l 765 221 m 267 221 q 281 132 267 167 q 317 76 294 97 q 369 47 340 56 q 428 39 399 39 q 485 47 457 39 q 537 76 514 56 q 574 132 560 97 q 589 221 589 167 l 589 376 q 574 465 589 431 q 537 521 560 500 q 485 550 514 542 q 428 558 457 558 q 369 550 399 558 q 317 521 340 542 q 281 465 294 500 q 267 376 267 431 l 267 221 z "},"c":{"ha":786,"x_min":69,"x_max":724,"o":"m 246 218 q 290 81 246 124 q 404 39 335 39 q 505 72 471 39 q 549 150 539 104 l 724 150 q 699 51 719 99 q 638 -33 678 3 q 540 -92 599 -69 q 397 -114 481 -114 q 257 -86 318 -114 q 154 -12 196 -58 q 91 93 113 33 q 69 218 69 153 l 69 379 q 91 504 69 444 q 154 610 113 564 q 257 683 196 656 q 397 711 318 711 q 540 689 481 711 q 638 631 599 667 q 699 547 678 594 q 724 447 719 499 l 549 447 q 505 526 539 493 q 404 558 471 558 q 290 516 335 558 q 246 379 246 474 l 246 218 l 246 218 z "},"d":{"ha":835,"x_min":69,"x_max":744,"o":"m 69 376 q 89 508 69 447 q 146 615 108 569 q 240 685 183 660 q 369 711 296 711 q 482 691 432 711 q 568 635 532 671 l 568 1000 l 744 1000 l 744 -97 l 575 -97 l 575 -31 q 486 -92 538 -71 q 369 -114 435 -114 q 240 -88 296 -114 q 146 -17 183 -62 q 89 89 108 28 q 69 221 69 150 l 69 376 m 246 221 q 260 132 246 167 q 297 76 274 97 q 349 47 319 56 q 407 39 378 39 q 465 47 436 39 q 516 76 493 56 q 553 132 539 97 q 568 221 568 167 l 568 376 q 553 465 568 431 q 516 521 539 500 q 465 550 493 542 q 407 558 436 558 q 349 550 378 558 q 297 521 319 542 q 260 465 274 500 q 246 376 246 431 l 246 221 z "},"e":{"ha":800,"x_min":69,"x_max":738,"o":"m 564 381 q 550 467 564 432 q 514 522 536 501 q 464 550 492 542 q 407 558 436 558 q 349 550 378 558 q 297 522 319 542 q 260 467 274 501 q 246 381 246 432 l 246 354 q 406 363 325 357 q 564 379 486 369 l 564 381 m 69 376 q 92 508 69 447 q 156 615 114 569 q 261 685 199 660 q 404 711 324 711 q 546 685 483 711 q 651 615 608 660 q 715 508 693 569 q 738 376 738 447 l 738 261 q 628 244 688 253 q 503 229 568 236 q 374 217 439 222 q 246 211 308 213 q 261 133 247 165 q 297 79 275 100 q 344 49 318 58 q 399 39 371 39 q 512 72 476 39 q 557 150 547 104 l 732 150 q 706 51 728 99 q 644 -33 685 3 q 543 -92 604 -69 q 399 -114 482 -114 q 258 -86 319 -114 q 156 -12 197 -58 q 92 93 114 33 q 69 218 69 153 l 69 376 z "},"f":{"ha":597,"x_min":35,"x_max":549,"o":"m 344 703 q 549 719 453 708 l 549 565 q 344 549 453 554 l 344 -97 l 168 -97 l 168 543 q 103 542 136 542 q 35 542 69 542 l 35 694 q 103 694 69 694 q 168 696 136 694 l 168 726 q 242 942 168 869 q 439 1014 317 1014 q 488 1012 463 1014 q 535 1004 513 1010 l 535 854 q 469 863 506 863 q 420 856 443 863 q 381 833 397 850 q 354 788 364 817 q 344 717 344 760 l 344 703 l 344 703 z "},"g":{"ha":835,"x_min":69,"x_max":744,"o":"m 744 -46 q 722 -171 744 -111 q 658 -276 700 -231 q 553 -350 615 -322 q 413 -378 492 -378 q 269 -356 329 -378 q 169 -297 210 -333 q 108 -213 129 -261 q 82 -114 86 -165 l 257 -114 q 303 -192 267 -160 q 406 -225 339 -225 q 469 -215 440 -225 q 521 -183 499 -204 q 556 -127 543 -161 q 568 -46 568 -93 l 568 -7 q 482 -63 532 -43 q 369 -83 432 -83 q 240 -58 296 -83 q 146 13 183 -32 q 89 119 108 58 q 69 251 69 181 l 69 376 q 89 508 69 447 q 146 615 108 569 q 240 685 183 660 q 369 711 296 711 q 486 690 435 711 q 575 628 538 668 l 575 694 l 744 694 l 744 -46 m 246 251 q 260 163 246 197 q 297 107 274 128 q 349 78 319 86 q 407 69 378 69 q 465 78 436 69 q 516 107 493 86 q 553 163 539 128 q 568 251 568 197 l 568 376 q 553 465 568 431 q 516 521 539 500 q 465 550 493 542 q 407 558 436 558 q 349 550 378 558 q 297 521 319 542 q 260 465 274 500 q 246 376 246 431 l 246 251 z "},"h":{"ha":843,"x_min":90,"x_max":760,"o":"m 267 1000 l 267 636 q 353 691 303 671 q 474 711 404 711 q 589 689 536 711 q 680 628 642 667 q 739 538 718 590 q 760 424 760 485 l 760 -97 l 583 -97 l 583 376 q 542 511 583 464 q 429 558 500 558 q 311 511 356 558 q 267 376 267 464 l 267 -97 l 90 -97 l 90 1000 l 267 1000 z "},"i":{"ha":357,"x_min":90,"x_max":267,"o":"m 90 694 l 267 694 l 267 -97 l 90 -97 l 90 694 m 90 1000 l 267 1000 l 267 804 q 182 787 231 793 q 90 781 133 781 l 90 1000 z "},"j":{"ha":360,"x_min":-56,"x_max":269,"o":"m 93 1000 l 269 1000 l 269 804 q 185 787 233 793 q 93 781 136 781 l 93 1000 m -56 -218 q -34 -224 -46 -221 q -3 -226 -22 -226 q 66 -199 39 -226 q 93 -90 93 -171 l 93 694 l 269 694 l 269 -90 q 203 -306 269 -233 q 19 -378 138 -378 q -24 -376 -7 -378 q -56 -368 -40 -374 l -56 -218 z "},"k":{"ha":778,"x_min":90,"x_max":750,"o":"m 728 694 q 642 524 699 613 q 497 349 585 435 l 750 -97 l 544 -97 l 361 233 q 267 172 315 200 l 267 -97 l 90 -97 l 90 1000 l 267 1000 l 267 372 q 438 522 367 439 q 551 694 510 606 l 728 694 l 728 694 z "},"l":{"ha":357,"x_min":90,"x_max":267,"o":"m 90 1000 l 267 1000 l 267 -97 l 90 -97 l 90 1000 z "},"m":{"ha":1197,"x_min":90,"x_max":1114,"o":"m 90 611 q 144 645 113 628 q 214 677 175 663 q 297 701 253 692 q 386 711 340 711 q 497 697 447 711 q 586 654 547 682 q 690 694 632 678 q 810 711 747 711 q 934 692 878 711 q 1030 639 990 674 q 1092 556 1069 604 q 1114 450 1114 508 l 1114 -97 l 938 -97 l 938 424 q 901 526 938 493 q 800 558 864 558 q 742 548 771 558 q 690 521 713 538 l 690 -97 l 514 -97 l 514 424 q 477 526 514 493 q 376 558 440 558 q 318 548 347 558 q 267 521 289 538 l 267 -97 l 90 -97 l 90 611 l 90 611 z "},"n":{"ha":835,"x_min":90,"x_max":751,"o":"m 90 632 q 160 660 119 646 q 244 686 200 675 q 335 704 289 697 q 425 711 382 711 q 567 689 506 711 q 669 628 629 667 q 731 538 710 590 q 751 424 751 485 l 751 -97 l 575 -97 l 575 376 q 535 511 575 464 q 414 558 496 558 q 334 547 374 558 q 267 521 294 536 l 267 -97 l 90 -97 l 90 632 l 90 632 z "},"o":{"ha":814,"x_min":69,"x_max":744,"o":"m 69 376 q 92 508 69 447 q 158 615 115 569 q 264 685 201 660 q 407 711 326 711 q 550 685 488 711 q 656 615 613 660 q 722 508 699 569 q 744 376 744 447 l 744 221 q 722 89 744 150 q 656 -17 699 28 q 550 -88 613 -62 q 407 -114 488 -114 q 264 -88 326 -114 q 158 -17 201 -62 q 92 89 115 28 q 69 221 69 150 l 69 376 m 246 221 q 260 132 246 167 q 297 76 274 97 q 349 47 319 56 q 407 39 378 39 q 465 47 436 39 q 516 76 493 56 q 553 132 539 97 q 568 221 568 167 l 568 376 q 553 465 568 431 q 516 521 539 500 q 465 550 493 542 q 407 558 436 558 q 349 550 378 558 q 297 521 319 542 q 260 465 274 500 q 246 376 246 431 l 246 221 z "},"p":{"ha":835,"x_min":90,"x_max":765,"o":"m 765 221 q 746 89 765 150 q 689 -17 726 28 q 595 -88 651 -62 q 465 -114 539 -114 q 353 -94 403 -114 q 267 -37 303 -74 l 267 -361 l 90 -361 l 90 694 l 260 694 l 260 628 q 349 690 297 668 q 465 711 400 711 q 595 685 539 711 q 689 615 651 660 q 746 508 726 569 q 765 376 765 447 l 765 221 m 267 221 q 281 132 267 167 q 317 76 294 97 q 369 47 340 56 q 428 39 399 39 q 485 47 457 39 q 537 76 514 56 q 574 132 560 97 q 589 221 589 167 l 589 376 q 574 465 589 431 q 537 521 560 500 q 485 550 514 542 q 428 558 457 558 q 369 550 399 558 q 317 521 340 542 q 281 465 294 500 q 267 376 267 431 l 267 221 z "},"q":{"ha":835,"x_min":69,"x_max":744,"o":"m 69 376 q 89 508 69 447 q 146 615 108 569 q 240 685 183 660 q 369 711 296 711 q 486 690 435 711 q 575 628 538 668 l 575 694 l 744 694 l 744 -361 l 568 -361 l 568 -37 q 482 -94 532 -74 q 369 -114 432 -114 q 240 -88 296 -114 q 146 -17 183 -62 q 89 89 108 28 q 69 221 69 150 l 69 376 m 246 221 q 260 132 246 167 q 297 76 274 97 q 349 47 319 56 q 407 39 378 39 q 465 47 436 39 q 516 76 493 56 q 553 132 539 97 q 568 221 568 167 l 568 376 q 553 465 568 431 q 516 521 539 500 q 465 550 493 542 q 407 558 436 558 q 349 550 378 558 q 297 521 319 542 q 260 465 274 500 q 246 376 246 431 l 246 221 z "},"r":{"ha":554,"x_min":90,"x_max":519,"o":"m 90 694 q 313 701 203 694 q 519 719 422 708 l 519 565 q 397 553 460 558 q 267 546 333 549 l 267 -97 l 90 -97 l 90 694 l 90 694 z "},"s":{"ha":724,"x_min":56,"x_max":668,"o":"m 228 136 q 276 55 235 79 q 379 31 317 31 q 465 53 435 31 q 494 117 494 76 q 467 176 494 153 q 383 217 440 200 q 301 242 346 228 q 214 275 256 257 q 115 350 150 301 q 81 474 81 399 q 99 563 81 519 q 154 638 118 606 q 244 691 190 671 q 367 711 297 711 q 486 692 433 711 q 577 641 539 674 q 637 565 615 608 q 663 469 658 521 l 488 469 q 447 542 479 518 q 367 567 414 567 q 280 540 306 567 q 254 482 254 513 q 274 433 254 453 q 339 397 294 414 q 416 372 374 385 q 501 344 458 360 q 622 267 576 318 q 668 126 668 217 q 645 23 668 68 q 581 -52 622 -22 q 485 -98 540 -82 q 365 -114 429 -114 q 246 -97 300 -114 q 151 -48 192 -81 q 86 31 111 -15 q 56 136 61 78 l 228 136 l 228 136 z "},"t":{"ha":611,"x_min":35,"x_max":556,"o":"m 360 -104 q 213 -53 257 -104 q 168 94 168 -3 l 168 543 q 103 542 136 542 q 35 542 69 542 l 35 694 q 103 694 69 694 q 168 696 136 694 l 168 931 l 344 931 l 344 703 q 549 719 453 708 l 549 565 q 344 549 453 554 l 344 113 q 360 66 344 78 q 414 54 375 54 q 478 61 440 54 q 556 76 515 68 l 556 -79 q 467 -97 511 -90 q 360 -104 422 -104 z "},"u":{"ha":835,"x_min":83,"x_max":744,"o":"m 744 -35 q 675 -64 715 -50 q 590 -89 635 -78 q 499 -107 546 -100 q 410 -114 453 -114 q 267 -92 328 -114 q 165 -31 206 -69 q 104 60 125 7 q 83 174 83 113 l 83 694 l 260 694 l 260 221 q 299 86 260 133 q 419 39 338 39 q 500 50 460 39 q 568 76 540 61 l 568 694 l 744 694 l 744 -35 l 744 -35 z "},"v":{"ha":832,"x_min":49,"x_max":783,"o":"m 49 694 l 233 694 l 417 100 l 599 694 l 783 694 l 536 -97 l 296 -97 l 49 694 z "},"w":{"ha":1153,"x_min":49,"x_max":1104,"o":"m 49 694 l 219 694 l 340 111 l 461 694 l 692 694 l 813 111 l 933 694 l 1104 694 l 938 -97 l 693 -97 l 576 457 l 460 -97 l 215 -97 l 49 694 z "},"x":{"ha":811,"x_min":42,"x_max":769,"o":"m 288 313 l 58 694 l 256 694 l 406 435 l 556 694 l 753 694 l 522 311 l 769 -97 l 563 -97 l 406 171 l 249 -97 l 42 -97 l 288 313 z "},"y":{"ha":854,"x_min":49,"x_max":806,"o":"m 114 -208 q 145 -217 126 -212 q 188 -222 164 -222 q 270 -203 243 -222 q 315 -135 297 -183 l 335 -79 l 49 694 l 238 694 l 428 174 l 617 694 l 806 694 l 479 -192 q 376 -333 443 -287 q 210 -378 310 -378 q 114 -364 149 -378 l 114 -208 l 114 -208 z "},"z":{"ha":704,"x_min":63,"x_max":642,"o":"m 63 22 q 141 178 97 104 q 231 317 185 251 q 326 440 278 383 q 421 542 375 496 l 83 542 l 83 694 l 642 694 l 642 535 q 426 308 524 431 q 265 56 328 185 l 631 56 l 631 -97 l 63 -97 l 63 22 l 63 22 z "},"{":{"ha":549,"x_min":56,"x_max":493,"o":"m 56 483 q 134 549 108 503 q 160 672 160 594 l 160 854 q 215 1026 160 969 q 369 1083 271 1083 l 493 1083 l 493 931 l 418 931 q 354 915 375 931 q 333 853 333 899 l 333 638 q 321 551 333 586 q 290 492 308 515 q 249 456 271 469 q 211 435 228 443 q 249 413 228 426 q 290 377 271 400 q 321 319 308 354 q 333 232 333 283 l 333 17 q 354 -45 333 -29 q 418 -61 375 -61 l 493 -61 l 493 -214 l 369 -214 q 215 -157 271 -214 q 160 15 160 -100 l 160 197 q 134 321 160 275 q 56 386 108 367 l 56 483 l 56 483 z "},"|":{"ha":451,"x_min":139,"x_max":313,"o":"m 313 1097 l 313 -269 l 139 -269 l 139 1097 l 313 1097 z "},"}":{"ha":549,"x_min":56,"x_max":493,"o":"m 493 386 q 415 321 440 367 q 389 197 389 275 l 389 15 q 333 -157 389 -100 q 179 -214 278 -214 l 56 -214 l 56 -61 l 131 -61 q 194 -45 174 -61 q 215 17 215 -29 l 215 232 q 228 319 215 283 q 259 377 240 354 q 299 413 278 400 q 338 435 321 426 q 299 456 321 443 q 259 492 278 469 q 228 551 240 515 q 215 638 215 586 l 215 853 q 194 915 215 899 q 131 931 174 931 l 56 931 l 56 1083 l 179 1083 q 333 1026 278 1083 q 389 854 389 969 l 389 672 q 415 549 389 594 q 493 483 440 503 l 493 386 l 493 386 z "},"~":{"ha":797,"x_min":69,"x_max":728,"o":"m 69 319 q 89 429 72 383 q 133 505 106 475 q 195 549 160 535 q 271 563 231 563 q 347 548 311 563 q 413 515 382 533 q 472 483 444 497 q 524 468 499 468 q 589 544 578 468 l 728 544 q 708 435 725 481 q 665 359 692 389 q 601 315 638 329 q 526 301 565 301 q 451 316 486 301 q 384 349 415 331 q 326 381 353 367 q 274 396 299 396 q 208 319 219 396 l 69 319 l 69 319 z "},"₩":{"ha":1444,"x_min":42,"x_max":1403,"o":"m 197 375 l 42 375 l 42 528 l 167 528 l 69 1000 l 257 1000 l 350 528 l 501 528 l 594 1000 l 851 1000 l 944 528 l 1096 528 l 1189 1000 l 1375 1000 l 1278 528 l 1403 528 l 1403 375 l 1247 375 l 1150 -97 l 893 -97 l 799 375 l 644 375 l 550 -97 l 294 -97 l 197 375 m 426 140 l 472 375 l 379 375 l 426 140 m 767 528 l 722 756 l 676 528 l 767 528 m 1021 140 l 1067 375 l 974 375 l 1021 140 z "},"‐":{"ha":597,"x_min":69,"x_max":528,"o":"m 528 349 l 69 349 l 69 515 l 528 515 l 528 349 z "},"©":{"ha":1131,"x_min":69,"x_max":1061,"o":"m 69 547 q 108 737 69 650 q 215 887 147 824 q 372 985 282 950 q 565 1021 463 1021 q 758 985 668 1021 q 916 887 849 950 q 1022 737 983 824 q 1061 547 1061 650 l 1061 356 q 1022 166 1061 253 q 916 16 983 79 q 758 -83 849 -47 q 565 -118 668 -118 q 372 -83 463 -118 q 215 16 282 -47 q 108 166 147 79 q 69 356 69 253 l 69 547 m 201 351 q 232 201 201 265 q 313 93 263 136 q 430 28 364 50 q 565 6 496 6 q 701 28 635 6 q 817 93 767 50 q 899 201 868 136 q 929 351 929 265 l 929 551 q 899 701 929 636 q 817 810 868 767 q 701 875 767 853 q 565 897 635 897 q 430 875 496 897 q 313 810 364 853 q 232 701 263 767 q 201 551 201 636 l 201 351 m 324 510 q 340 601 324 557 q 386 681 356 646 q 462 735 417 715 q 565 756 507 756 q 671 739 626 756 q 744 694 715 722 q 788 631 774 667 q 806 557 803 596 l 672 557 q 643 614 667 590 q 571 638 619 638 q 489 608 521 638 q 457 510 457 578 l 457 393 q 489 295 457 325 q 571 265 521 265 q 643 289 619 265 q 672 346 667 313 l 806 346 q 788 272 803 307 q 744 208 774 236 q 671 164 715 181 q 565 147 626 147 q 462 167 507 147 q 386 222 417 188 q 340 301 356 257 q 324 393 324 344 l 324 510 z "},"　":{"ha":1278,"x_min":0,"x_max":0,"o":""},"、":{"ha":1278,"x_min":69,"x_max":444,"o":"m 444 0 l 444 -222 l 69 -10 l 69 111 l 444 0 z "},"。":{"ha":1278,"x_min":83,"x_max":439,"o":"m 181 -53 q 204 -110 181 -86 q 261 -133 228 -133 q 318 -110 294 -133 q 342 -53 342 -86 q 318 4 342 -19 q 261 28 294 28 q 204 4 228 28 q 181 -53 181 -19 m 83 -53 q 97 17 83 -15 q 135 73 111 49 q 192 111 160 97 q 261 125 224 125 q 331 111 299 125 q 387 73 363 97 q 425 17 411 49 q 439 -53 439 -15 q 425 -122 439 -90 q 387 -178 411 -154 q 331 -217 363 -203 q 261 -231 299 -231 q 192 -217 224 -231 q 135 -178 160 -203 q 97 -122 111 -154 q 83 -53 83 -90 z "},"·":{"ha":417,"x_min":97,"x_max":319,"o":"m 319 317 q 208 306 267 310 q 97 303 150 303 l 97 525 l 319 525 l 319 317 l 319 317 z "},"‥":{"ha":833,"x_min":97,"x_max":736,"o":"m 319 317 q 208 306 267 310 q 97 303 150 303 l 97 525 l 319 525 l 319 317 m 514 525 l 736 525 l 736 317 q 625 306 683 310 q 514 303 567 303 l 514 525 z "},"…":{"ha":1250,"x_min":97,"x_max":1153,"o":"m 319 317 q 208 306 267 310 q 97 303 150 303 l 97 525 l 319 525 l 319 317 m 514 525 l 736 525 l 736 317 q 625 306 683 310 q 514 303 567 303 l 514 525 m 931 525 l 1153 525 l 1153 317 q 1042 306 1100 310 q 931 303 983 303 l 931 525 z "},"¨":{"ha":639,"x_min":97,"x_max":542,"o":"m 285 822 q 192 815 242 817 q 97 813 142 813 l 97 1000 l 285 1000 l 285 822 m 354 1000 l 542 1000 l 542 822 q 448 815 497 817 q 354 813 399 813 l 354 1000 z "},"〃":{"ha":833,"x_min":142,"x_max":690,"o":"m 392 331 l 507 690 l 690 690 l 517 331 l 392 331 m 257 690 l 440 690 l 267 331 l 142 331 l 257 690 z "},"–":{"ha":939,"x_min":69,"x_max":869,"o":"m 869 349 l 69 349 l 69 515 l 869 515 l 869 349 z "},"—":{"ha":1189,"x_min":69,"x_max":1119,"o":"m 1119 349 l 69 349 l 69 515 l 1119 515 l 1119 349 z "},"‖":{"ha":736,"x_min":139,"x_max":597,"o":"m 313 1097 l 313 -269 l 139 -269 l 139 1097 l 313 1097 m 424 1097 l 597 1097 l 597 -269 l 424 -269 l 424 1097 z "},"＼":{"ha":1278,"x_min":22,"x_max":1254,"o":"m 1169 -306 l 22 1061 l 107 1133 l 1254 -233 l 1169 -306 z "},"～":{"ha":1278,"x_min":219,"x_max":1058,"o":"m 219 319 q 244 429 222 383 q 299 505 265 475 q 372 549 332 535 q 451 563 411 563 q 560 541 510 563 q 656 494 611 519 q 742 448 701 469 q 824 426 783 426 q 870 438 849 426 q 908 465 892 449 q 935 503 925 482 q 947 544 944 524 l 1058 544 q 1034 435 1056 481 q 979 359 1013 389 q 906 315 946 329 q 826 301 865 301 q 717 323 768 301 q 622 369 667 344 q 535 416 576 394 q 454 438 494 438 q 408 426 429 438 q 369 399 386 415 q 343 361 353 382 q 331 319 333 340 l 219 319 l 219 319 z "},"‘":{"ha":417,"x_min":97,"x_max":319,"o":"m 97 824 q 121 940 97 890 q 178 1022 144 989 q 251 1074 213 1056 q 319 1097 289 1092 l 319 1007 q 243 961 278 993 q 201 882 208 929 q 263 888 232 886 q 319 889 293 889 l 319 667 l 97 667 l 97 824 l 97 824 z "},"’":{"ha":417,"x_min":97,"x_max":319,"o":"m 319 885 q 296 769 319 818 q 238 686 272 719 q 166 635 204 653 q 97 611 128 617 l 97 701 q 174 747 139 715 q 215 826 208 779 q 154 821 185 822 q 97 819 124 819 l 97 1042 l 319 1042 l 319 885 l 319 885 z "},"“":{"ha":694,"x_min":97,"x_max":597,"o":"m 97 824 q 121 940 97 890 q 178 1022 144 989 q 251 1074 213 1056 q 319 1097 289 1092 l 319 1007 q 243 961 278 993 q 201 882 208 929 q 263 888 232 886 q 319 889 293 889 l 319 667 l 97 667 l 97 824 m 375 824 q 399 940 375 890 q 456 1022 422 989 q 528 1074 490 1056 q 597 1097 567 1092 l 597 1007 q 521 961 556 993 q 479 882 486 929 q 540 888 510 886 q 597 889 571 889 l 597 667 l 375 667 l 375 824 z "},"”":{"ha":694,"x_min":97,"x_max":597,"o":"m 319 885 q 296 769 319 818 q 238 686 272 719 q 166 635 204 653 q 97 611 128 617 l 97 701 q 174 747 139 715 q 215 826 208 779 q 154 821 185 822 q 97 819 124 819 l 97 1042 l 319 1042 l 319 885 m 375 701 q 451 747 417 715 q 493 826 486 779 q 432 821 463 822 q 375 819 401 819 l 375 1042 l 597 1042 l 597 885 q 574 769 597 818 q 516 686 550 719 q 444 635 482 653 q 375 611 406 617 l 375 701 z "},"〔":{"ha":518,"x_min":167,"x_max":490,"o":"m 347 1083 l 490 1083 l 278 822 l 278 47 l 490 -214 l 347 -214 l 167 8 l 167 861 l 347 1083 z "},"〕":{"ha":518,"x_min":28,"x_max":351,"o":"m 351 8 l 171 -214 l 28 -214 l 240 47 l 240 822 l 28 1083 l 171 1083 l 351 861 l 351 8 z "},"〈":{"ha":639,"x_min":83,"x_max":625,"o":"m 83 435 l 493 1083 l 625 1083 l 215 435 l 625 -214 l 493 -214 l 83 435 z "},"〉":{"ha":639,"x_min":14,"x_max":556,"o":"m 14 -214 l 424 435 l 14 1083 l 146 1083 l 556 435 l 146 -214 l 14 -214 z "},"《":{"ha":853,"x_min":83,"x_max":839,"o":"m 83 435 l 493 1083 l 625 1083 l 215 435 l 625 -214 l 493 -214 l 83 435 m 707 1083 l 839 1083 l 429 435 l 839 -214 l 707 -214 l 297 435 l 707 1083 z "},"》":{"ha":853,"x_min":14,"x_max":769,"o":"m 228 -214 l 638 435 l 228 1083 l 360 1083 l 769 435 l 360 -214 l 228 -214 m 424 435 l 14 1083 l 146 1083 l 556 435 l 146 -214 l 14 -214 l 424 435 z "},"「":{"ha":583,"x_min":167,"x_max":556,"o":"m 278 972 l 278 435 l 167 435 l 167 1083 l 556 1083 l 556 972 l 278 972 z "},"」":{"ha":583,"x_min":28,"x_max":417,"o":"m 306 -103 l 306 435 l 417 435 l 417 -214 l 28 -214 l 28 -103 l 306 -103 z "},"『":{"ha":583,"x_min":167,"x_max":556,"o":"m 556 875 l 375 875 l 375 435 l 167 435 l 167 1083 l 556 1083 l 556 875 m 306 504 l 306 944 l 486 944 l 486 1014 l 236 1014 l 236 504 l 306 504 z "},"』":{"ha":583,"x_min":28,"x_max":417,"o":"m 28 -6 l 208 -6 l 208 435 l 417 435 l 417 -214 l 28 -214 l 28 -6 m 347 -144 l 347 365 l 278 365 l 278 -75 l 97 -75 l 97 -144 l 347 -144 z "},"【":{"ha":625,"x_min":167,"x_max":611,"o":"m 167 1083 l 611 1083 q 475 963 538 1032 q 368 810 413 893 q 299 633 324 728 q 274 435 274 538 q 299 237 274 332 q 368 59 324 142 q 475 -93 413 -24 q 611 -214 538 -162 l 167 -214 l 167 1083 z "},"】":{"ha":625,"x_min":14,"x_max":458,"o":"m 14 -214 q 149 -93 88 -162 q 256 59 211 -24 q 326 237 301 142 q 351 435 351 332 q 326 633 351 538 q 256 810 301 728 q 149 963 211 893 q 14 1083 88 1032 l 458 1083 l 458 -214 l 14 -214 l 14 -214 z "},"±":{"ha":833,"x_min":69,"x_max":764,"o":"m 764 369 l 500 369 l 500 140 l 333 140 l 333 369 l 69 369 l 69 536 l 333 536 l 333 765 l 500 765 l 500 536 l 764 536 l 764 369 m 69 69 l 764 69 l 764 -97 l 69 -97 l 69 69 z "},"×":{"ha":833,"x_min":63,"x_max":771,"o":"m 771 654 l 535 418 l 771 182 l 653 64 l 417 300 l 181 64 l 63 182 l 299 418 l 63 654 l 181 772 l 417 536 l 653 772 l 771 654 z "},"÷":{"ha":833,"x_min":69,"x_max":764,"o":"m 764 335 l 69 335 l 69 501 l 764 501 l 764 335 m 322 246 l 511 246 l 511 68 q 417 59 467 61 q 322 57 367 57 l 322 246 m 322 779 l 511 779 l 511 601 q 417 592 467 594 q 322 590 367 590 l 322 779 z "},"≠":{"ha":833,"x_min":69,"x_max":764,"o":"m 764 515 l 525 515 l 467 321 l 764 321 l 764 154 l 415 154 l 356 -40 l 197 -40 l 257 154 l 69 154 l 69 321 l 308 321 l 367 515 l 69 515 l 69 682 l 418 682 l 478 876 l 636 876 l 576 682 l 764 682 l 764 515 z "},"≤":{"ha":833,"x_min":69,"x_max":764,"o":"m 764 842 l 764 665 l 265 500 l 764 333 l 764 157 l 69 393 l 69 606 l 764 842 m 69 69 l 764 69 l 764 -97 l 69 -97 l 69 69 z "},"≥":{"ha":833,"x_min":69,"x_max":764,"o":"m 764 393 l 69 157 l 69 333 l 568 500 l 69 665 l 69 842 l 764 606 l 764 393 m 69 69 l 764 69 l 764 -97 l 69 -97 l 69 69 z "},"∞":{"ha":1126,"x_min":69,"x_max":1057,"o":"m 325 315 q 364 324 346 315 q 399 348 382 333 q 431 381 415 363 q 460 418 446 400 q 431 455 446 436 q 399 488 415 474 q 364 512 382 503 q 325 521 346 521 q 251 491 278 521 q 225 418 225 461 q 251 345 225 375 q 325 315 278 315 m 69 418 q 88 518 69 472 q 140 597 107 564 q 219 649 174 631 q 318 668 264 668 q 455 629 399 668 q 564 528 511 590 q 672 629 615 590 q 808 668 728 668 q 908 649 863 668 q 986 597 953 631 q 1038 518 1019 564 q 1057 418 1057 472 q 1038 318 1057 364 q 986 239 1019 272 q 908 187 953 206 q 808 168 863 168 q 672 207 728 168 q 564 308 615 246 q 455 207 511 246 q 318 168 399 168 q 219 187 264 168 q 140 239 174 206 q 88 318 107 272 q 69 418 69 364 m 667 418 q 696 381 681 400 q 728 348 711 363 q 765 324 746 333 q 804 315 783 315 q 875 345 849 315 q 901 418 901 375 q 875 491 901 461 q 804 521 849 521 q 765 512 783 521 q 728 488 746 503 q 696 455 711 474 q 667 418 681 436 z "},"∴":{"ha":1028,"x_min":139,"x_max":889,"o":"m 361 125 q 250 115 308 118 q 139 111 192 111 l 139 333 l 361 333 l 361 125 m 403 819 l 625 819 l 625 611 q 514 601 572 604 q 403 597 456 597 l 403 819 m 667 333 l 889 333 l 889 125 q 778 115 836 118 q 667 111 719 111 l 667 333 z "},"°":{"ha":493,"x_min":56,"x_max":438,"o":"m 247 646 q 172 661 207 646 q 112 702 138 676 q 71 763 86 728 q 56 838 56 797 q 71 911 56 876 q 112 972 86 946 q 172 1013 138 997 q 247 1028 207 1028 q 321 1013 286 1028 q 381 972 356 997 q 422 911 407 946 q 438 838 438 876 q 422 763 438 797 q 381 702 407 728 q 321 661 356 676 q 247 646 286 646 m 164 838 q 188 777 164 801 q 247 753 211 753 q 306 777 282 753 q 329 838 329 801 q 306 897 329 874 q 247 921 282 921 q 188 897 211 921 q 164 838 164 874 z "},"′":{"ha":417,"x_min":97,"x_max":319,"o":"m 319 843 q 296 722 319 774 q 238 635 272 669 q 166 581 204 600 q 97 556 128 561 l 97 646 q 173 697 139 661 q 215 785 207 733 q 154 779 185 781 q 97 778 124 778 l 97 1000 l 319 1000 l 319 843 l 319 843 z "},"″":{"ha":708,"x_min":97,"x_max":611,"o":"m 319 843 q 296 722 319 774 q 238 635 272 669 q 166 581 204 600 q 97 556 128 561 l 97 646 q 173 697 139 661 q 215 785 207 733 q 154 779 185 781 q 97 778 124 778 l 97 1000 l 319 1000 l 319 843 m 389 646 q 465 697 431 661 q 507 785 499 733 q 446 779 476 781 q 389 778 415 778 l 389 1000 l 611 1000 l 611 843 q 588 722 611 774 q 530 635 564 669 q 458 581 496 600 q 389 556 419 561 l 389 646 z "},"℃":{"ha":1394,"x_min":56,"x_max":1332,"o":"m 247 646 q 172 661 207 646 q 112 702 138 676 q 71 763 86 728 q 56 838 56 797 q 71 911 56 876 q 112 972 86 946 q 172 1013 138 997 q 247 1028 207 1028 q 321 1013 286 1028 q 381 972 356 997 q 422 911 407 946 q 438 838 438 876 q 422 763 438 797 q 381 702 407 728 q 321 661 356 676 q 247 646 286 646 m 164 838 q 188 777 164 801 q 247 753 211 753 q 306 777 282 753 q 329 838 329 801 q 306 897 329 874 q 247 921 282 921 q 188 897 211 921 q 164 838 164 874 m 507 614 q 543 790 507 714 q 638 917 579 867 q 770 994 696 968 q 921 1021 844 1021 q 1059 999 990 1021 q 1184 933 1128 976 q 1279 826 1240 890 q 1331 679 1318 763 l 1144 679 q 1063 809 1125 765 q 921 853 1001 853 q 831 838 874 853 q 758 792 789 822 q 708 717 726 763 q 690 614 690 672 l 690 289 q 708 185 690 231 q 758 110 726 140 q 831 65 789 81 q 921 50 874 50 q 1069 97 1006 50 q 1147 238 1132 144 l 1332 238 q 1283 83 1322 150 q 1188 -28 1244 17 q 1061 -95 1131 -72 q 921 -118 992 -118 q 770 -92 844 -118 q 638 -15 696 -65 q 543 113 579 36 q 507 289 507 189 l 507 614 z "},"￠":{"ha":786,"x_min":69,"x_max":724,"o":"m 246 371 q 268 266 246 306 q 328 207 290 226 l 328 696 q 268 637 290 676 q 246 532 246 597 l 246 371 m 69 532 q 86 644 69 590 q 135 741 103 697 q 217 816 168 785 q 328 858 265 847 l 328 1000 l 467 1000 l 467 860 q 577 826 531 851 q 655 767 624 801 q 703 689 686 732 q 724 600 719 646 l 549 600 q 522 660 542 633 q 467 701 503 688 l 467 201 q 522 242 503 215 q 549 303 542 269 l 724 303 q 703 214 719 257 q 655 136 686 171 q 577 76 624 101 q 467 43 531 51 l 467 -97 l 328 -97 l 328 44 q 217 87 265 56 q 135 162 168 118 q 86 259 103 206 q 69 371 69 313 l 69 532 z "},"￡":{"ha":882,"x_min":56,"x_max":813,"o":"m 813 71 l 813 -97 l 94 -97 l 94 71 q 226 174 179 119 q 275 303 272 228 l 56 303 l 56 456 l 199 456 q 165 503 182 478 q 134 557 147 528 q 113 619 121 586 q 104 693 104 653 q 133 836 104 775 q 210 938 161 897 q 322 1000 258 979 q 454 1021 385 1021 q 587 1002 522 1021 q 701 943 651 983 q 782 839 751 903 q 813 685 813 775 l 629 685 q 615 763 629 731 q 577 815 601 794 q 521 844 553 835 q 454 854 489 854 q 328 808 368 854 q 288 693 288 763 q 299 622 288 654 q 326 563 310 590 q 363 508 343 535 q 403 456 383 482 l 679 456 l 679 303 l 457 303 q 421 171 457 231 q 331 71 385 111 l 813 71 z "},"￥":{"ha":1031,"x_min":42,"x_max":989,"o":"m 247 1000 l 517 525 l 786 1000 l 989 1000 l 694 493 l 882 493 l 882 340 l 606 340 l 606 251 l 882 251 l 882 99 l 606 99 l 606 -97 l 422 -97 l 422 99 l 149 99 l 149 251 l 422 251 l 422 340 l 149 340 l 149 493 l 335 493 l 42 1000 l 247 1000 z "},"♂":{"ha":1111,"x_min":97,"x_max":1000,"o":"m 446 -11 q 310 17 374 -11 q 199 92 246 44 q 124 202 151 139 q 97 338 97 265 q 124 473 97 410 q 199 583 151 536 q 310 658 246 631 q 446 686 374 686 q 556 669 504 686 q 650 621 607 651 l 811 781 l 653 781 l 653 892 l 1000 892 l 1000 544 l 889 544 l 889 703 l 729 542 q 777 447 760 497 q 794 338 794 396 q 767 202 794 265 q 693 92 740 139 q 582 17 646 44 q 446 -11 518 -11 m 208 338 q 227 245 208 289 q 278 169 246 201 q 353 119 310 138 q 446 100 396 100 q 539 119 496 100 q 614 169 582 138 q 665 245 646 201 q 683 338 683 289 q 665 429 683 386 q 614 505 646 472 q 539 556 582 538 q 446 575 496 575 q 353 556 396 575 q 278 505 310 538 q 227 429 246 472 q 208 338 208 386 z "},"♀":{"ha":1111,"x_min":207,"x_max":904,"o":"m 611 39 l 611 -108 l 500 -108 l 500 39 l 361 39 l 361 150 l 500 150 l 500 282 q 384 323 438 292 q 291 400 331 354 q 229 503 251 446 q 207 626 207 561 q 234 762 207 699 q 308 872 261 825 q 419 947 356 919 q 556 975 483 975 q 692 947 628 975 q 803 872 756 919 q 877 762 850 825 q 904 626 904 699 q 882 503 904 561 q 820 400 860 446 q 727 323 781 354 q 611 282 674 292 l 611 150 l 750 150 l 750 39 l 611 39 m 318 626 q 337 534 318 578 q 388 458 356 490 q 463 408 419 426 q 556 389 506 389 q 649 408 606 389 q 724 458 692 426 q 774 534 756 490 q 793 626 793 578 q 774 718 793 675 q 724 794 756 761 q 649 845 692 826 q 556 864 606 864 q 463 845 506 864 q 388 794 419 826 q 337 718 356 761 q 318 626 318 675 z "},"≡":{"ha":833,"x_min":69,"x_max":764,"o":"m 764 599 l 69 599 l 69 765 l 764 765 l 764 599 m 69 238 l 764 238 l 764 71 l 69 71 l 69 238 m 69 501 l 764 501 l 764 335 l 69 335 l 69 501 z "},"≒":{"ha":833,"x_min":69,"x_max":764,"o":"m 764 -69 q 669 -79 719 -76 q 574 -82 618 -82 l 574 108 l 764 108 l 764 -69 m 69 363 l 764 363 l 764 196 l 69 196 l 69 363 m 69 640 l 764 640 l 764 474 l 69 474 l 69 640 m 69 914 l 260 914 l 260 736 q 165 726 215 729 q 69 724 114 724 l 69 914 z "},"※":{"ha":1278,"x_min":89,"x_max":1189,"o":"m 560 433 l 118 875 l 197 954 l 639 513 l 1081 954 l 1160 875 l 718 433 l 1160 -8 l 1081 -87 l 639 354 l 197 -87 l 118 -8 l 560 433 m 246 590 l 403 433 l 246 276 l 89 433 l 246 590 m 639 197 l 796 40 l 639 -117 l 482 40 l 639 197 m 639 983 l 796 826 l 639 669 l 482 826 l 639 983 m 1032 590 l 1189 433 l 1032 276 l 875 433 l 1032 590 z "},"☆":{"ha":1278,"x_min":56,"x_max":1222,"o":"m 1222 589 l 1222 586 l 872 308 l 1022 -107 l 1019 -107 l 639 140 l 258 -107 l 256 -107 l 404 308 l 56 586 l 56 589 l 490 589 l 638 1003 l 640 1003 l 788 589 l 1222 589 m 519 356 l 440 126 l 639 264 l 838 126 l 758 356 l 942 494 l 711 494 l 639 710 l 567 494 l 336 494 l 519 356 z "},"★":{"ha":1278,"x_min":56,"x_max":1222,"o":"m 1222 589 l 1222 586 l 872 308 l 1022 -107 l 1019 -107 l 639 140 l 258 -107 l 256 -107 l 404 308 l 56 586 l 56 589 l 490 589 l 638 1003 l 640 1003 l 788 589 l 1222 589 z "},"○":{"ha":1278,"x_min":56,"x_max":1222,"o":"m 639 -150 q 412 -104 518 -150 q 226 21 306 -58 q 101 206 147 100 q 56 433 56 313 q 101 660 56 554 q 226 846 147 767 q 412 971 306 925 q 639 1017 518 1017 q 866 971 760 1017 q 1051 846 972 925 q 1176 660 1131 767 q 1222 433 1222 554 q 1176 206 1222 313 q 1051 21 1131 100 q 866 -104 972 -58 q 639 -150 760 -150 m 167 433 q 203 249 167 335 q 305 99 240 164 q 455 -2 369 35 q 639 -39 540 -39 q 822 -2 736 -39 q 973 99 908 35 q 1074 249 1038 164 q 1111 433 1111 335 q 1074 617 1111 531 q 973 767 1038 703 q 822 869 908 832 q 639 906 736 906 q 455 869 540 906 q 305 767 369 832 q 203 617 240 703 q 167 433 167 531 z "},"●":{"ha":1278,"x_min":56,"x_max":1222,"o":"m 639 -150 q 412 -104 518 -150 q 226 21 306 -58 q 101 206 147 100 q 56 433 56 313 q 101 660 56 554 q 226 846 147 767 q 412 971 306 925 q 639 1017 518 1017 q 866 971 760 1017 q 1051 846 972 925 q 1176 660 1131 767 q 1222 433 1222 554 q 1176 206 1222 313 q 1051 21 1131 100 q 866 -104 972 -58 q 639 -150 760 -150 z "},"◎":{"ha":1278,"x_min":56,"x_max":1222,"o":"m 639 128 q 519 151 575 128 q 422 217 464 175 q 357 314 381 258 q 333 433 333 369 q 357 553 333 497 q 422 650 381 608 q 519 715 464 692 q 639 739 575 739 q 758 715 703 739 q 856 650 814 692 q 921 553 897 608 q 944 433 944 497 q 921 314 944 369 q 856 217 897 258 q 758 151 814 175 q 639 128 703 128 m 56 433 q 101 660 56 554 q 226 846 147 767 q 412 971 306 925 q 639 1017 518 1017 q 866 971 760 1017 q 1051 846 972 925 q 1176 660 1131 767 q 1222 433 1222 554 q 1176 206 1222 313 q 1051 21 1131 100 q 866 -104 972 -58 q 639 -150 760 -150 q 412 -104 518 -150 q 226 21 306 -58 q 101 206 147 100 q 56 433 56 313 m 167 433 q 203 249 167 335 q 305 99 240 164 q 455 -2 369 35 q 639 -39 540 -39 q 822 -2 736 -39 q 973 99 908 35 q 1074 249 1038 164 q 1111 433 1111 335 q 1074 617 1111 531 q 973 767 1038 703 q 822 869 908 832 q 639 906 736 906 q 455 869 540 906 q 305 767 369 832 q 203 617 240 703 q 167 433 167 531 m 444 433 q 460 358 444 393 q 501 296 475 322 q 563 254 528 269 q 639 239 599 239 q 715 254 679 239 q 776 296 750 269 q 818 358 803 322 q 833 433 833 393 q 818 509 833 474 q 776 571 803 544 q 715 613 750 597 q 639 628 679 628 q 563 613 599 628 q 501 571 528 597 q 460 509 475 544 q 444 433 444 474 z "},"◇":{"ha":1278,"x_min":28,"x_max":1250,"o":"m 1250 433 l 639 -178 l 28 433 l 639 1044 l 1250 433 m 639 -19 l 1092 433 l 639 886 l 186 433 l 639 -19 z "},"◆":{"ha":1278,"x_min":28,"x_max":1250,"o":"m 1250 433 l 639 -178 l 28 433 l 639 1044 l 1250 433 z "},"□":{"ha":1278,"x_min":97,"x_max":1181,"o":"m 97 975 l 1181 975 l 1181 -108 l 97 -108 l 97 975 m 1069 3 l 1069 864 l 208 864 l 208 3 l 1069 3 z "},"■":{"ha":1278,"x_min":97,"x_max":1181,"o":"m 97 975 l 1181 975 l 1181 -108 l 97 -108 l 97 975 z "},"△":{"ha":1278,"x_min":42,"x_max":1236,"o":"m 1236 -108 l 42 -108 l 639 1017 l 1236 -108 m 1051 3 l 639 781 l 226 3 l 1051 3 z "},"▲":{"ha":1278,"x_min":42,"x_max":1236,"o":"m 1236 -108 l 42 -108 l 639 1017 l 1236 -108 z "},"▽":{"ha":1278,"x_min":42,"x_max":1236,"o":"m 42 975 l 1236 975 l 639 -150 l 42 975 m 639 86 l 1051 864 l 226 864 l 639 86 z "},"▼":{"ha":1278,"x_min":42,"x_max":1236,"o":"m 42 975 l 1236 975 l 639 -150 l 42 975 z "},"→":{"ha":1278,"x_min":56,"x_max":1250,"o":"m 907 249 l 1036 378 l 56 378 l 56 489 l 1036 489 l 907 618 l 986 697 l 1250 433 l 986 169 l 907 249 z "},"←":{"ha":1278,"x_min":28,"x_max":1222,"o":"m 28 433 l 292 697 l 371 618 l 242 489 l 1222 489 l 1222 378 l 242 378 l 371 249 l 292 169 l 28 433 z "},"↑":{"ha":1278,"x_min":375,"x_max":903,"o":"m 824 701 l 694 831 l 694 -150 l 583 -150 l 583 831 l 454 701 l 375 781 l 639 1044 l 903 781 l 824 701 z "},"↓":{"ha":1278,"x_min":375,"x_max":903,"o":"m 639 -178 l 375 86 l 454 165 l 583 36 l 583 1017 l 694 1017 l 694 36 l 824 165 l 903 86 l 639 -178 z "},"↔":{"ha":1278,"x_min":28,"x_max":1250,"o":"m 907 249 l 1036 378 l 242 378 l 371 249 l 292 169 l 28 433 l 292 697 l 371 618 l 242 489 l 1036 489 l 907 618 l 986 697 l 1250 433 l 986 169 l 907 249 z "},"〓":{"ha":1278,"x_min":139,"x_max":1139,"o":"m 1139 544 l 139 544 l 139 656 l 1139 656 l 1139 544 m 139 322 l 1139 322 l 1139 211 l 139 211 l 139 322 z "},"√":{"ha":1081,"x_min":42,"x_max":1011,"o":"m 358 -124 l 676 1097 l 1011 1097 l 1011 944 l 828 944 l 479 -361 l 247 -361 l 42 324 l 229 324 l 358 -124 z "},"∵":{"ha":1028,"x_min":139,"x_max":889,"o":"m 361 611 q 250 601 308 604 q 139 597 192 597 l 139 819 l 361 819 l 361 611 m 403 333 l 625 333 l 625 125 q 514 115 572 118 q 403 111 456 111 l 403 333 m 667 819 l 889 819 l 889 611 q 778 601 836 604 q 667 597 719 597 l 667 819 z "},"⇒":{"ha":1278,"x_min":56,"x_max":1250,"o":"m 768 110 l 911 253 l 56 253 l 56 364 l 1022 364 l 1092 433 l 1022 503 l 56 503 l 56 614 l 911 614 l 768 757 l 847 836 l 1250 433 l 847 31 l 768 110 z "},"⇔":{"ha":1278,"x_min":28,"x_max":1250,"o":"m 768 110 l 911 253 l 367 253 l 510 110 l 431 31 l 28 433 l 431 836 l 510 757 l 367 614 l 911 614 l 768 757 l 847 836 l 1250 433 l 847 31 l 768 110 m 256 364 l 1022 364 l 1092 433 l 1022 503 l 256 503 l 186 433 l 256 364 z "},"℉":{"ha":1250,"x_min":56,"x_max":1194,"o":"m 535 1000 l 1194 1000 l 1194 833 l 718 833 l 718 514 q 937 527 826 517 q 1146 561 1047 538 l 1146 394 q 937 361 1047 371 q 718 349 826 351 l 718 -97 l 535 -97 l 535 1000 m 56 838 q 71 911 56 876 q 112 972 86 946 q 172 1013 138 997 q 247 1028 207 1028 q 321 1013 286 1028 q 381 972 356 997 q 422 911 407 946 q 438 838 438 876 q 422 763 438 797 q 381 702 407 728 q 321 661 356 676 q 247 646 286 646 q 172 661 207 646 q 112 702 138 676 q 71 763 86 728 q 56 838 56 797 m 164 838 q 188 777 164 801 q 247 753 211 753 q 306 777 282 753 q 329 838 329 801 q 306 897 329 874 q 247 921 282 921 q 188 897 211 921 q 164 838 164 874 z "},"◁":{"ha":1278,"x_min":56,"x_max":1181,"o":"m 1181 1031 l 1181 -164 l 56 433 l 1181 1031 m 1069 21 l 1069 846 l 292 433 l 1069 21 z "},"◀":{"ha":1278,"x_min":56,"x_max":1181,"o":"m 1181 1031 l 1181 -164 l 56 433 l 1181 1031 z "},"▷":{"ha":1278,"x_min":97,"x_max":1222,"o":"m 97 -164 l 97 1031 l 1222 433 l 97 -164 m 986 433 l 208 846 l 208 21 l 986 433 z "},"▶":{"ha":1278,"x_min":97,"x_max":1222,"o":"m 97 -164 l 97 1031 l 1222 433 l 97 -164 z "},"♤":{"ha":1278,"x_min":83,"x_max":1194,"o":"m 639 886 q 485 765 564 829 q 341 629 406 700 q 235 483 276 558 q 194 329 194 408 q 240 190 194 242 q 367 139 286 139 q 494 181 438 139 q 568 290 550 222 q 596 335 576 321 q 639 350 615 350 q 682 335 663 350 q 710 290 701 321 q 784 181 728 222 q 911 139 840 139 q 1038 190 992 139 q 1083 329 1083 242 q 1042 483 1083 408 q 935 629 1000 558 q 792 765 871 700 q 639 886 714 829 m 83 318 q 132 514 83 419 q 259 696 181 608 q 437 863 338 783 q 639 1017 536 943 q 840 863 740 943 q 1019 696 940 783 q 1146 514 1097 608 q 1194 318 1194 419 q 1172 201 1194 254 q 1112 110 1150 149 q 1024 51 1074 72 q 919 31 974 31 q 841 42 879 31 q 770 74 803 53 q 713 124 738 94 q 678 189 689 153 l 742 -150 l 536 -150 l 600 189 q 565 124 589 153 q 508 74 540 94 q 437 42 475 53 q 358 31 399 31 q 254 51 304 31 q 166 110 204 72 q 106 201 128 149 q 83 318 83 254 z "},"♠":{"ha":1278,"x_min":83,"x_max":1194,"o":"m 83 318 q 132 514 83 419 q 259 696 181 608 q 437 863 338 783 q 639 1017 536 943 q 840 863 740 943 q 1019 696 940 783 q 1146 514 1097 608 q 1194 318 1194 419 q 1172 201 1194 254 q 1112 110 1150 149 q 1024 51 1074 72 q 919 31 974 31 q 841 42 879 31 q 770 74 803 53 q 713 124 738 94 q 678 189 689 153 l 742 -150 l 536 -150 l 600 189 q 565 124 589 153 q 508 74 540 94 q 437 42 475 53 q 358 31 399 31 q 254 51 304 31 q 166 110 204 72 q 106 201 128 149 q 83 318 83 254 z "},"♡":{"ha":1278,"x_min":83,"x_max":1194,"o":"m 639 8 q 796 144 717 68 q 939 304 875 221 q 1043 474 1003 388 q 1083 644 1083 561 q 1031 806 1083 749 q 900 864 979 864 q 780 820 831 864 q 710 708 729 776 q 682 663 701 678 q 639 649 663 649 q 596 663 615 649 q 568 708 576 678 q 498 820 549 776 q 378 864 447 864 q 247 806 299 864 q 194 644 194 749 q 235 474 194 561 q 339 304 275 388 q 482 144 403 221 q 639 8 561 68 m 83 656 q 109 788 83 729 q 176 889 135 847 q 271 953 218 931 q 378 975 324 975 q 542 922 474 975 q 639 782 610 869 q 736 922 668 869 q 900 975 804 975 q 1007 953 954 975 q 1101 889 1060 931 q 1169 788 1143 847 q 1194 656 1194 729 q 1149 448 1194 551 q 1026 246 1103 344 q 849 54 949 147 q 639 -122 749 -39 q 429 54 529 -39 q 252 246 329 147 q 129 448 175 344 q 83 656 83 551 z "},"♥":{"ha":1278,"x_min":83,"x_max":1194,"o":"m 83 656 q 109 788 83 729 q 176 889 135 847 q 271 953 218 931 q 378 975 324 975 q 542 922 474 975 q 639 782 610 869 q 736 922 668 869 q 900 975 804 975 q 1007 953 954 975 q 1101 889 1060 931 q 1169 788 1143 847 q 1194 656 1194 729 q 1149 448 1194 551 q 1026 246 1103 344 q 849 54 949 147 q 639 -122 749 -39 q 429 54 529 -39 q 252 246 329 147 q 129 448 175 344 q 83 656 83 551 z "},"♧":{"ha":1278,"x_min":83,"x_max":1194,"o":"m 639 864 q 579 853 607 864 q 530 821 551 842 q 496 772 508 800 q 483 708 483 743 q 506 612 483 654 q 560 535 529 569 q 575 490 578 515 q 558 444 572 464 q 520 415 543 424 q 472 418 497 406 q 413 443 444 433 q 353 453 381 453 q 239 410 286 453 q 192 290 192 368 q 205 227 192 256 q 240 178 218 199 q 290 145 261 157 q 350 133 318 133 q 417 146 388 133 q 469 178 446 158 q 508 221 492 197 q 533 267 524 244 q 574 316 549 299 q 639 333 600 333 q 703 316 678 333 q 744 267 729 299 q 770 221 754 244 q 809 178 786 197 q 861 146 832 158 q 928 133 890 133 q 988 145 958 133 q 1038 178 1017 157 q 1073 227 1060 199 q 1086 290 1086 256 q 1039 410 1086 368 q 925 453 992 453 q 865 443 897 453 q 806 418 833 433 q 758 415 781 406 q 720 444 735 424 q 703 490 706 464 q 718 535 700 515 q 772 612 749 569 q 794 708 794 654 q 782 772 794 743 q 748 821 769 800 q 698 853 726 842 q 639 864 669 864 m 83 290 q 104 394 83 347 q 160 474 125 440 q 243 526 196 507 q 342 544 290 544 q 417 531 376 544 q 486 497 458 517 q 408 588 442 532 q 375 708 375 643 q 397 813 375 765 q 456 897 419 861 q 540 952 492 932 q 639 972 588 972 q 738 952 690 972 q 822 897 786 932 q 881 813 858 861 q 903 708 903 765 q 869 588 903 643 q 792 497 836 532 q 860 531 819 517 q 936 544 901 544 q 1035 526 988 544 q 1117 474 1082 507 q 1174 394 1153 440 q 1194 290 1194 347 q 1173 188 1194 236 q 1115 106 1151 140 q 1032 51 1079 71 q 933 31 985 31 q 849 44 890 31 q 772 83 807 58 q 710 142 736 108 q 672 217 683 176 l 742 -150 l 536 -150 l 606 217 q 568 142 594 176 q 506 83 542 108 q 429 44 471 58 q 344 31 388 31 q 246 51 293 31 q 163 106 199 71 q 105 188 126 140 q 83 290 83 236 z "},"♣":{"ha":1278,"x_min":83,"x_max":1194,"o":"m 83 290 q 104 394 83 347 q 160 474 125 440 q 243 526 196 507 q 342 544 290 544 q 417 531 376 544 q 486 497 458 517 q 408 588 442 532 q 375 708 375 643 q 397 813 375 765 q 456 897 419 861 q 540 952 492 932 q 639 972 588 972 q 738 952 690 972 q 822 897 786 932 q 881 813 858 861 q 903 708 903 765 q 869 588 903 643 q 792 497 836 532 q 860 531 819 517 q 936 544 901 544 q 1035 526 988 544 q 1117 474 1082 507 q 1174 394 1153 440 q 1194 290 1194 347 q 1173 188 1194 236 q 1115 106 1151 140 q 1032 51 1079 71 q 933 31 985 31 q 849 44 890 31 q 772 83 807 58 q 710 142 736 108 q 672 217 683 176 l 742 -150 l 536 -150 l 606 217 q 568 142 594 176 q 506 83 542 108 q 429 44 471 58 q 344 31 388 31 q 246 51 293 31 q 163 106 199 71 q 105 188 126 140 q 83 290 83 236 z "},"◉":{"ha":1278,"x_min":56,"x_max":1222,"o":"m 639 128 q 519 151 575 128 q 422 217 464 175 q 357 314 381 258 q 333 433 333 369 q 357 553 333 497 q 422 650 381 608 q 519 715 464 692 q 639 739 575 739 q 758 715 703 739 q 856 650 814 692 q 921 553 897 608 q 944 433 944 497 q 921 314 944 369 q 856 217 897 258 q 758 151 814 175 q 639 128 703 128 m 56 433 q 101 660 56 554 q 226 846 147 767 q 412 971 306 925 q 639 1017 518 1017 q 866 971 760 1017 q 1051 846 972 925 q 1176 660 1131 767 q 1222 433 1222 554 q 1176 206 1222 313 q 1051 21 1131 100 q 866 -104 972 -58 q 639 -150 760 -150 q 412 -104 518 -150 q 226 21 306 -58 q 101 206 147 100 q 56 433 56 313 m 167 433 q 203 249 167 335 q 305 99 240 164 q 455 -2 369 35 q 639 -39 540 -39 q 822 -2 736 -39 q 973 99 908 35 q 1074 249 1038 164 q 1111 433 1111 335 q 1074 617 1111 531 q 973 767 1038 703 q 822 869 908 832 q 639 906 736 906 q 455 869 540 906 q 305 767 369 832 q 203 617 240 703 q 167 433 167 531 z "},"◈":{"ha":1278,"x_min":28,"x_max":1250,"o":"m 1250 433 l 639 -178 l 28 433 l 639 1044 l 1250 433 m 639 -19 l 1092 433 l 639 886 l 186 433 l 639 -19 m 639 679 l 885 433 l 639 188 l 393 433 l 639 679 z "},"▣":{"ha":1278,"x_min":97,"x_max":1181,"o":"m 97 975 l 1181 975 l 1181 -108 l 97 -108 l 97 975 m 1069 3 l 1069 864 l 208 864 l 208 3 l 1069 3 m 375 697 l 903 697 l 903 169 l 375 169 l 375 697 z "},"◐":{"ha":1278,"x_min":56,"x_max":1222,"o":"m 639 -150 q 412 -104 518 -150 q 226 21 306 -58 q 101 206 147 100 q 56 433 56 313 q 101 660 56 554 q 226 846 147 767 q 412 971 306 925 q 639 1017 518 1017 q 866 971 760 1017 q 1051 846 972 925 q 1176 660 1131 767 q 1222 433 1222 554 q 1176 206 1222 313 q 1051 21 1131 100 q 866 -104 972 -58 q 639 -150 760 -150 m 639 -39 q 822 -2 736 -39 q 973 99 908 35 q 1074 249 1038 164 q 1111 433 1111 335 q 1074 617 1111 531 q 973 767 1038 703 q 822 869 908 832 q 639 906 736 906 l 639 -39 z "},"◑":{"ha":1278,"x_min":56,"x_max":1222,"o":"m 639 -150 q 412 -104 518 -150 q 226 21 306 -58 q 101 206 147 100 q 56 433 56 313 q 101 660 56 554 q 226 846 147 767 q 412 971 306 925 q 639 1017 518 1017 q 866 971 760 1017 q 1051 846 972 925 q 1176 660 1131 767 q 1222 433 1222 554 q 1176 206 1222 313 q 1051 21 1131 100 q 866 -104 972 -58 q 639 -150 760 -150 m 167 433 q 203 249 167 335 q 305 99 240 164 q 455 -2 369 35 q 639 -39 540 -39 l 639 906 q 455 869 540 906 q 305 767 369 832 q 203 617 240 703 q 167 433 167 531 z "},"♨":{"ha":1278,"x_min":83,"x_max":1194,"o":"m 383 344 q 369 440 383 394 q 338 532 354 486 q 306 625 321 578 q 292 725 292 672 q 297 787 292 754 q 315 852 301 819 q 353 916 329 885 q 418 975 378 947 l 479 904 q 420 822 438 863 q 403 736 403 781 q 417 640 403 686 q 449 547 432 593 q 480 453 465 500 q 494 356 494 406 q 490 292 494 325 q 471 226 485 260 q 433 156 457 192 q 371 86 410 121 l 299 164 q 383 344 383 244 m 83 168 q 97 231 83 201 q 134 284 111 260 q 186 326 157 308 q 244 354 215 343 l 271 297 q 213 251 235 278 q 192 182 192 225 q 299 50 192 97 q 639 3 406 3 q 979 50 872 3 q 1086 182 1086 97 q 1065 251 1086 225 q 1007 297 1043 278 l 1033 354 q 1091 326 1063 343 q 1142 284 1119 308 q 1180 231 1165 260 q 1194 168 1194 201 q 1160 60 1194 110 q 1058 -28 1126 10 q 885 -87 989 -65 q 639 -108 781 -108 q 393 -87 497 -108 q 220 -28 289 -65 q 117 60 151 10 q 83 168 83 110 m 524 725 q 528 789 524 754 q 547 859 533 824 q 585 928 561 894 q 650 989 610 961 l 711 918 q 652 828 669 876 q 635 736 635 781 q 649 640 635 686 q 681 547 664 593 q 712 453 697 500 q 726 356 726 406 q 722 290 726 325 q 703 219 717 256 q 665 144 689 182 q 603 72 642 107 l 531 150 q 594 243 572 190 q 615 344 615 296 q 601 440 615 394 q 569 532 586 486 q 538 625 553 578 q 524 725 524 672 m 756 725 q 760 787 756 754 q 779 852 765 819 q 817 916 793 885 q 882 975 842 947 l 943 904 q 884 822 901 863 q 867 736 867 781 q 881 640 867 686 q 913 547 896 593 q 944 453 929 500 q 958 356 958 406 q 953 292 958 325 q 935 226 949 260 q 897 156 921 192 q 835 86 874 121 l 763 164 q 847 344 847 244 q 833 440 847 394 q 801 532 818 486 q 770 625 785 578 q 756 725 756 672 z "},"☏":{"ha":1278,"x_min":83,"x_max":1194,"o":"m 182 172 q 213 344 182 279 q 303 457 244 410 l 83 457 l 83 549 q 106 667 83 615 q 178 751 128 718 q 372 834 258 804 q 639 864 486 864 q 906 834 792 864 q 1100 751 1019 804 q 1172 667 1150 718 q 1194 549 1194 615 l 1194 457 l 975 457 q 1065 344 1033 410 q 1096 172 1096 279 l 1096 17 l 182 17 l 182 172 m 351 536 l 351 697 l 443 697 l 443 592 q 440 535 443 560 q 428 488 438 510 q 402 444 419 465 q 356 399 385 422 q 311 357 329 378 q 281 310 293 336 q 265 250 269 283 q 260 172 260 217 l 260 94 l 1018 94 l 1018 172 q 1013 250 1018 217 q 996 310 1007 283 q 967 357 985 336 q 922 399 949 378 q 876 444 893 422 q 849 488 858 465 q 838 535 840 510 q 835 592 835 560 l 835 697 l 926 697 l 926 536 l 1117 536 l 1117 549 q 1103 633 1117 601 q 1056 689 1090 665 q 883 760 985 735 q 639 786 782 786 q 394 760 496 786 q 222 689 293 735 q 174 633 188 665 q 161 549 161 601 l 161 536 l 351 536 m 469 294 q 483 362 469 331 q 521 416 497 393 q 576 451 544 439 q 640 464 607 464 q 703 451 674 464 q 757 416 733 439 q 794 362 781 393 q 808 294 808 331 q 794 228 808 258 q 757 174 781 197 q 703 139 733 151 q 640 126 674 126 q 576 139 607 126 q 521 174 544 151 q 483 228 497 197 q 469 294 469 258 m 508 697 l 769 697 l 769 497 l 508 497 l 508 697 m 547 294 q 576 228 547 251 q 640 204 604 204 q 703 228 675 204 q 731 294 731 251 q 703 363 731 339 q 640 386 675 386 q 576 363 604 386 q 547 294 547 339 m 692 575 l 692 618 l 586 618 l 586 575 l 692 575 z "},"☎":{"ha":1278,"x_min":97,"x_max":1181,"o":"m 194 158 q 204 251 194 210 q 233 324 214 292 q 279 383 251 357 q 342 433 307 410 q 387 469 369 451 q 414 508 404 488 q 427 551 424 528 q 431 604 431 575 l 431 674 l 361 674 l 361 503 l 97 503 l 97 558 q 117 665 97 621 q 181 739 136 710 q 371 821 260 792 q 639 850 482 850 q 907 821 796 850 q 1097 739 1018 792 q 1161 665 1142 710 q 1181 558 1181 621 l 1181 503 l 917 503 l 917 674 l 847 674 l 847 604 q 851 551 847 575 q 864 508 854 528 q 891 469 874 488 q 936 433 908 451 q 999 383 971 410 q 1045 324 1026 357 q 1074 251 1064 292 q 1083 158 1083 210 l 1083 31 l 194 31 l 194 158 m 444 288 q 460 212 444 247 q 501 150 475 176 q 563 108 528 124 q 640 93 599 93 q 716 108 681 93 q 777 150 751 124 q 818 212 803 176 q 833 288 833 247 q 818 363 833 328 q 777 425 803 399 q 716 467 751 451 q 640 482 681 482 q 563 467 599 482 q 501 425 528 451 q 460 363 475 399 q 444 288 444 328 m 736 544 l 736 674 l 542 674 l 542 544 l 736 544 z "},"☜":{"ha":1278,"x_min":97,"x_max":1153,"o":"m 679 153 q 624 155 654 153 q 578 164 593 157 q 530 165 554 161 q 482 182 506 168 q 436 263 443 207 l 431 267 q 395 303 408 283 q 379 357 382 324 q 344 391 356 369 q 332 438 332 413 q 334 459 332 449 q 343 479 336 469 q 276 478 313 478 q 200 481 239 478 q 120 508 143 483 q 97 558 97 533 q 107 598 97 582 q 131 624 117 614 q 164 640 146 635 q 199 649 182 646 q 259 657 221 653 q 342 665 297 661 q 435 672 386 668 q 528 678 483 675 q 610 682 572 681 q 671 683 647 683 q 824 659 735 683 q 1019 593 913 635 q 1038 592 1026 589 l 1153 607 l 1153 218 l 1025 233 q 1015 233 1021 233 q 1006 232 1008 233 q 890 185 949 203 q 772 158 831 167 q 726 154 750 156 q 679 153 701 153 m 154 561 q 176 541 154 546 q 238 536 199 536 l 371 536 q 412 537 390 536 q 449 539 433 538 q 488 582 464 560 q 536 621 511 604 q 447 614 494 618 q 356 606 400 610 q 273 597 311 601 q 210 590 235 593 q 166 579 178 586 q 154 561 154 572 m 394 422 q 420 402 400 407 q 458 397 440 397 q 590 419 526 397 q 621 435 604 424 q 638 461 638 446 l 568 443 q 528 436 549 438 q 493 438 508 435 q 459 451 474 442 q 439 482 444 461 q 401 457 414 474 q 394 422 388 440 m 440 344 q 447 326 442 332 q 458 315 451 319 q 489 307 472 308 q 524 306 506 306 q 581 316 546 306 q 643 344 615 326 q 672 367 664 357 q 681 386 681 376 q 679 394 681 389 q 676 403 678 400 q 574 355 631 369 q 464 340 517 340 q 440 344 453 340 m 497 503 q 503 493 497 496 q 518 490 510 490 q 536 492 526 490 q 553 494 546 493 q 598 508 575 500 q 641 522 621 515 q 676 535 661 529 q 694 543 690 540 q 714 545 703 547 q 731 535 725 543 q 757 510 738 525 q 808 478 776 494 q 874 453 840 463 q 939 444 908 444 q 960 438 950 444 q 971 415 971 431 q 943 385 971 394 q 906 378 925 379 q 863 376 886 376 q 838 378 851 376 q 810 379 824 379 q 776 365 789 379 q 764 333 764 350 q 760 285 764 308 q 740 244 756 261 q 686 210 719 222 q 725 212 701 210 q 765 217 749 214 q 878 243 819 224 q 996 290 938 263 q 1017 294 1007 297 l 1069 288 l 1069 536 l 1047 533 q 1024 531 1036 532 q 1000 536 1013 531 q 828 599 908 574 q 703 625 747 625 q 643 617 667 625 q 594 593 619 610 q 553 563 579 585 q 510 525 526 542 q 497 503 497 513 m 501 247 q 514 229 504 235 q 540 222 528 222 q 558 221 553 221 q 628 236 590 221 q 689 278 665 251 q 697 292 696 286 q 697 301 699 299 q 682 301 693 310 q 606 263 647 279 q 524 247 564 247 l 501 247 z "},"☞":{"ha":1278,"x_min":125,"x_max":1181,"o":"m 599 153 q 552 154 576 153 q 506 158 528 156 q 388 185 447 167 q 272 232 329 203 q 263 233 269 233 q 253 233 257 233 l 125 218 l 125 607 l 240 592 q 258 593 251 589 q 454 659 365 635 q 607 683 543 683 q 667 682 629 683 q 750 678 706 681 q 843 672 794 675 q 936 665 892 668 q 1018 657 981 661 q 1079 649 1056 653 q 1114 640 1096 646 q 1147 624 1132 635 q 1171 598 1161 614 q 1181 558 1181 582 q 1158 508 1181 533 q 1078 481 1135 483 q 1002 478 1039 478 q 935 479 965 478 q 944 459 942 469 q 946 438 946 449 q 934 391 946 413 q 899 357 922 369 q 883 303 896 324 q 847 267 869 283 l 842 263 q 796 182 835 207 q 748 165 772 168 q 700 164 724 161 q 654 155 685 157 q 599 153 624 153 m 261 294 q 282 290 271 297 q 399 243 340 263 q 513 217 458 224 q 553 212 529 214 q 592 210 576 210 q 538 244 558 222 q 518 285 522 261 q 514 333 514 308 q 501 365 514 350 q 468 379 489 379 q 440 378 454 379 q 415 376 426 376 q 372 378 392 376 q 335 385 353 379 q 307 415 307 394 q 317 438 307 431 q 339 444 328 444 q 403 453 369 444 q 469 478 438 463 q 521 510 501 494 q 547 535 540 525 q 564 545 553 543 q 583 543 575 547 q 602 535 588 540 q 636 522 617 529 q 679 508 656 515 q 725 494 703 500 q 742 492 732 493 q 760 490 751 490 q 774 493 768 490 q 781 503 781 496 q 768 525 781 513 q 725 563 751 542 q 683 593 699 585 q 635 617 658 610 q 575 625 611 625 q 450 599 531 625 q 278 536 369 574 q 253 531 265 531 q 231 533 242 532 l 208 536 l 208 288 l 261 294 m 581 301 q 581 292 579 299 q 589 278 582 286 q 650 236 613 251 q 719 221 688 221 q 738 222 725 221 q 764 229 750 222 q 776 247 774 235 l 754 247 q 672 263 714 247 q 596 301 631 279 q 581 301 585 310 m 597 386 q 606 367 597 376 q 635 344 614 357 q 697 316 663 326 q 754 306 732 306 q 789 307 772 306 q 819 315 806 308 q 831 326 826 319 q 838 344 836 332 q 814 340 825 340 q 704 355 761 340 q 601 403 647 369 q 599 394 600 400 q 597 386 597 389 m 640 461 q 657 435 640 446 q 688 419 674 424 q 819 397 751 397 q 858 402 838 397 q 883 422 878 407 q 877 457 890 440 q 839 482 864 474 q 819 451 833 461 q 785 438 804 442 q 749 436 769 435 q 710 443 729 438 l 640 461 m 742 621 q 790 582 767 604 q 829 539 814 560 q 866 537 844 538 q 907 536 888 536 l 1040 536 q 1101 541 1079 536 q 1124 561 1124 546 q 1112 579 1124 572 q 1068 590 1100 586 q 1005 597 1043 593 q 922 606 967 601 q 831 614 878 610 q 742 621 783 618 z "},"¶":{"ha":957,"x_min":69,"x_max":818,"o":"m 533 -269 l 360 -269 l 360 542 l 315 542 q 136 603 203 542 q 69 781 69 665 l 69 858 q 136 1035 69 974 q 315 1097 203 1097 l 533 1097 l 533 -269 m 644 1097 l 818 1097 l 818 -269 l 644 -269 l 644 1097 z "},"↕":{"ha":1278,"x_min":375,"x_max":903,"o":"m 824 701 l 694 831 l 694 36 l 824 165 l 903 86 l 639 -178 l 375 86 l 454 165 l 583 36 l 583 831 l 454 701 l 375 781 l 639 1044 l 903 781 l 824 701 z "},"↗":{"ha":1278,"x_min":186,"x_max":1069,"o":"m 957 490 l 957 672 l 264 -19 l 186 58 l 878 751 l 696 751 l 696 864 l 1069 864 l 1069 490 l 957 490 z "},"↙":{"ha":1278,"x_min":208,"x_max":1092,"o":"m 321 376 l 321 194 l 1014 886 l 1092 808 l 400 115 l 582 115 l 582 3 l 208 3 l 208 376 l 321 376 z "},"↖":{"ha":1278,"x_min":208,"x_max":1092,"o":"m 208 864 l 582 864 l 582 751 l 400 751 l 1092 58 l 1014 -19 l 321 672 l 321 490 l 208 490 l 208 864 z "},"↘":{"ha":1278,"x_min":186,"x_max":1069,"o":"m 1069 -19 l 696 -19 l 696 93 l 878 93 l 186 786 l 264 864 l 957 172 l 957 354 l 1069 354 l 1069 -19 z "},"♭":{"ha":1111,"x_min":333,"x_max":840,"o":"m 444 501 q 526 579 475 543 q 643 615 576 615 q 727 597 690 615 q 789 547 764 579 q 827 471 814 514 q 840 378 840 428 q 804 224 840 299 q 702 85 768 149 q 542 -28 636 22 q 333 -108 449 -78 l 333 975 l 444 975 l 444 501 m 444 53 q 554 109 503 75 q 644 185 606 143 q 706 276 683 228 q 729 378 729 325 q 703 469 729 433 q 632 504 678 504 q 533 460 588 504 q 444 338 479 415 l 444 53 z "},"♩":{"ha":1111,"x_min":300,"x_max":653,"o":"m 531 -85 q 462 -106 496 -100 q 398 -106 428 -111 q 345 -87 368 -101 q 311 -49 322 -72 q 303 2 300 -25 q 323 55 307 29 q 365 103 339 81 q 425 143 390 126 q 542 165 485 169 l 542 975 l 653 975 l 653 71 q 620 -15 653 28 q 531 -85 588 -58 z "},"♪":{"ha":1111,"x_min":244,"x_max":874,"o":"m 475 -85 q 406 -106 440 -100 q 342 -106 372 -111 q 290 -87 313 -101 q 256 -49 267 -72 q 248 2 244 -25 q 267 55 251 29 q 309 103 283 81 q 369 143 335 126 q 486 165 429 169 l 486 975 l 597 975 l 597 967 q 635 821 597 879 q 736 717 672 763 q 842 599 811 663 q 874 451 874 535 q 864 381 874 418 q 839 306 854 343 q 806 237 824 269 q 771 179 788 204 l 688 179 q 718 240 704 207 q 742 309 732 274 q 757 378 751 344 q 763 440 763 413 q 718 578 763 519 q 597 663 674 636 l 597 71 q 565 -15 597 28 q 475 -85 532 -58 z "},"♬":{"ha":1111,"x_min":50,"x_max":958,"o":"m 281 -99 q 212 -119 246 -114 q 148 -120 178 -125 q 95 -101 118 -115 q 61 -62 72 -86 q 53 -12 50 -39 q 73 41 57 15 q 115 90 89 67 q 175 129 140 113 q 292 151 235 156 l 292 879 l 958 1001 l 958 158 q 926 72 958 115 q 836 3 893 29 q 767 -18 801 -12 q 703 -19 733 -24 q 651 1 674 -14 q 617 39 628 15 q 609 90 606 63 q 628 142 613 117 q 670 191 644 168 q 731 231 696 214 q 847 253 790 257 l 847 536 l 403 454 l 403 57 q 370 -29 403 14 q 281 -99 338 -72 m 847 731 l 847 786 l 403 704 l 403 649 l 847 731 z "},"㈜":{"ha":1278,"x_min":28,"x_max":1250,"o":"m 229 311 q 639 317 438 311 q 1049 351 840 324 l 1049 207 q 883 188 965 196 q 718 175 801 181 l 718 -126 l 560 -126 l 560 169 q 394 166 476 167 q 229 165 313 165 l 229 311 m 28 435 q 76 777 28 610 q 219 1083 125 944 l 292 1083 q 178 775 217 940 q 139 435 139 610 q 178 94 139 260 q 292 -214 217 -71 l 219 -214 q 76 92 125 -75 q 28 435 28 260 m 258 561 q 362 579 308 561 q 459 628 415 597 q 531 703 503 660 q 560 799 560 747 l 269 799 l 269 940 l 1008 940 l 1008 799 l 718 799 q 746 715 718 751 q 817 653 774 678 q 913 614 860 628 q 1019 599 967 600 l 1019 453 q 922 463 975 453 q 819 492 869 472 q 722 539 768 511 q 643 604 675 567 q 565 525 611 560 q 465 466 518 490 q 358 428 411 442 q 258 415 304 415 l 258 561 m 986 -214 q 1100 94 1061 -71 q 1139 435 1139 260 q 1100 775 1139 610 q 986 1083 1061 940 l 1058 1083 q 1201 777 1153 944 q 1250 435 1250 610 q 1201 92 1250 260 q 1058 -214 1153 -75 l 986 -214 z "},"™":{"ha":1249,"x_min":56,"x_max":1151,"o":"m 481 890 l 332 890 l 332 438 l 204 438 l 204 890 l 56 890 l 56 1000 l 481 1000 l 481 890 m 540 1000 l 747 1000 l 846 647 l 944 1000 l 1151 1000 l 1151 438 l 1026 438 l 1026 858 l 911 438 l 781 438 l 665 858 l 665 438 l 540 438 l 540 1000 z "},"ㄱ":{"ha":1278,"x_min":160,"x_max":1111,"o":"m 931 739 l 160 739 l 160 906 l 1111 906 l 1111 -39 l 931 -39 l 931 739 z "},"ㄲ":{"ha":1278,"x_min":118,"x_max":1153,"o":"m 440 742 l 118 742 l 118 906 l 618 906 l 618 -39 l 440 -39 l 440 742 m 667 906 l 1153 906 l 1153 -39 l 975 -39 l 975 742 l 667 742 l 667 906 z "},"ㄳ":{"ha":1278,"x_min":118,"x_max":1181,"o":"m 426 742 l 118 742 l 118 906 l 604 906 l 604 -39 l 426 -39 l 426 742 m 653 146 q 719 203 688 165 q 776 297 751 242 q 815 422 800 351 q 829 581 829 493 l 829 906 l 1004 906 l 1004 581 q 1019 422 1004 493 q 1058 297 1033 351 q 1114 203 1082 242 q 1181 146 1146 165 l 1181 -46 q 1108 -6 1144 -32 q 1038 56 1072 21 q 972 137 1003 92 q 917 235 940 182 q 862 137 893 182 q 796 56 831 92 q 724 -6 761 21 q 653 -46 688 -32 l 653 146 z "},"ㄴ":{"ha":1278,"x_min":167,"x_max":1118,"o":"m 347 128 l 1118 128 l 1118 -39 l 167 -39 l 167 906 l 347 906 l 347 128 z "},"ㄵ":{"ha":1278,"x_min":125,"x_max":1167,"o":"m 1167 -46 q 1094 -6 1132 -32 q 1022 58 1057 21 q 953 140 986 94 q 896 239 921 186 q 838 140 871 186 q 770 58 806 94 q 697 -6 735 21 q 625 -46 660 -32 l 625 143 q 692 197 660 160 q 751 288 725 233 q 792 412 776 342 q 808 564 808 482 l 808 744 l 639 744 l 639 906 l 1153 906 l 1153 744 l 983 744 l 983 564 q 999 412 983 482 q 1041 288 1015 342 q 1099 197 1067 233 q 1167 143 1132 160 l 1167 -46 m 125 906 l 303 906 l 303 125 l 583 125 l 583 -39 l 125 -39 l 125 906 z "},"ㄶ":{"ha":1278,"x_min":125,"x_max":1153,"o":"m 303 125 l 583 125 l 583 -39 l 125 -39 l 125 906 l 303 906 l 303 125 m 597 822 l 790 822 l 790 933 l 960 933 l 960 822 l 1153 822 l 1153 664 l 597 664 l 597 822 m 611 367 q 632 469 611 422 q 689 551 653 517 q 773 603 725 585 q 875 622 821 622 q 977 603 929 622 q 1061 551 1025 585 q 1118 469 1097 517 q 1139 367 1139 422 l 1139 196 q 1118 93 1139 140 q 1061 12 1097 46 q 977 -41 1025 -22 q 875 -60 929 -60 q 773 -41 821 -60 q 689 12 725 -22 q 632 93 653 46 q 611 196 611 140 l 611 367 m 775 193 q 803 122 775 150 q 875 93 832 93 q 947 122 918 93 q 975 193 975 150 l 975 369 q 947 441 975 413 q 875 469 918 469 q 803 441 832 469 q 775 369 775 413 l 775 193 z "},"ㄷ":{"ha":1278,"x_min":167,"x_max":1118,"o":"m 1111 742 l 344 742 l 344 125 l 1118 125 l 1118 -39 l 167 -39 l 167 906 l 1111 906 l 1111 742 z "},"ㄸ":{"ha":1278,"x_min":125,"x_max":1158,"o":"m 611 906 l 611 744 l 300 744 l 300 122 l 614 122 l 614 -39 l 125 -39 l 125 906 l 611 906 m 667 906 l 1153 906 l 1153 744 l 842 744 l 842 122 l 1158 122 l 1158 -39 l 667 -39 l 667 906 z "},"ㄹ":{"ha":1278,"x_min":167,"x_max":1118,"o":"m 342 357 l 342 119 l 1118 119 l 1118 -39 l 167 -39 l 167 510 l 936 510 l 936 747 l 167 747 l 167 906 l 1111 906 l 1111 357 l 342 357 z "},"ㄺ":{"ha":1278,"x_min":125,"x_max":1153,"o":"m 461 517 l 461 747 l 125 747 l 125 906 l 625 906 l 625 364 l 289 364 l 289 119 l 674 119 l 674 -39 l 125 -39 l 125 517 l 461 517 m 674 906 l 1153 906 l 1153 -39 l 983 -39 l 983 736 l 674 736 l 674 906 z "},"ㄻ":{"ha":1278,"x_min":125,"x_max":1153,"o":"m 447 517 l 447 747 l 125 747 l 125 906 l 611 906 l 611 364 l 289 364 l 289 119 l 618 119 l 618 -39 l 125 -39 l 125 517 l 447 517 m 667 906 l 1153 906 l 1153 -39 l 667 -39 l 667 906 m 989 119 l 989 747 l 831 747 l 831 119 l 989 119 z "},"ㄼ":{"ha":1278,"x_min":125,"x_max":1153,"o":"m 447 517 l 447 747 l 125 747 l 125 906 l 611 906 l 611 364 l 289 364 l 289 119 l 618 119 l 618 -39 l 125 -39 l 125 517 l 447 517 m 667 906 l 831 906 l 831 593 l 989 593 l 989 906 l 1153 906 l 1153 -39 l 667 -39 l 667 906 m 989 119 l 989 438 l 831 438 l 831 119 l 989 119 z "},"ㄽ":{"ha":1278,"x_min":125,"x_max":1194,"o":"m 447 517 l 447 747 l 125 747 l 125 906 l 611 906 l 611 364 l 289 364 l 289 119 l 618 119 l 618 -39 l 125 -39 l 125 517 l 447 517 m 667 146 q 733 203 701 165 q 790 297 765 242 q 828 422 814 351 q 843 581 843 493 l 843 906 l 1018 906 l 1018 581 q 1033 422 1018 493 q 1072 297 1047 351 q 1128 203 1096 242 q 1194 146 1160 165 l 1194 -46 q 1122 -6 1158 -32 q 1051 56 1086 21 q 985 137 1017 92 q 931 235 954 182 q 876 137 907 182 q 810 56 844 92 q 738 -6 775 21 q 667 -46 701 -32 l 667 146 z "},"ㄾ":{"ha":1278,"x_min":125,"x_max":1158,"o":"m 447 517 l 447 747 l 125 747 l 125 906 l 611 906 l 611 364 l 289 364 l 289 119 l 618 119 l 618 -39 l 125 -39 l 125 517 l 447 517 m 667 906 l 1153 906 l 1153 747 l 831 747 l 831 517 l 1139 517 l 1139 364 l 831 364 l 831 119 l 1158 119 l 1158 -39 l 667 -39 l 667 906 z "},"ㄿ":{"ha":1278,"x_min":125,"x_max":1160,"o":"m 447 517 l 447 747 l 125 747 l 125 906 l 611 906 l 611 364 l 289 364 l 289 119 l 618 119 l 618 -39 l 125 -39 l 125 517 l 447 517 m 660 117 l 711 117 l 711 750 l 660 750 l 660 906 l 1160 906 l 1160 750 l 1108 750 l 1108 117 l 1160 117 l 1160 -39 l 660 -39 l 660 117 m 947 117 l 947 750 l 872 750 l 872 117 l 947 117 z "},"ㅀ":{"ha":1278,"x_min":125,"x_max":1167,"o":"m 440 517 l 440 747 l 125 747 l 125 906 l 604 906 l 604 364 l 289 364 l 289 119 l 625 119 l 625 -39 l 125 -39 l 125 517 l 440 517 m 653 822 l 825 822 l 825 933 l 994 933 l 994 822 l 1167 822 l 1167 664 l 653 664 l 653 822 m 667 388 q 686 483 667 439 q 738 557 706 526 q 815 605 771 588 q 910 622 860 622 q 1004 605 960 622 q 1081 557 1049 588 q 1133 483 1114 526 q 1153 388 1153 439 l 1153 175 q 1133 79 1153 122 q 1081 6 1114 36 q 1004 -42 1049 -25 q 910 -60 960 -60 q 815 -42 860 -60 q 738 6 771 -25 q 686 79 706 36 q 667 175 667 122 l 667 388 m 831 172 q 852 115 831 136 q 910 93 874 93 q 967 115 946 93 q 989 172 989 136 l 989 390 q 967 448 989 426 q 910 469 946 469 q 852 448 874 469 q 831 390 831 426 l 831 172 z "},"ㅁ":{"ha":1278,"x_min":167,"x_max":1111,"o":"m 1111 906 l 1111 -39 l 167 -39 l 167 906 l 1111 906 m 936 122 l 936 744 l 342 744 l 342 122 l 936 122 z "},"ㅂ":{"ha":1278,"x_min":167,"x_max":1111,"o":"m 1111 906 l 1111 -39 l 167 -39 l 167 906 l 342 906 l 342 596 l 936 596 l 936 906 l 1111 906 m 936 122 l 936 438 l 342 438 l 342 122 l 936 122 z "},"ㅃ":{"ha":1278,"x_min":125,"x_max":1153,"o":"m 1153 906 l 1153 -39 l 667 -39 l 667 906 l 831 906 l 831 593 l 989 593 l 989 906 l 1153 906 m 125 906 l 289 906 l 289 593 l 447 593 l 447 906 l 611 906 l 611 -39 l 125 -39 l 125 906 m 447 119 l 447 438 l 289 438 l 289 119 l 447 119 m 989 119 l 989 438 l 831 438 l 831 119 l 989 119 z "},"ㅄ":{"ha":1278,"x_min":125,"x_max":1194,"o":"m 611 906 l 611 -39 l 125 -39 l 125 906 l 289 906 l 289 593 l 447 593 l 447 906 l 611 906 m 447 119 l 447 438 l 289 438 l 289 119 l 447 119 m 667 146 q 733 203 701 165 q 790 297 765 242 q 828 422 814 351 q 843 581 843 493 l 843 906 l 1018 906 l 1018 581 q 1033 422 1018 493 q 1072 297 1047 351 q 1128 203 1096 242 q 1194 146 1160 165 l 1194 -46 q 1122 -6 1158 -32 q 1051 56 1086 21 q 985 137 1017 92 q 931 235 954 182 q 876 137 907 182 q 810 56 844 92 q 738 -6 775 21 q 667 -46 701 -32 l 667 146 z "},"ㅅ":{"ha":1278,"x_min":153,"x_max":1125,"o":"m 153 126 q 288 192 218 144 q 416 309 358 240 q 511 463 474 378 q 549 642 549 549 l 549 906 l 729 906 l 729 642 q 767 463 729 549 q 862 309 804 378 q 990 192 919 240 q 1125 126 1060 144 l 1125 -46 q 990 6 1060 -31 q 853 94 919 42 q 731 211 788 146 q 639 350 675 276 q 547 211 603 276 q 424 94 490 146 q 288 6 358 42 q 153 -46 217 -31 l 153 126 l 153 126 z "},"ㅆ":{"ha":1278,"x_min":111,"x_max":1167,"o":"m 639 -46 q 574 -4 607 -31 q 508 59 540 22 q 448 141 476 96 q 397 239 419 186 q 337 141 371 186 q 265 59 303 96 q 188 -4 228 22 q 111 -46 149 -31 l 111 146 q 187 205 150 167 q 252 298 224 243 q 298 424 281 353 q 315 581 315 494 l 315 906 l 490 906 l 490 581 q 503 424 490 494 q 535 298 515 353 q 583 205 556 243 q 639 146 610 167 q 695 205 668 167 q 742 298 722 243 q 775 424 763 353 q 788 581 788 494 l 788 906 l 963 906 l 963 581 q 980 424 963 494 q 1026 298 997 353 q 1091 205 1054 243 q 1167 146 1128 167 l 1167 -46 q 1090 -4 1129 -31 q 1013 59 1050 22 q 941 141 975 96 q 881 239 907 186 q 830 141 858 186 q 769 59 801 96 q 704 -4 738 22 q 639 -46 671 -31 z "},"ㅇ":{"ha":1278,"x_min":139,"x_max":1139,"o":"m 639 -67 q 444 -30 535 -67 q 285 74 353 7 q 178 232 218 140 q 139 433 139 324 q 178 635 139 543 q 285 793 218 726 q 444 897 353 860 q 639 933 535 933 q 834 897 743 933 q 992 793 925 860 q 1099 635 1060 726 q 1139 433 1139 543 q 1099 232 1139 324 q 992 74 1060 140 q 834 -30 925 7 q 639 -67 743 -67 m 314 433 q 339 293 314 356 q 408 186 364 231 q 510 118 451 142 q 639 94 569 94 q 767 118 708 94 q 870 186 826 142 q 939 293 914 231 q 964 433 964 356 q 939 574 964 511 q 870 681 914 636 q 767 749 826 725 q 639 772 708 772 q 510 749 569 772 q 408 681 451 725 q 339 574 364 636 q 314 433 314 511 z "},"ㅈ":{"ha":1278,"x_min":153,"x_max":1125,"o":"m 167 906 l 1111 906 l 1111 742 l 729 742 l 729 614 q 767 442 729 524 q 862 297 804 361 q 990 188 919 232 q 1125 126 1060 143 l 1125 -46 q 990 2 1060 -32 q 853 85 919 36 q 731 197 788 135 q 639 329 675 258 q 547 197 603 258 q 424 85 490 135 q 288 2 358 36 q 153 -46 217 -32 l 153 126 q 288 188 218 143 q 416 297 358 232 q 511 442 474 361 q 549 614 549 524 l 549 742 l 167 742 l 167 906 z "},"ㅉ":{"ha":1278,"x_min":111,"x_max":1167,"o":"m 483 744 l 483 564 q 497 413 483 482 q 532 290 510 344 q 582 199 554 236 q 639 143 610 161 q 696 199 668 161 q 746 290 724 236 q 781 413 768 344 q 794 564 794 482 l 794 744 l 667 744 l 667 906 l 1153 906 l 1153 744 l 969 744 l 969 564 q 987 412 969 482 q 1032 288 1004 342 q 1095 197 1060 233 q 1167 143 1131 160 l 1167 -46 q 1092 -6 1131 -32 q 1017 56 1054 19 q 946 138 979 93 q 886 236 913 183 q 833 138 863 183 q 770 56 803 93 q 703 -6 738 19 q 639 -46 669 -32 q 574 -6 607 -32 q 508 56 540 19 q 445 138 475 93 q 392 236 415 183 q 332 138 365 183 q 261 56 299 93 q 185 -6 224 19 q 111 -46 147 -32 l 111 143 q 183 197 147 160 q 246 288 218 233 q 291 412 274 342 q 308 564 308 482 l 308 744 l 125 744 l 125 906 l 611 906 l 611 744 l 483 744 z "},"ㅊ":{"ha":1278,"x_min":153,"x_max":1125,"o":"m 167 808 l 549 808 l 549 975 l 729 975 l 729 808 l 1111 808 l 1111 644 l 729 644 l 729 586 q 767 422 729 500 q 862 283 804 344 q 990 181 919 222 q 1125 126 1060 140 l 1125 -46 q 990 -2 1060 -33 q 853 76 919 29 q 731 182 788 122 q 639 308 675 242 q 547 182 603 242 q 424 76 490 122 q 288 -2 358 29 q 153 -46 217 -33 l 153 126 q 288 181 218 140 q 416 283 358 222 q 511 422 474 344 q 549 586 549 500 l 549 644 l 167 644 l 167 808 z "},"ㅋ":{"ha":1278,"x_min":146,"x_max":1111,"o":"m 931 326 q 535 292 732 301 q 146 281 339 283 l 146 439 q 535 451 339 442 q 931 485 732 460 l 931 744 l 167 744 l 167 906 l 1111 906 l 1111 -39 l 931 -39 l 931 326 l 931 326 z "},"ㅌ":{"ha":1278,"x_min":167,"x_max":1118,"o":"m 1111 747 l 342 747 l 342 510 l 1097 510 l 1097 357 l 342 357 l 342 119 l 1118 119 l 1118 -39 l 167 -39 l 167 906 l 1111 906 l 1111 747 z "},"ㅍ":{"ha":1278,"x_min":153,"x_max":1125,"o":"m 1125 906 l 1125 744 l 974 744 l 974 122 l 1125 122 l 1125 -39 l 153 -39 l 153 122 l 304 122 l 304 744 l 153 744 l 153 906 l 1125 906 m 799 122 l 799 744 l 479 744 l 479 122 l 799 122 z "},"ㅎ":{"ha":1278,"x_min":153,"x_max":1125,"o":"m 450 -39 q 342 -16 393 -39 q 251 47 290 7 q 190 139 213 86 q 167 253 167 192 q 190 366 167 313 q 251 459 213 419 q 342 522 290 499 q 450 544 393 544 l 828 544 q 936 522 885 544 q 1026 459 988 499 q 1088 366 1065 419 q 1111 253 1111 313 q 1088 139 1111 192 q 1026 47 1065 86 q 936 -16 988 7 q 828 -39 885 -39 l 450 -39 m 153 822 l 549 822 l 549 975 l 729 975 l 729 822 l 1125 822 l 1125 664 l 153 664 l 153 822 m 342 253 q 352 198 342 224 q 380 153 363 172 q 421 124 397 135 q 469 114 444 114 l 808 114 q 857 124 833 114 q 898 153 881 135 q 926 198 915 172 q 936 253 936 224 q 926 307 936 282 q 898 351 915 332 q 857 381 881 369 q 808 392 833 392 l 469 392 q 421 381 444 392 q 380 351 397 369 q 352 307 363 332 q 342 253 342 282 z "},"ㅏ":{"ha":1278,"x_min":507,"x_max":951,"o":"m 507 1042 l 688 1042 l 688 556 l 951 556 l 951 383 l 688 383 l 688 -172 l 507 -172 l 507 1042 z "},"ㅐ":{"ha":1278,"x_min":389,"x_max":889,"o":"m 389 1036 l 561 1036 l 561 553 l 714 553 l 714 1042 l 889 1042 l 889 -172 l 714 -172 l 714 386 l 561 386 l 561 -161 l 389 -161 l 389 1036 z "},"ㅑ":{"ha":1278,"x_min":507,"x_max":944,"o":"m 507 1042 l 688 1042 l 688 789 l 944 789 l 944 622 l 688 622 l 688 317 l 944 317 l 944 150 l 688 150 l 688 -172 l 507 -172 l 507 1042 z "},"ㅒ":{"ha":1278,"x_min":389,"x_max":889,"o":"m 389 1036 l 561 1036 l 561 786 l 714 786 l 714 1042 l 889 1042 l 889 -172 l 714 -172 l 714 153 l 561 153 l 561 -161 l 389 -161 l 389 1036 m 714 314 l 714 625 l 561 625 l 561 314 l 714 314 z "},"ㅓ":{"ha":1278,"x_min":326,"x_max":771,"o":"m 590 -172 l 590 383 l 326 383 l 326 556 l 590 556 l 590 1042 l 771 1042 l 771 -172 l 590 -172 z "},"ㅔ":{"ha":1278,"x_min":236,"x_max":917,"o":"m 444 386 l 236 386 l 236 553 l 444 553 l 444 1036 l 617 1036 l 617 -161 l 444 -161 l 444 386 m 742 1042 l 917 1042 l 917 -172 l 742 -172 l 742 1042 z "},"ㅕ":{"ha":1278,"x_min":333,"x_max":771,"o":"m 590 -172 l 590 150 l 333 150 l 333 317 l 590 317 l 590 622 l 333 622 l 333 789 l 590 789 l 590 1042 l 771 1042 l 771 -172 l 590 -172 z "},"ㅖ":{"ha":1278,"x_min":243,"x_max":917,"o":"m 444 153 l 243 153 l 243 314 l 444 314 l 444 625 l 243 625 l 243 786 l 444 786 l 444 1036 l 617 1036 l 617 -161 l 444 -161 l 444 153 m 742 1042 l 917 1042 l 917 -172 l 742 -172 l 742 1042 z "},"ㅗ":{"ha":1278,"x_min":69,"x_max":1208,"o":"m 549 64 l 549 500 l 729 500 l 729 64 l 1208 64 l 1208 -103 l 69 -103 l 69 64 l 549 64 z "},"ㅘ":{"ha":1278,"x_min":56,"x_max":1264,"o":"m 944 -15 q 722 -57 836 -40 q 495 -84 608 -74 q 271 -99 382 -94 q 56 -104 160 -103 l 56 57 q 229 61 140 58 q 410 71 318 64 l 410 500 l 590 500 l 590 86 q 769 112 681 97 q 944 146 858 126 l 944 1042 l 1125 1042 l 1125 556 l 1264 556 l 1264 383 l 1125 383 l 1125 -172 l 944 -172 l 944 -15 l 944 -15 z "},"ㅙ":{"ha":1278,"x_min":69,"x_max":1153,"o":"m 694 -69 q 376 -100 535 -92 q 69 -110 217 -108 l 69 49 q 181 50 125 49 q 296 54 238 51 l 296 500 l 468 500 l 468 65 q 581 76 525 69 q 694 89 638 82 l 694 1036 l 867 1036 l 867 550 l 978 550 l 978 1042 l 1153 1042 l 1153 -172 l 978 -172 l 978 389 l 867 389 l 867 -161 l 694 -161 l 694 -69 l 694 -69 z "},"ㅚ":{"ha":1278,"x_min":69,"x_max":1153,"o":"m 69 57 q 246 61 156 58 q 431 71 336 64 l 431 500 l 611 500 l 611 88 q 794 113 703 99 q 972 149 885 128 l 972 1042 l 1153 1042 l 1153 -172 l 972 -172 l 972 -12 q 747 -56 863 -39 q 516 -84 632 -74 q 288 -99 400 -94 q 69 -104 175 -103 l 69 57 l 69 57 z "},"ㅛ":{"ha":1278,"x_min":69,"x_max":1208,"o":"m 304 64 l 304 493 l 479 493 l 479 64 l 799 64 l 799 493 l 974 493 l 974 64 l 1208 64 l 1208 -103 l 69 -103 l 69 64 l 304 64 z "},"ㅜ":{"ha":1278,"x_min":69,"x_max":1208,"o":"m 69 431 l 1208 431 l 1208 264 l 729 264 l 729 -172 l 549 -172 l 549 264 l 69 264 l 69 431 z "},"ㅝ":{"ha":1278,"x_min":69,"x_max":1153,"o":"m 972 56 q 841 28 907 40 q 708 7 775 17 l 708 163 q 841 184 775 172 q 972 211 907 196 l 972 372 q 767 333 872 349 q 556 306 663 317 l 556 -172 l 375 -172 l 375 290 q 219 284 296 286 q 69 281 143 282 l 69 439 q 288 444 175 440 q 516 459 400 449 q 747 487 632 469 q 972 531 863 504 l 972 1042 l 1153 1042 l 1153 -172 l 972 -172 l 972 56 l 972 56 z "},"ㅞ":{"ha":1278,"x_min":69,"x_max":1153,"o":"m 278 289 q 173 285 225 286 q 69 283 121 283 l 69 439 q 383 449 221 440 q 708 482 544 458 l 708 1036 l 881 1036 l 881 -161 l 708 -161 l 708 29 q 632 18 669 22 q 556 10 594 14 l 556 163 q 632 171 594 167 q 708 182 669 175 l 708 326 q 581 310 644 317 q 453 299 517 304 l 453 -172 l 278 -172 l 278 289 m 978 1042 l 1153 1042 l 1153 -172 l 978 -172 l 978 1042 z "},"ㅟ":{"ha":1278,"x_min":69,"x_max":1153,"o":"m 431 278 q 246 268 336 271 q 69 264 156 265 l 69 425 q 288 431 175 426 q 516 445 400 435 q 747 473 632 456 q 972 517 863 490 l 972 1042 l 1153 1042 l 1153 -172 l 972 -172 l 972 356 q 794 320 885 335 q 611 294 703 306 l 611 -172 l 431 -172 l 431 278 l 431 278 z "},"ㅠ":{"ha":1278,"x_min":69,"x_max":1208,"o":"m 69 431 l 1208 431 l 1208 264 l 974 264 l 974 -172 l 799 -172 l 799 264 l 479 264 l 479 -172 l 304 -172 l 304 264 l 69 264 l 69 431 z "},"ㅡ":{"ha":1278,"x_min":69,"x_max":1208,"o":"m 1208 119 l 1208 -47 l 69 -47 l 69 119 l 1208 119 z "},"ㅢ":{"ha":1278,"x_min":69,"x_max":1153,"o":"m 69 113 q 288 118 175 114 q 516 133 400 122 q 747 160 632 143 q 972 204 863 178 l 972 1042 l 1153 1042 l 1153 -172 l 972 -172 l 972 43 q 747 -1 863 17 q 516 -28 632 -18 q 288 -43 400 -39 q 69 -49 175 -47 l 69 113 l 69 113 z "},"ㅣ":{"ha":1278,"x_min":549,"x_max":729,"o":"m 549 1042 l 729 1042 l 729 -172 l 549 -172 l 549 1042 z "},"ⅰ":{"ha":1278,"x_min":550,"x_max":726,"o":"m 550 694 l 726 694 l 726 -97 l 550 -97 l 550 694 m 550 1000 l 726 1000 l 726 804 q 642 787 690 793 q 550 781 593 781 l 550 1000 z "},"ⅱ":{"ha":1278,"x_min":397,"x_max":879,"o":"m 703 694 l 879 694 l 879 -97 l 703 -97 l 703 694 m 397 694 l 574 694 l 574 -97 l 397 -97 l 397 694 m 397 1000 l 574 1000 l 574 804 q 489 787 538 793 q 397 781 440 781 l 397 1000 m 703 1000 l 879 1000 l 879 804 q 794 787 843 793 q 703 781 746 781 l 703 1000 z "},"ⅲ":{"ha":1278,"x_min":258,"x_max":1018,"o":"m 550 694 l 726 694 l 726 -97 l 550 -97 l 550 694 m 258 694 l 435 694 l 435 -97 l 258 -97 l 258 694 m 258 1000 l 435 1000 l 435 804 q 350 787 399 793 q 258 781 301 781 l 258 1000 m 550 1000 l 726 1000 l 726 804 q 642 787 690 793 q 550 781 593 781 l 550 1000 m 842 694 l 1018 694 l 1018 -97 l 842 -97 l 842 694 m 842 1000 l 1018 1000 l 1018 804 q 933 787 982 793 q 842 781 885 781 l 842 1000 z "},"ⅳ":{"ha":1278,"x_min":168,"x_max":1183,"o":"m 168 694 l 344 694 l 344 -97 l 168 -97 l 168 694 m 168 1000 l 344 1000 l 344 804 q 260 787 308 793 q 168 781 211 781 l 168 1000 m 633 694 l 817 100 l 999 694 l 1183 694 l 936 -97 l 696 -97 l 449 694 l 633 694 z "},"ⅴ":{"ha":1278,"x_min":271,"x_max":1006,"o":"m 456 694 l 639 100 l 821 694 l 1006 694 l 758 -97 l 518 -97 l 271 694 l 456 694 z "},"ⅵ":{"ha":1278,"x_min":94,"x_max":1110,"o":"m 933 694 l 1110 694 l 1110 -97 l 933 -97 l 933 694 m 279 694 l 461 100 l 644 694 l 829 694 l 582 -97 l 342 -97 l 94 694 l 279 694 m 933 1000 l 1110 1000 l 1110 804 q 1025 787 1074 793 q 933 781 976 781 l 933 1000 z "},"ⅶ":{"ha":1278,"x_min":47,"x_max":1188,"o":"m 493 -97 l 253 -97 l 47 694 l 222 694 l 372 101 l 524 694 l 699 694 l 493 -97 m 761 694 l 931 694 l 931 -97 l 761 -97 l 761 694 m 761 1000 l 931 1000 l 931 804 q 849 787 894 793 q 761 781 804 781 l 761 1000 m 1018 694 l 1188 694 l 1188 -97 l 1018 -97 l 1018 694 m 1018 1000 l 1188 1000 l 1188 804 q 1106 787 1151 793 q 1018 781 1061 781 l 1018 1000 z "},"ⅷ":{"ha":1278,"x_min":21,"x_max":1215,"o":"m 406 -97 l 199 -97 l 21 694 l 181 694 l 301 138 l 424 694 l 583 694 l 406 -97 m 629 694 l 785 694 l 785 -97 l 629 -97 l 629 694 m 629 1000 l 785 1000 l 785 804 q 710 787 749 793 q 629 781 672 781 l 629 1000 m 844 694 l 1000 694 l 1000 -97 l 844 -97 l 844 694 m 844 1000 l 1000 1000 l 1000 804 q 926 787 964 793 q 844 781 888 781 l 844 1000 m 1060 694 l 1215 694 l 1215 -97 l 1060 -97 l 1060 694 m 1060 1000 l 1215 1000 l 1215 804 q 1141 787 1179 793 q 1060 781 1103 781 l 1060 1000 z "},"ⅸ":{"ha":1278,"x_min":168,"x_max":1183,"o":"m 168 694 l 344 694 l 344 -97 l 168 -97 l 168 694 m 168 1000 l 344 1000 l 344 804 q 260 787 308 793 q 168 781 211 781 l 168 1000 m 701 313 l 472 694 l 669 694 l 819 435 l 969 694 l 1167 694 l 936 311 l 1183 -97 l 976 -97 l 819 171 l 663 -97 l 456 -97 l 701 313 z "},"ⅹ":{"ha":1278,"x_min":275,"x_max":1003,"o":"m 521 313 l 292 694 l 489 694 l 639 435 l 789 694 l 986 694 l 756 311 l 1003 -97 l 796 -97 l 639 171 l 482 -97 l 275 -97 l 521 313 z "},"Ⅰ":{"ha":1278,"x_min":547,"x_max":731,"o":"m 547 1000 l 731 1000 l 731 -97 l 547 -97 l 547 1000 z "},"Ⅱ":{"ha":1278,"x_min":372,"x_max":906,"o":"m 722 1000 l 906 1000 l 906 -97 l 722 -97 l 722 1000 m 372 1000 l 556 1000 l 556 -97 l 372 -97 l 372 1000 z "},"Ⅲ":{"ha":1278,"x_min":239,"x_max":1039,"o":"m 547 1000 l 731 1000 l 731 -97 l 547 -97 l 547 1000 m 239 1000 l 422 1000 l 422 -97 l 239 -97 l 239 1000 m 856 1000 l 1039 1000 l 1039 -97 l 856 -97 l 856 1000 z "},"Ⅳ":{"ha":1278,"x_min":139,"x_max":1181,"o":"m 139 1000 l 322 1000 l 322 -97 l 139 -97 l 139 1000 m 604 1000 l 799 172 l 992 1000 l 1181 1000 l 914 -97 l 682 -97 l 415 1000 l 604 1000 z "},"Ⅴ":{"ha":1278,"x_min":172,"x_max":1104,"o":"m 172 1000 l 364 1000 l 639 82 l 913 1000 l 1104 1000 l 768 -97 l 508 -97 l 172 1000 z "},"Ⅵ":{"ha":1278,"x_min":97,"x_max":1139,"o":"m 956 -97 l 956 1000 l 1139 1000 l 1139 -97 l 956 -97 m 286 1000 l 479 172 l 674 1000 l 863 1000 l 596 -97 l 364 -97 l 97 1000 l 286 1000 z "},"Ⅶ":{"ha":1278,"x_min":49,"x_max":1201,"o":"m 757 -97 l 757 1000 l 938 1000 l 938 -97 l 757 -97 m 232 1000 l 372 197 l 513 1000 l 696 1000 l 499 -97 l 246 -97 l 49 1000 l 232 1000 m 1021 1000 l 1201 1000 l 1201 -97 l 1021 -97 l 1021 1000 z "},"Ⅷ":{"ha":1278,"x_min":14,"x_max":1208,"o":"m 597 -97 l 597 1000 l 764 1000 l 764 -97 l 597 -97 m 183 1000 l 286 217 l 388 1000 l 557 1000 l 408 -97 l 163 -97 l 14 1000 l 183 1000 m 819 1000 l 986 1000 l 986 -97 l 819 -97 l 819 1000 m 1042 1000 l 1208 1000 l 1208 -97 l 1042 -97 l 1042 1000 z "},"Ⅸ":{"ha":1278,"x_min":125,"x_max":1188,"o":"m 125 1000 l 308 1000 l 308 -97 l 125 -97 l 125 1000 m 668 467 l 393 1000 l 590 1000 l 782 618 l 975 1000 l 1169 1000 l 894 469 l 1188 -97 l 982 -97 l 781 306 l 578 -97 l 375 -97 l 668 467 z "},"Ⅹ":{"ha":1278,"x_min":189,"x_max":1085,"o":"m 515 465 l 207 1000 l 411 1000 l 638 600 l 865 1000 l 1067 1000 l 758 469 l 1085 -97 l 876 -97 l 636 328 l 394 -97 l 189 -97 l 515 465 z "},"Α":{"ha":1001,"x_min":35,"x_max":967,"o":"m 967 -97 l 775 -97 l 696 171 q 493 130 594 142 q 286 115 392 118 l 224 -97 l 35 -97 l 371 1000 l 631 1000 l 967 -97 m 336 283 q 493 298 417 288 q 649 331 569 308 l 500 833 l 336 283 z "},"Β":{"ha":924,"x_min":97,"x_max":861,"o":"m 97 1000 l 508 1000 q 635 981 578 1000 q 732 927 692 963 q 794 842 772 892 q 815 729 815 792 q 783 589 815 650 q 685 481 750 528 q 810 374 760 440 q 861 204 861 307 q 835 76 861 132 q 764 -19 810 19 q 656 -77 718 -57 q 518 -97 593 -97 l 97 -97 l 97 1000 m 518 69 q 636 107 594 69 q 678 207 678 144 q 628 319 678 271 q 499 393 578 368 q 281 339 401 361 l 281 69 l 518 69 m 281 497 q 544 573 454 525 q 635 711 635 621 q 601 801 635 768 q 508 833 568 833 l 281 833 l 281 497 z "},"Π":{"ha":1036,"x_min":97,"x_max":939,"o":"m 97 1000 l 939 1000 l 939 -97 l 756 -97 l 756 832 l 281 832 l 281 -97 l 97 -97 l 97 1000 z "},"Σ":{"ha":921,"x_min":83,"x_max":838,"o":"m 83 -97 l 83 57 l 386 451 l 83 846 l 83 1000 l 838 1000 l 838 832 l 326 832 l 618 451 l 326 71 l 838 71 l 838 -97 l 83 -97 z "},"Ω":{"ha":994,"x_min":83,"x_max":911,"o":"m 549 71 q 678 218 628 133 q 728 407 728 303 l 728 614 q 710 717 728 672 q 660 792 692 763 q 587 838 629 822 q 497 853 544 853 q 408 838 450 853 q 334 792 365 822 q 285 717 303 763 q 267 614 267 672 l 267 407 q 317 219 267 303 q 446 71 367 135 l 446 -97 l 83 -97 l 83 71 l 247 71 q 120 232 157 153 q 83 407 83 311 l 83 614 q 119 790 83 714 q 214 917 156 867 q 347 994 272 968 q 497 1021 421 1021 q 648 994 574 1021 q 781 917 722 968 q 875 790 839 867 q 911 614 911 714 l 911 407 q 874 232 911 311 q 747 71 836 153 l 911 71 l 911 -97 l 549 -97 l 549 71 l 549 71 z "},"α":{"ha":849,"x_min":69,"x_max":821,"o":"m 821 -93 q 738 -104 781 -104 q 650 -85 692 -104 q 586 -18 608 -65 q 494 -88 549 -62 q 369 -114 440 -114 q 240 -88 296 -114 q 146 -17 183 -62 q 89 89 108 28 q 69 221 69 150 l 69 376 q 89 508 69 447 q 146 615 108 569 q 240 685 183 660 q 369 711 296 711 q 486 690 435 711 q 575 628 538 668 l 575 694 l 744 694 l 744 99 q 785 54 744 54 q 821 60 804 54 l 821 -93 m 246 221 q 260 132 246 167 q 297 76 274 97 q 349 47 319 56 q 407 39 378 39 q 465 47 436 39 q 516 76 493 56 q 553 132 539 97 q 568 221 568 167 l 568 376 q 553 465 568 431 q 516 521 539 500 q 465 550 493 542 q 407 558 436 558 q 349 550 378 558 q 297 521 319 542 q 260 465 274 500 q 246 376 246 431 l 246 221 z "},"β":{"ha":832,"x_min":90,"x_max":763,"o":"m 267 -361 l 90 -361 l 90 700 q 115 835 90 776 q 183 934 139 894 q 286 994 226 974 q 417 1014 346 1014 q 548 992 488 1014 q 652 930 608 969 q 720 833 696 890 q 744 708 744 776 q 704 565 744 625 q 597 465 664 504 q 716 369 669 436 q 763 206 763 303 q 742 83 763 142 q 676 -20 721 25 q 559 -92 631 -65 q 386 -118 488 -118 q 349 -117 364 -118 q 322 -112 335 -115 l 322 56 q 386 49 350 49 q 536 92 486 49 q 586 210 586 135 q 536 330 586 282 q 390 378 486 378 l 349 378 l 349 539 l 390 539 q 523 584 478 539 q 568 703 568 629 q 528 814 568 768 q 417 860 488 860 q 308 820 350 860 q 267 700 267 781 l 267 -361 z "},"π":{"ha":1008,"x_min":69,"x_max":932,"o":"m 394 542 l 394 -97 l 218 -97 l 218 542 l 69 542 l 69 694 l 932 694 l 932 542 l 776 542 l 776 113 q 790 67 776 81 q 833 54 803 54 q 886 62 860 54 q 932 76 913 69 l 932 -76 q 872 -95 908 -86 q 786 -104 835 -104 q 643 -53 686 -104 q 600 94 600 -3 l 600 542 l 394 542 z "},"σ":{"ha":828,"x_min":69,"x_max":800,"o":"m 407 542 q 349 533 378 542 q 297 504 319 525 q 260 449 274 483 q 246 360 246 414 l 246 221 q 260 132 246 167 q 297 76 274 97 q 349 47 319 56 q 407 39 378 39 q 465 47 436 39 q 516 76 493 56 q 553 132 539 97 q 568 221 568 167 l 568 360 q 553 449 568 414 q 516 504 539 483 q 465 533 493 525 q 407 542 436 542 m 69 360 q 92 492 69 431 q 158 598 115 553 q 264 669 201 643 q 407 694 326 694 l 800 694 l 800 542 l 663 542 q 744 332 744 468 l 744 221 q 722 89 744 150 q 656 -17 699 28 q 550 -88 613 -62 q 407 -114 488 -114 q 264 -88 326 -114 q 158 -17 201 -62 q 92 89 115 28 q 69 221 69 150 l 69 360 z "},"ω":{"ha":1114,"x_min":69,"x_max":1044,"o":"m 69 293 q 88 503 69 408 q 144 694 106 599 l 314 694 q 285 589 297 639 q 264 492 272 539 q 251 399 256 444 q 246 304 246 353 q 252 199 246 247 q 273 115 258 151 q 310 59 288 79 q 364 39 332 39 q 444 104 418 39 q 471 313 471 169 l 471 540 l 643 540 l 643 313 q 669 104 643 169 q 750 39 696 39 q 804 59 782 39 q 841 115 826 79 q 862 199 856 151 q 868 304 868 247 q 863 399 868 353 q 850 492 858 444 q 829 589 842 539 q 800 694 817 639 l 969 694 q 1026 503 1008 599 q 1044 293 1044 408 q 1026 124 1044 199 q 973 -4 1008 49 q 885 -85 938 -57 q 763 -114 832 -114 q 636 -75 688 -114 q 557 31 585 -36 q 478 -75 529 -36 q 351 -114 426 -114 q 229 -85 282 -114 q 141 -4 176 -57 q 88 124 106 49 q 69 293 69 199 z "},"㉠":{"ha":1278,"x_min":56,"x_max":1222,"o":"m 842 647 l 303 647 l 303 764 l 968 764 l 968 103 l 842 103 l 842 647 m 56 433 q 101 660 56 554 q 226 846 147 767 q 412 971 306 925 q 639 1017 518 1017 q 866 971 760 1017 q 1051 846 972 925 q 1176 660 1131 767 q 1222 433 1222 554 q 1176 206 1222 313 q 1051 21 1131 100 q 866 -104 972 -58 q 639 -150 760 -150 q 412 -104 518 -150 q 226 21 306 -58 q 101 206 147 100 q 56 433 56 313 m 139 433 q 178 238 139 329 q 285 80 218 147 q 444 -27 353 13 q 639 -67 535 -67 q 834 -27 743 -67 q 992 80 925 13 q 1099 238 1060 147 q 1139 433 1139 329 q 1099 628 1139 538 q 992 787 1060 719 q 834 894 925 854 q 639 933 743 933 q 444 894 535 933 q 285 787 353 854 q 178 628 218 719 q 139 433 139 538 z "},"㉡":{"ha":1278,"x_min":56,"x_max":1222,"o":"m 436 219 l 975 219 l 975 103 l 310 103 l 310 764 l 436 764 l 436 219 m 56 433 q 101 660 56 554 q 226 846 147 767 q 412 971 306 925 q 639 1017 518 1017 q 866 971 760 1017 q 1051 846 972 925 q 1176 660 1131 767 q 1222 433 1222 554 q 1176 206 1222 313 q 1051 21 1131 100 q 866 -104 972 -58 q 639 -150 760 -150 q 412 -104 518 -150 q 226 21 306 -58 q 101 206 147 100 q 56 433 56 313 m 139 433 q 178 238 139 329 q 285 80 218 147 q 444 -27 353 13 q 639 -67 535 -67 q 834 -27 743 -67 q 992 80 925 13 q 1099 238 1060 147 q 1139 433 1139 329 q 1099 628 1139 538 q 992 787 1060 719 q 834 894 925 854 q 639 933 743 933 q 444 894 535 933 q 285 787 353 854 q 178 628 218 719 q 139 433 139 538 z "},"㉢":{"ha":1278,"x_min":56,"x_max":1222,"o":"m 971 649 l 433 649 l 433 218 l 975 218 l 975 103 l 310 103 l 310 764 l 971 764 l 971 649 m 56 433 q 101 660 56 554 q 226 846 147 767 q 412 971 306 925 q 639 1017 518 1017 q 866 971 760 1017 q 1051 846 972 925 q 1176 660 1131 767 q 1222 433 1222 554 q 1176 206 1222 313 q 1051 21 1131 100 q 866 -104 972 -58 q 639 -150 760 -150 q 412 -104 518 -150 q 226 21 306 -58 q 101 206 147 100 q 56 433 56 313 m 139 433 q 178 238 139 329 q 285 80 218 147 q 444 -27 353 13 q 639 -67 535 -67 q 834 -27 743 -67 q 992 80 925 13 q 1099 238 1060 147 q 1139 433 1139 329 q 1099 628 1139 538 q 992 787 1060 719 q 834 894 925 854 q 639 933 743 933 q 444 894 535 933 q 285 787 353 854 q 178 628 218 719 q 139 433 139 538 z "},"㉣":{"ha":1278,"x_min":56,"x_max":1222,"o":"m 432 381 l 432 214 l 975 214 l 975 103 l 310 103 l 310 488 l 849 488 l 849 653 l 310 653 l 310 764 l 971 764 l 971 381 l 432 381 m 56 433 q 101 660 56 554 q 226 846 147 767 q 412 971 306 925 q 639 1017 518 1017 q 866 971 760 1017 q 1051 846 972 925 q 1176 660 1131 767 q 1222 433 1222 554 q 1176 206 1222 313 q 1051 21 1131 100 q 866 -104 972 -58 q 639 -150 760 -150 q 412 -104 518 -150 q 226 21 306 -58 q 101 206 147 100 q 56 433 56 313 m 139 433 q 178 238 139 329 q 285 80 218 147 q 444 -27 353 13 q 639 -67 535 -67 q 834 -27 743 -67 q 992 80 925 13 q 1099 238 1060 147 q 1139 433 1139 329 q 1099 628 1139 538 q 992 787 1060 719 q 834 894 925 854 q 639 933 743 933 q 444 894 535 933 q 285 787 353 854 q 178 628 218 719 q 139 433 139 538 z "},"㉤":{"ha":1278,"x_min":56,"x_max":1222,"o":"m 969 764 l 969 103 l 308 103 l 308 764 l 969 764 m 56 433 q 101 660 56 554 q 226 846 147 767 q 412 971 306 925 q 639 1017 518 1017 q 866 971 760 1017 q 1051 846 972 925 q 1176 660 1131 767 q 1222 433 1222 554 q 1176 206 1222 313 q 1051 21 1131 100 q 866 -104 972 -58 q 639 -150 760 -150 q 412 -104 518 -150 q 226 21 306 -58 q 101 206 147 100 q 56 433 56 313 m 139 433 q 178 238 139 329 q 285 80 218 147 q 444 -27 353 13 q 639 -67 535 -67 q 834 -27 743 -67 q 992 80 925 13 q 1099 238 1060 147 q 1139 433 1139 329 q 1099 628 1139 538 q 992 787 1060 719 q 834 894 925 854 q 639 933 743 933 q 444 894 535 933 q 285 787 353 854 q 178 628 218 719 q 139 433 139 538 m 847 215 l 847 651 l 431 651 l 431 215 l 847 215 z "},"㉥":{"ha":1278,"x_min":56,"x_max":1222,"o":"m 969 764 l 969 103 l 308 103 l 308 764 l 431 764 l 431 547 l 847 547 l 847 764 l 969 764 m 56 433 q 101 660 56 554 q 226 846 147 767 q 412 971 306 925 q 639 1017 518 1017 q 866 971 760 1017 q 1051 846 972 925 q 1176 660 1131 767 q 1222 433 1222 554 q 1176 206 1222 313 q 1051 21 1131 100 q 866 -104 972 -58 q 639 -150 760 -150 q 412 -104 518 -150 q 226 21 306 -58 q 101 206 147 100 q 56 433 56 313 m 139 433 q 178 238 139 329 q 285 80 218 147 q 444 -27 353 13 q 639 -67 535 -67 q 834 -27 743 -67 q 992 80 925 13 q 1099 238 1060 147 q 1139 433 1139 329 q 1099 628 1139 538 q 992 787 1060 719 q 834 894 925 854 q 639 933 743 933 q 444 894 535 933 q 285 787 353 854 q 178 628 218 719 q 139 433 139 538 m 847 215 l 847 436 l 431 436 l 431 215 l 847 215 z "},"㉦":{"ha":1278,"x_min":56,"x_max":1222,"o":"m 299 246 q 394 292 344 258 q 483 374 443 325 q 550 481 524 422 q 576 606 576 540 l 576 790 l 703 790 l 703 606 q 728 481 703 540 q 795 374 754 422 q 885 292 836 325 q 979 246 933 258 l 979 125 q 884 160 933 135 q 789 223 835 186 q 703 306 743 260 q 639 403 664 351 q 574 306 614 351 q 489 223 535 260 q 394 160 443 186 q 299 125 344 135 l 299 246 m 56 433 q 101 660 56 554 q 226 846 147 767 q 412 971 306 925 q 639 1017 518 1017 q 866 971 760 1017 q 1051 846 972 925 q 1176 660 1131 767 q 1222 433 1222 554 q 1176 206 1222 313 q 1051 21 1131 100 q 866 -104 972 -58 q 639 -150 760 -150 q 412 -104 518 -150 q 226 21 306 -58 q 101 206 147 100 q 56 433 56 313 m 139 433 q 178 238 139 329 q 285 80 218 147 q 444 -27 353 13 q 639 -67 535 -67 q 834 -27 743 -67 q 992 80 925 13 q 1099 238 1060 147 q 1139 433 1139 329 q 1099 628 1139 538 q 992 787 1060 719 q 834 894 925 854 q 639 933 743 933 q 444 894 535 933 q 285 787 353 854 q 178 628 218 719 q 139 433 139 538 z "},"㉧":{"ha":1278,"x_min":56,"x_max":1222,"o":"m 639 83 q 503 109 567 83 q 392 181 439 135 q 317 292 344 228 q 289 433 289 357 q 317 574 289 510 q 392 685 344 639 q 503 758 439 732 q 639 783 567 783 q 775 758 711 783 q 886 685 839 732 q 961 574 933 639 q 989 433 989 510 q 961 292 989 357 q 886 181 933 228 q 775 109 839 135 q 639 83 711 83 m 56 433 q 101 660 56 554 q 226 846 147 767 q 412 971 306 925 q 639 1017 518 1017 q 866 971 760 1017 q 1051 846 972 925 q 1176 660 1131 767 q 1222 433 1222 554 q 1176 206 1222 313 q 1051 21 1131 100 q 866 -104 972 -58 q 639 -150 760 -150 q 412 -104 518 -150 q 226 21 306 -58 q 101 206 147 100 q 56 433 56 313 m 139 433 q 178 238 139 329 q 285 80 218 147 q 444 -27 353 13 q 639 -67 535 -67 q 834 -27 743 -67 q 992 80 925 13 q 1099 238 1060 147 q 1139 433 1139 329 q 1099 628 1139 538 q 992 787 1060 719 q 834 894 925 854 q 639 933 743 933 q 444 894 535 933 q 285 787 353 854 q 178 628 218 719 q 139 433 139 538 m 411 433 q 428 335 411 379 q 476 260 446 292 q 549 213 507 229 q 639 196 590 196 q 729 213 688 196 q 801 260 771 229 q 849 335 832 292 q 867 433 867 379 q 849 531 867 488 q 801 606 832 575 q 729 654 771 638 q 639 671 688 671 q 549 654 590 671 q 476 606 507 638 q 428 531 446 575 q 411 433 411 488 z "},"㉨":{"ha":1278,"x_min":56,"x_max":1222,"o":"m 308 763 l 969 763 l 969 649 l 703 649 l 703 558 q 728 439 703 496 q 795 337 754 382 q 885 260 836 292 q 979 218 933 229 l 979 97 q 884 131 933 107 q 789 188 835 154 q 703 266 743 222 q 639 360 664 310 q 574 266 614 310 q 489 188 535 222 q 394 131 443 154 q 299 97 344 107 l 299 218 q 394 260 344 229 q 483 337 443 292 q 550 439 524 382 q 576 558 576 496 l 576 649 l 308 649 l 308 763 m 56 433 q 101 660 56 554 q 226 846 147 767 q 412 971 306 925 q 639 1017 518 1017 q 866 971 760 1017 q 1051 846 972 925 q 1176 660 1131 767 q 1222 433 1222 554 q 1176 206 1222 313 q 1051 21 1131 100 q 866 -104 972 -58 q 639 -150 760 -150 q 412 -104 518 -150 q 226 21 306 -58 q 101 206 147 100 q 56 433 56 313 m 139 433 q 178 238 139 329 q 285 80 218 147 q 444 -27 353 13 q 639 -67 535 -67 q 834 -27 743 -67 q 992 80 925 13 q 1099 238 1060 147 q 1139 433 1139 329 q 1099 628 1139 538 q 992 787 1060 719 q 834 894 925 854 q 639 933 743 933 q 444 894 535 933 q 285 787 353 854 q 178 628 218 719 q 139 433 139 538 z "},"㉩":{"ha":1278,"x_min":56,"x_max":1222,"o":"m 308 706 l 576 706 l 576 822 l 703 822 l 703 706 l 969 706 l 969 590 l 703 590 l 703 550 q 728 435 703 489 q 795 338 754 381 q 885 267 836 296 q 979 228 933 238 l 979 107 q 884 138 933 115 q 789 192 835 160 q 703 267 743 225 q 639 357 664 308 q 574 267 614 308 q 489 192 535 225 q 394 138 443 160 q 299 107 344 115 l 299 228 q 394 267 344 238 q 483 338 443 296 q 550 435 524 381 q 576 550 576 489 l 576 590 l 308 590 l 308 706 m 56 433 q 101 660 56 554 q 226 846 147 767 q 412 971 306 925 q 639 1017 518 1017 q 866 971 760 1017 q 1051 846 972 925 q 1176 660 1131 767 q 1222 433 1222 554 q 1176 206 1222 313 q 1051 21 1131 100 q 866 -104 972 -58 q 639 -150 760 -150 q 412 -104 518 -150 q 226 21 306 -58 q 101 206 147 100 q 56 433 56 313 m 139 433 q 178 238 139 329 q 285 80 218 147 q 444 -27 353 13 q 639 -67 535 -67 q 834 -27 743 -67 q 992 80 925 13 q 1099 238 1060 147 q 1139 433 1139 329 q 1099 628 1139 538 q 992 787 1060 719 q 834 894 925 854 q 639 933 743 933 q 444 894 535 933 q 285 787 353 854 q 178 628 218 719 q 139 433 139 538 z "},"㉪":{"ha":1278,"x_min":56,"x_max":1222,"o":"m 840 358 q 564 335 701 340 q 290 326 426 329 l 290 438 q 564 446 426 440 q 840 468 701 451 l 840 651 l 306 651 l 306 764 l 967 764 l 967 103 l 840 103 l 840 358 m 56 433 q 101 660 56 554 q 226 846 147 767 q 412 971 306 925 q 639 1017 518 1017 q 866 971 760 1017 q 1051 846 972 925 q 1176 660 1131 767 q 1222 433 1222 554 q 1176 206 1222 313 q 1051 21 1131 100 q 866 -104 972 -58 q 639 -150 760 -150 q 412 -104 518 -150 q 226 21 306 -58 q 101 206 147 100 q 56 433 56 313 m 139 433 q 178 238 139 329 q 285 80 218 147 q 444 -27 353 13 q 639 -67 535 -67 q 834 -27 743 -67 q 992 80 925 13 q 1099 238 1060 147 q 1139 433 1139 329 q 1099 628 1139 538 q 992 787 1060 719 q 834 894 925 854 q 639 933 743 933 q 444 894 535 933 q 285 787 353 854 q 178 628 218 719 q 139 433 139 538 z "},"㉫":{"ha":1278,"x_min":56,"x_max":1222,"o":"m 971 653 l 432 653 l 432 488 l 961 488 l 961 381 l 432 381 l 432 214 l 975 214 l 975 103 l 310 103 l 310 764 l 971 764 l 971 653 m 56 433 q 101 660 56 554 q 226 846 147 767 q 412 971 306 925 q 639 1017 518 1017 q 866 971 760 1017 q 1051 846 972 925 q 1176 660 1131 767 q 1222 433 1222 554 q 1176 206 1222 313 q 1051 21 1131 100 q 866 -104 972 -58 q 639 -150 760 -150 q 412 -104 518 -150 q 226 21 306 -58 q 101 206 147 100 q 56 433 56 313 m 139 433 q 178 238 139 329 q 285 80 218 147 q 444 -27 353 13 q 639 -67 535 -67 q 834 -27 743 -67 q 992 80 925 13 q 1099 238 1060 147 q 1139 433 1139 329 q 1099 628 1139 538 q 992 787 1060 719 q 834 894 925 854 q 639 933 743 933 q 444 894 535 933 q 285 787 353 854 q 178 628 218 719 q 139 433 139 538 z "},"㉬":{"ha":1278,"x_min":56,"x_max":1222,"o":"m 979 764 l 979 651 l 874 651 l 874 215 l 979 215 l 979 103 l 299 103 l 299 215 l 404 215 l 404 651 l 299 651 l 299 764 l 979 764 m 56 433 q 101 660 56 554 q 226 846 147 767 q 412 971 306 925 q 639 1017 518 1017 q 866 971 760 1017 q 1051 846 972 925 q 1176 660 1131 767 q 1222 433 1222 554 q 1176 206 1222 313 q 1051 21 1131 100 q 866 -104 972 -58 q 639 -150 760 -150 q 412 -104 518 -150 q 226 21 306 -58 q 101 206 147 100 q 56 433 56 313 m 139 433 q 178 238 139 329 q 285 80 218 147 q 444 -27 353 13 q 639 -67 535 -67 q 834 -27 743 -67 q 992 80 925 13 q 1099 238 1060 147 q 1139 433 1139 329 q 1099 628 1139 538 q 992 787 1060 719 q 834 894 925 854 q 639 933 743 933 q 444 894 535 933 q 285 787 353 854 q 178 628 218 719 q 139 433 139 538 m 751 215 l 751 651 l 528 651 l 528 215 l 751 215 z "},"㉭":{"ha":1278,"x_min":56,"x_max":1222,"o":"m 507 114 q 431 130 467 114 q 368 174 396 146 q 324 238 340 201 q 308 318 308 275 q 324 397 308 360 q 368 463 340 435 q 431 506 396 490 q 507 522 467 522 l 771 522 q 847 506 811 522 q 910 463 883 490 q 953 397 938 435 q 969 318 969 360 q 953 238 969 275 q 910 174 938 201 q 847 130 883 146 q 771 114 811 114 l 507 114 m 56 433 q 101 660 56 554 q 226 846 147 767 q 412 971 306 925 q 639 1017 518 1017 q 866 971 760 1017 q 1051 846 972 925 q 1176 660 1131 767 q 1222 433 1222 554 q 1176 206 1222 313 q 1051 21 1131 100 q 866 -104 972 -58 q 639 -150 760 -150 q 412 -104 518 -150 q 226 21 306 -58 q 101 206 147 100 q 56 433 56 313 m 139 433 q 178 238 139 329 q 285 80 218 147 q 444 -27 353 13 q 639 -67 535 -67 q 834 -27 743 -67 q 992 80 925 13 q 1099 238 1060 147 q 1139 433 1139 329 q 1099 628 1139 538 q 992 787 1060 719 q 834 894 925 854 q 639 933 743 933 q 444 894 535 933 q 285 787 353 854 q 178 628 218 719 q 139 433 139 538 m 299 717 l 576 717 l 576 824 l 703 824 l 703 717 l 979 717 l 979 606 l 299 606 l 299 717 m 431 318 q 458 249 431 276 q 521 221 485 221 l 757 221 q 820 249 793 221 q 847 318 847 276 q 820 387 847 358 q 757 415 793 415 l 521 415 q 458 387 485 415 q 431 318 431 358 z "},"㉮":{"ha":1278,"x_min":56,"x_max":1222,"o":"m 296 192 q 415 229 357 200 q 517 309 472 258 q 588 433 561 360 q 615 606 615 507 l 615 692 l 314 692 l 314 794 l 726 794 l 726 606 q 695 406 726 496 q 608 247 664 315 q 472 138 551 179 q 296 85 392 96 l 296 192 m 56 433 q 101 660 56 554 q 226 846 147 767 q 412 971 306 925 q 639 1017 518 1017 q 866 971 760 1017 q 1051 846 972 925 q 1176 660 1131 767 q 1222 433 1222 554 q 1176 206 1222 313 q 1051 21 1131 100 q 866 -104 972 -58 q 639 -150 760 -150 q 412 -104 518 -150 q 226 21 306 -58 q 101 206 147 100 q 56 433 56 313 m 139 433 q 178 238 139 329 q 285 80 218 147 q 444 -27 353 13 q 639 -67 535 -67 q 834 -27 743 -67 q 992 80 925 13 q 1099 238 1060 147 q 1139 433 1139 329 q 1099 628 1139 538 q 992 787 1060 719 q 834 894 925 854 q 639 933 743 933 q 444 894 535 933 q 285 787 353 854 q 178 628 218 719 q 139 433 139 538 m 839 811 l 951 811 l 951 518 l 1038 518 l 1038 411 l 951 411 l 951 58 l 839 58 l 839 811 z "},"㉯":{"ha":1278,"x_min":56,"x_max":1222,"o":"m 431 794 l 431 190 q 622 206 525 196 q 801 233 719 217 l 801 131 q 688 111 749 119 q 563 97 626 103 q 437 88 499 92 q 319 85 375 85 l 319 794 l 431 794 m 56 433 q 101 660 56 554 q 226 846 147 767 q 412 971 306 925 q 639 1017 518 1017 q 866 971 760 1017 q 1051 846 972 925 q 1176 660 1131 767 q 1222 433 1222 554 q 1176 206 1222 313 q 1051 21 1131 100 q 866 -104 972 -58 q 639 -150 760 -150 q 412 -104 518 -150 q 226 21 306 -58 q 101 206 147 100 q 56 433 56 313 m 139 433 q 178 238 139 329 q 285 80 218 147 q 444 -27 353 13 q 639 -67 535 -67 q 834 -27 743 -67 q 992 80 925 13 q 1099 238 1060 147 q 1139 433 1139 329 q 1099 628 1139 538 q 992 787 1060 719 q 834 894 925 854 q 639 933 743 933 q 444 894 535 933 q 285 787 353 854 q 178 628 218 719 q 139 433 139 538 m 844 811 l 956 811 l 956 518 l 1042 518 l 1042 411 l 956 411 l 956 58 l 844 58 l 844 811 z "},"㉰":{"ha":1278,"x_min":56,"x_max":1222,"o":"m 732 794 l 732 692 l 429 692 l 429 189 q 622 205 524 194 q 801 232 719 215 l 801 131 q 688 111 749 119 q 563 97 626 103 q 437 88 499 92 q 319 85 375 85 l 319 794 l 732 794 m 56 433 q 101 660 56 554 q 226 846 147 767 q 412 971 306 925 q 639 1017 518 1017 q 866 971 760 1017 q 1051 846 972 925 q 1176 660 1131 767 q 1222 433 1222 554 q 1176 206 1222 313 q 1051 21 1131 100 q 866 -104 972 -58 q 639 -150 760 -150 q 412 -104 518 -150 q 226 21 306 -58 q 101 206 147 100 q 56 433 56 313 m 139 433 q 178 238 139 329 q 285 80 218 147 q 444 -27 353 13 q 639 -67 535 -67 q 834 -27 743 -67 q 992 80 925 13 q 1099 238 1060 147 q 1139 433 1139 329 q 1099 628 1139 538 q 992 787 1060 719 q 834 894 925 854 q 639 933 743 933 q 444 894 535 933 q 285 787 353 854 q 178 628 218 719 q 139 433 139 538 m 844 811 l 956 811 l 956 518 l 1042 518 l 1042 411 l 956 411 l 956 58 l 844 58 l 844 811 z "},"㉱":{"ha":1278,"x_min":56,"x_max":1222,"o":"m 624 504 l 624 694 l 319 694 l 319 794 l 732 794 l 732 408 l 428 408 l 428 188 q 621 202 522 192 q 801 229 719 213 l 801 131 q 688 111 749 119 q 563 97 626 103 q 437 88 499 92 q 319 85 375 85 l 319 504 l 624 504 m 56 433 q 101 660 56 554 q 226 846 147 767 q 412 971 306 925 q 639 1017 518 1017 q 866 971 760 1017 q 1051 846 972 925 q 1176 660 1131 767 q 1222 433 1222 554 q 1176 206 1222 313 q 1051 21 1131 100 q 866 -104 972 -58 q 639 -150 760 -150 q 412 -104 518 -150 q 226 21 306 -58 q 101 206 147 100 q 56 433 56 313 m 139 433 q 178 238 139 329 q 285 80 218 147 q 444 -27 353 13 q 639 -67 535 -67 q 834 -27 743 -67 q 992 80 925 13 q 1099 238 1060 147 q 1139 433 1139 329 q 1099 628 1139 538 q 992 787 1060 719 q 834 894 925 854 q 639 933 743 933 q 444 894 535 933 q 285 787 353 854 q 178 628 218 719 q 139 433 139 538 m 844 811 l 956 811 l 956 518 l 1042 518 l 1042 411 l 956 411 l 956 58 l 844 58 l 844 811 z "},"㉲":{"ha":1278,"x_min":56,"x_max":1222,"o":"m 732 794 l 732 118 q 523 93 628 100 q 319 85 418 86 l 319 794 l 732 794 m 56 433 q 101 660 56 554 q 226 846 147 767 q 412 971 306 925 q 639 1017 518 1017 q 866 971 760 1017 q 1051 846 972 925 q 1176 660 1131 767 q 1222 433 1222 554 q 1176 206 1222 313 q 1051 21 1131 100 q 866 -104 972 -58 q 639 -150 760 -150 q 412 -104 518 -150 q 226 21 306 -58 q 101 206 147 100 q 56 433 56 313 m 139 433 q 178 238 139 329 q 285 80 218 147 q 444 -27 353 13 q 639 -67 535 -67 q 834 -27 743 -67 q 992 80 925 13 q 1099 238 1060 147 q 1139 433 1139 329 q 1099 628 1139 538 q 992 787 1060 719 q 834 894 925 854 q 639 933 743 933 q 444 894 535 933 q 285 787 353 854 q 178 628 218 719 q 139 433 139 538 m 428 188 q 526 194 476 190 q 624 203 575 197 l 624 694 l 428 694 l 428 188 m 844 811 l 956 811 l 956 518 l 1042 518 l 1042 411 l 956 411 l 956 58 l 844 58 l 844 811 z "},"㉳":{"ha":1278,"x_min":56,"x_max":1222,"o":"m 844 811 l 956 811 l 956 518 l 1042 518 l 1042 411 l 956 411 l 956 58 l 844 58 l 844 811 m 56 433 q 101 660 56 554 q 226 846 147 767 q 412 971 306 925 q 639 1017 518 1017 q 866 971 760 1017 q 1051 846 972 925 q 1176 660 1131 767 q 1222 433 1222 554 q 1176 206 1222 313 q 1051 21 1131 100 q 866 -104 972 -58 q 639 -150 760 -150 q 412 -104 518 -150 q 226 21 306 -58 q 101 206 147 100 q 56 433 56 313 m 139 433 q 178 238 139 329 q 285 80 218 147 q 444 -27 353 13 q 639 -67 535 -67 q 834 -27 743 -67 q 992 80 925 13 q 1099 238 1060 147 q 1139 433 1139 329 q 1099 628 1139 538 q 992 787 1060 719 q 834 894 925 854 q 639 933 743 933 q 444 894 535 933 q 285 787 353 854 q 178 628 218 719 q 139 433 139 538 m 319 794 l 428 794 l 428 553 l 624 553 l 624 794 l 732 794 l 732 118 q 528 94 639 101 q 319 85 418 86 l 319 794 m 428 188 q 526 194 476 190 q 624 203 575 197 l 624 454 l 428 454 l 428 188 z "},"㉴":{"ha":1278,"x_min":56,"x_max":1222,"o":"m 842 811 l 954 811 l 954 518 l 1040 518 l 1040 411 l 954 411 l 954 58 l 842 58 l 842 811 m 56 433 q 101 660 56 554 q 226 846 147 767 q 412 971 306 925 q 639 1017 518 1017 q 866 971 760 1017 q 1051 846 972 925 q 1176 660 1131 767 q 1222 433 1222 554 q 1176 206 1222 313 q 1051 21 1131 100 q 866 -104 972 -58 q 639 -150 760 -150 q 412 -104 518 -150 q 226 21 306 -58 q 101 206 147 100 q 56 433 56 313 m 139 433 q 178 238 139 329 q 285 80 218 147 q 444 -27 353 13 q 639 -67 535 -67 q 834 -27 743 -67 q 992 80 925 13 q 1099 238 1060 147 q 1139 433 1139 329 q 1099 628 1139 538 q 992 787 1060 719 q 834 894 925 854 q 639 933 743 933 q 444 894 535 933 q 285 787 353 854 q 178 628 218 719 q 139 433 139 538 m 308 208 q 372 265 340 229 q 429 349 404 300 q 469 458 454 397 q 485 592 485 518 l 485 799 l 596 799 l 596 592 q 611 474 596 529 q 651 375 626 419 q 708 298 676 331 q 772 247 740 265 l 772 128 q 647 216 708 156 q 544 358 585 276 q 441 190 506 261 q 308 85 376 119 l 308 208 z "},"㉵":{"ha":1278,"x_min":56,"x_max":1222,"o":"m 844 811 l 956 811 l 956 518 l 1042 518 l 1042 411 l 956 411 l 956 58 l 844 58 l 844 811 m 56 433 q 101 660 56 554 q 226 846 147 767 q 412 971 306 925 q 639 1017 518 1017 q 866 971 760 1017 q 1051 846 972 925 q 1176 660 1131 767 q 1222 433 1222 554 q 1176 206 1222 313 q 1051 21 1131 100 q 866 -104 972 -58 q 639 -150 760 -150 q 412 -104 518 -150 q 226 21 306 -58 q 101 206 147 100 q 56 433 56 313 m 139 433 q 178 238 139 329 q 285 80 218 147 q 444 -27 353 13 q 639 -67 535 -67 q 834 -27 743 -67 q 992 80 925 13 q 1099 238 1060 147 q 1139 433 1139 329 q 1099 628 1139 538 q 992 787 1060 719 q 834 894 925 854 q 639 933 743 933 q 444 894 535 933 q 285 787 353 854 q 178 628 218 719 q 139 433 139 538 m 319 596 q 335 678 319 640 q 379 744 351 717 q 444 788 407 772 q 525 803 482 803 q 606 788 568 803 q 672 744 643 772 q 716 678 700 717 q 732 596 732 640 l 732 282 q 716 200 732 238 q 672 135 700 163 q 606 91 643 107 q 525 75 568 75 q 444 91 482 75 q 379 135 407 107 q 335 200 351 163 q 319 282 319 238 l 319 596 m 428 282 q 456 206 428 238 q 525 175 485 175 q 595 206 567 175 q 624 282 624 238 l 624 596 q 595 672 624 640 q 525 703 567 703 q 456 672 485 703 q 428 596 428 640 l 428 282 z "},"㉶":{"ha":1278,"x_min":56,"x_max":1222,"o":"m 842 811 l 954 811 l 954 518 l 1040 518 l 1040 411 l 954 411 l 954 58 l 842 58 l 842 811 m 56 433 q 101 660 56 554 q 226 846 147 767 q 412 971 306 925 q 639 1017 518 1017 q 866 971 760 1017 q 1051 846 972 925 q 1176 660 1131 767 q 1222 433 1222 554 q 1176 206 1222 313 q 1051 21 1131 100 q 866 -104 972 -58 q 639 -150 760 -150 q 412 -104 518 -150 q 226 21 306 -58 q 101 206 147 100 q 56 433 56 313 m 139 433 q 178 238 139 329 q 285 80 218 147 q 444 -27 353 13 q 639 -67 535 -67 q 834 -27 743 -67 q 992 80 925 13 q 1099 238 1060 147 q 1139 433 1139 329 q 1099 628 1139 538 q 992 787 1060 719 q 834 894 925 854 q 639 933 743 933 q 444 894 535 933 q 285 787 353 854 q 178 628 218 719 q 139 433 139 538 m 308 204 q 371 259 339 225 q 428 340 403 293 q 469 445 453 386 q 485 575 485 504 l 485 692 l 317 692 l 317 794 l 764 794 l 764 692 l 596 692 l 596 575 q 612 461 596 514 q 653 366 628 408 q 709 292 678 324 q 772 244 740 261 l 772 128 q 647 213 708 156 q 544 350 585 271 q 441 186 507 254 q 308 85 375 118 l 308 204 z "},"㉷":{"ha":1278,"x_min":56,"x_max":1222,"o":"m 842 817 l 954 817 l 954 524 l 1040 524 l 1040 417 l 954 417 l 954 64 l 842 64 l 842 817 m 56 433 q 101 660 56 554 q 226 846 147 767 q 412 971 306 925 q 639 1017 518 1017 q 866 971 760 1017 q 1051 846 972 925 q 1176 660 1131 767 q 1222 433 1222 554 q 1176 206 1222 313 q 1051 21 1131 100 q 866 -104 972 -58 q 639 -150 760 -150 q 412 -104 518 -150 q 226 21 306 -58 q 101 206 147 100 q 56 433 56 313 m 139 433 q 178 238 139 329 q 285 80 218 147 q 444 -27 353 13 q 639 -67 535 -67 q 834 -27 743 -67 q 992 80 925 13 q 1099 238 1060 147 q 1139 433 1139 329 q 1099 628 1139 538 q 992 787 1060 719 q 834 894 925 854 q 639 933 743 933 q 444 894 535 933 q 285 787 353 854 q 178 628 218 719 q 139 433 139 538 m 308 210 q 371 260 339 229 q 428 336 403 292 q 469 437 453 381 q 485 563 485 493 l 485 646 l 317 646 l 317 747 l 485 747 l 485 833 l 596 833 l 596 747 l 764 747 l 764 646 l 596 646 l 596 563 q 612 453 596 503 q 653 363 628 403 q 709 294 678 322 q 772 250 740 265 l 772 132 q 647 213 708 158 q 544 344 585 268 q 441 187 507 253 q 308 89 375 121 l 308 210 z "},"㉸":{"ha":1278,"x_min":56,"x_max":1222,"o":"m 308 189 q 400 213 356 194 q 483 264 444 232 q 551 341 521 296 q 599 446 581 386 q 453 431 531 436 q 308 426 375 426 l 308 525 q 463 529 379 525 q 617 543 546 533 q 619 574 618 558 q 619 606 619 589 l 619 694 l 317 694 l 317 794 l 729 794 l 729 606 q 699 403 729 494 q 613 245 668 313 q 481 136 558 178 q 308 85 403 94 l 308 189 m 56 433 q 101 660 56 554 q 226 846 147 767 q 412 971 306 925 q 639 1017 518 1017 q 866 971 760 1017 q 1051 846 972 925 q 1176 660 1131 767 q 1222 433 1222 554 q 1176 206 1222 313 q 1051 21 1131 100 q 866 -104 972 -58 q 639 -150 760 -150 q 412 -104 518 -150 q 226 21 306 -58 q 101 206 147 100 q 56 433 56 313 m 139 433 q 178 238 139 329 q 285 80 218 147 q 444 -27 353 13 q 639 -67 535 -67 q 834 -27 743 -67 q 992 80 925 13 q 1099 238 1060 147 q 1139 433 1139 329 q 1099 628 1139 538 q 992 787 1060 719 q 834 894 925 854 q 639 933 743 933 q 444 894 535 933 q 285 787 353 854 q 178 628 218 719 q 139 433 139 538 m 842 811 l 954 811 l 954 518 l 1040 518 l 1040 411 l 954 411 l 954 58 l 842 58 l 842 811 z "},"㉹":{"ha":1278,"x_min":56,"x_max":1222,"o":"m 732 794 l 732 694 l 428 694 l 428 504 l 715 504 l 715 408 l 428 408 l 428 188 q 621 202 522 192 q 801 229 719 213 l 801 131 q 688 111 749 119 q 563 97 626 103 q 437 88 499 92 q 319 85 375 85 l 319 794 l 732 794 m 56 433 q 101 660 56 554 q 226 846 147 767 q 412 971 306 925 q 639 1017 518 1017 q 866 971 760 1017 q 1051 846 972 925 q 1176 660 1131 767 q 1222 433 1222 554 q 1176 206 1222 313 q 1051 21 1131 100 q 866 -104 972 -58 q 639 -150 760 -150 q 412 -104 518 -150 q 226 21 306 -58 q 101 206 147 100 q 56 433 56 313 m 139 433 q 178 238 139 329 q 285 80 218 147 q 444 -27 353 13 q 639 -67 535 -67 q 834 -27 743 -67 q 992 80 925 13 q 1099 238 1060 147 q 1139 433 1139 329 q 1099 628 1139 538 q 992 787 1060 719 q 834 894 925 854 q 639 933 743 933 q 444 894 535 933 q 285 787 353 854 q 178 628 218 719 q 139 433 139 538 m 844 811 l 956 811 l 956 518 l 1042 518 l 1042 411 l 956 411 l 956 58 l 844 58 l 844 811 z "},"㉺":{"ha":1278,"x_min":56,"x_max":1222,"o":"m 308 182 q 340 183 324 182 q 371 183 356 183 l 371 696 l 308 696 l 308 794 l 764 794 l 764 696 l 700 696 l 700 211 l 790 228 l 790 129 q 678 110 738 118 q 556 96 618 101 q 430 88 493 90 q 308 85 367 85 l 308 182 m 56 433 q 101 660 56 554 q 226 846 147 767 q 412 971 306 925 q 639 1017 518 1017 q 866 971 760 1017 q 1051 846 972 925 q 1176 660 1131 767 q 1222 433 1222 554 q 1176 206 1222 313 q 1051 21 1131 100 q 866 -104 972 -58 q 639 -150 760 -150 q 412 -104 518 -150 q 226 21 306 -58 q 101 206 147 100 q 56 433 56 313 m 139 433 q 178 238 139 329 q 285 80 218 147 q 444 -27 353 13 q 639 -67 535 -67 q 834 -27 743 -67 q 992 80 925 13 q 1099 238 1060 147 q 1139 433 1139 329 q 1099 628 1139 538 q 992 787 1060 719 q 834 894 925 854 q 639 933 743 933 q 444 894 535 933 q 285 787 353 854 q 178 628 218 719 q 139 433 139 538 m 592 197 l 592 696 l 481 696 l 481 189 l 592 197 m 842 811 l 954 811 l 954 518 l 1040 518 l 1040 411 l 954 411 l 954 58 l 842 58 l 842 811 z "},"㉻":{"ha":1278,"x_min":56,"x_max":1222,"o":"m 839 817 l 951 817 l 951 524 l 1038 524 l 1038 417 l 951 417 l 951 64 l 839 64 l 839 817 m 56 433 q 101 660 56 554 q 226 846 147 767 q 412 971 306 925 q 639 1017 518 1017 q 866 971 760 1017 q 1051 846 972 925 q 1176 660 1131 767 q 1222 433 1222 554 q 1176 206 1222 313 q 1051 21 1131 100 q 866 -104 972 -58 q 639 -150 760 -150 q 412 -104 518 -150 q 226 21 306 -58 q 101 206 147 100 q 56 433 56 313 m 139 433 q 178 238 139 329 q 285 80 218 147 q 444 -27 353 13 q 639 -67 535 -67 q 834 -27 743 -67 q 992 80 925 13 q 1099 238 1060 147 q 1139 433 1139 329 q 1099 628 1139 538 q 992 787 1060 719 q 834 894 925 854 q 639 933 743 933 q 444 894 535 933 q 285 787 353 854 q 178 628 218 719 q 139 433 139 538 m 296 756 l 464 756 l 464 833 l 576 833 l 576 756 l 744 756 l 744 656 l 296 656 l 296 756 m 314 411 q 330 492 314 456 q 374 556 346 529 q 440 598 403 583 q 521 613 478 613 q 601 598 564 613 q 667 556 639 583 q 710 492 694 529 q 726 411 726 456 l 726 282 q 710 201 726 238 q 667 138 694 164 q 601 96 639 111 q 521 81 564 81 q 440 96 478 81 q 374 138 403 111 q 330 201 346 164 q 314 282 314 238 l 314 411 m 422 282 q 450 208 422 238 q 521 178 478 178 q 591 208 564 178 q 618 282 618 238 l 618 411 q 591 487 618 457 q 521 517 564 517 q 450 487 478 517 q 422 411 422 457 l 422 282 z "},"ⓐ":{"ha":1278,"x_min":56,"x_max":1222,"o":"m 639 -150 q 412 -104 518 -150 q 226 21 306 -58 q 101 206 147 100 q 56 433 56 313 q 101 660 56 554 q 226 846 147 767 q 412 971 306 925 q 639 1017 518 1017 q 866 971 760 1017 q 1051 846 972 925 q 1176 660 1131 767 q 1222 433 1222 554 q 1176 206 1222 313 q 1051 21 1131 100 q 866 -104 972 -58 q 639 -150 760 -150 m 139 433 q 178 238 139 329 q 285 80 218 147 q 444 -27 353 13 q 639 -67 535 -67 q 834 -27 743 -67 q 992 80 925 13 q 1099 238 1060 147 q 1139 433 1139 329 q 1099 628 1139 538 q 992 787 1060 719 q 834 894 925 854 q 639 933 743 933 q 444 894 535 933 q 285 787 353 854 q 178 628 218 719 q 139 433 139 538 m 382 488 q 395 581 382 538 q 435 655 408 624 q 501 704 461 686 q 592 722 540 722 q 736 664 682 722 l 736 711 l 854 711 l 854 157 l 736 157 l 736 203 q 674 160 710 175 q 592 144 638 144 q 501 163 540 144 q 435 213 461 181 q 395 287 408 244 q 382 379 382 329 l 382 488 m 506 379 q 515 317 506 342 q 541 277 525 292 q 577 257 557 263 q 618 251 597 251 q 659 257 639 251 q 695 277 679 263 q 721 317 711 292 q 731 379 731 342 l 731 488 q 721 550 731 525 q 695 590 711 575 q 659 610 679 604 q 618 615 639 615 q 577 610 597 615 q 541 590 557 604 q 515 550 525 575 q 506 488 506 525 l 506 379 z "},"ⓑ":{"ha":1278,"x_min":56,"x_max":1222,"o":"m 639 -150 q 412 -104 518 -150 q 226 21 306 -58 q 101 206 147 100 q 56 433 56 313 q 101 660 56 554 q 226 846 147 767 q 412 971 306 925 q 639 1017 518 1017 q 866 971 760 1017 q 1051 846 972 925 q 1176 660 1131 767 q 1222 433 1222 554 q 1176 206 1222 313 q 1051 21 1131 100 q 866 -104 972 -58 q 639 -150 760 -150 m 139 433 q 178 238 139 329 q 285 80 218 147 q 444 -27 353 13 q 639 -67 535 -67 q 834 -27 743 -67 q 992 80 925 13 q 1099 238 1060 147 q 1139 433 1139 329 q 1099 628 1139 538 q 992 787 1060 719 q 834 894 925 854 q 639 933 743 933 q 444 894 535 933 q 285 787 353 854 q 178 628 218 719 q 139 433 139 538 m 440 836 l 564 836 l 564 581 q 624 619 590 606 q 703 633 658 633 q 794 615 754 633 q 860 566 833 597 q 899 492 886 535 q 913 399 913 449 l 913 290 q 899 198 913 240 q 860 124 886 156 q 794 74 833 92 q 703 56 754 56 q 621 71 657 56 q 558 114 585 86 l 558 68 l 440 68 l 440 836 m 564 290 q 574 228 564 253 q 599 188 583 203 q 635 168 615 174 q 676 163 656 163 q 717 168 697 163 q 753 188 738 174 q 779 228 769 203 q 789 290 789 253 l 789 399 q 779 461 789 436 q 753 501 769 486 q 717 521 738 515 q 676 526 697 526 q 635 521 656 526 q 599 501 615 515 q 574 461 583 486 q 564 399 564 436 l 564 290 z "},"ⓒ":{"ha":1278,"x_min":56,"x_max":1222,"o":"m 639 -150 q 412 -104 518 -150 q 226 21 306 -58 q 101 206 147 100 q 56 433 56 313 q 101 660 56 554 q 226 846 147 767 q 412 971 306 925 q 639 1017 518 1017 q 866 971 760 1017 q 1051 846 972 925 q 1176 660 1131 767 q 1222 433 1222 554 q 1176 206 1222 313 q 1051 21 1131 100 q 866 -104 972 -58 q 639 -150 760 -150 m 139 433 q 178 238 139 329 q 285 80 218 147 q 444 -27 353 13 q 639 -67 535 -67 q 834 -27 743 -67 q 992 80 925 13 q 1099 238 1060 147 q 1139 433 1139 329 q 1099 628 1139 538 q 992 787 1060 719 q 834 894 925 854 q 639 933 743 933 q 444 894 535 933 q 285 787 353 854 q 178 628 218 719 q 139 433 139 538 m 406 490 q 420 578 406 536 q 464 651 435 619 q 536 703 493 683 q 635 722 579 722 q 735 707 693 722 q 804 666 776 692 q 847 607 832 640 q 864 538 861 574 l 742 538 q 711 592 735 569 q 640 615 688 615 q 560 586 592 615 q 529 490 529 557 l 529 376 q 560 281 529 310 q 640 251 592 251 q 711 274 688 251 q 742 329 735 297 l 864 329 q 847 260 861 293 q 804 201 832 226 q 735 160 776 175 q 635 144 693 144 q 536 164 579 144 q 464 215 493 183 q 420 289 435 247 q 406 376 406 331 l 406 490 z "},"ⓓ":{"ha":1278,"x_min":56,"x_max":1222,"o":"m 639 -150 q 412 -104 518 -150 q 226 21 306 -58 q 101 206 147 100 q 56 433 56 313 q 101 660 56 554 q 226 846 147 767 q 412 971 306 925 q 639 1017 518 1017 q 866 971 760 1017 q 1051 846 972 925 q 1176 660 1131 767 q 1222 433 1222 554 q 1176 206 1222 313 q 1051 21 1131 100 q 866 -104 972 -58 q 639 -150 760 -150 m 139 433 q 178 238 139 329 q 285 80 218 147 q 444 -27 353 13 q 639 -67 535 -67 q 834 -27 743 -67 q 992 80 925 13 q 1099 238 1060 147 q 1139 433 1139 329 q 1099 628 1139 538 q 992 787 1060 719 q 834 894 925 854 q 639 933 743 933 q 444 894 535 933 q 285 787 353 854 q 178 628 218 719 q 139 433 139 538 m 365 399 q 378 492 365 449 q 418 566 392 535 q 484 615 444 597 q 575 633 524 633 q 653 619 619 633 q 714 581 688 606 l 714 836 l 838 836 l 838 68 l 719 68 l 719 114 q 657 71 693 86 q 575 56 621 56 q 484 74 524 56 q 418 124 444 92 q 378 198 392 156 q 365 290 365 240 l 365 399 m 489 290 q 499 228 489 253 q 524 188 508 203 q 560 168 540 174 q 601 163 581 163 q 642 168 622 163 q 678 188 663 174 q 704 228 694 203 q 714 290 714 253 l 714 399 q 704 461 714 436 q 678 501 694 486 q 642 521 663 515 q 601 526 622 526 q 560 521 581 526 q 524 501 540 515 q 499 461 508 486 q 489 399 489 436 l 489 290 z "},"ⓔ":{"ha":1278,"x_min":56,"x_max":1222,"o":"m 639 -150 q 412 -104 518 -150 q 226 21 306 -58 q 101 206 147 100 q 56 433 56 313 q 101 660 56 554 q 226 846 147 767 q 412 971 306 925 q 639 1017 518 1017 q 866 971 760 1017 q 1051 846 972 925 q 1176 660 1131 767 q 1222 433 1222 554 q 1176 206 1222 313 q 1051 21 1131 100 q 866 -104 972 -58 q 639 -150 760 -150 m 139 433 q 178 238 139 329 q 285 80 218 147 q 444 -27 353 13 q 639 -67 535 -67 q 834 -27 743 -67 q 992 80 925 13 q 1099 238 1060 147 q 1139 433 1139 329 q 1099 628 1139 538 q 992 787 1060 719 q 834 894 925 854 q 639 933 743 933 q 444 894 535 933 q 285 787 353 854 q 178 628 218 719 q 139 433 139 538 m 404 488 q 419 580 404 538 q 465 654 435 622 q 539 704 496 686 q 639 722 582 722 q 738 704 694 722 q 812 654 782 686 q 857 580 842 622 q 872 488 872 538 l 872 407 q 708 385 801 394 q 528 372 615 375 q 538 317 528 340 q 563 280 547 294 q 597 258 578 265 q 635 251 615 251 q 715 274 690 251 q 746 329 739 297 l 868 329 q 850 260 865 293 q 807 201 835 226 q 736 160 779 175 q 635 144 693 144 q 536 164 579 144 q 464 215 493 183 q 419 289 435 247 q 404 376 404 331 l 404 488 m 528 472 q 640 478 583 474 q 750 490 697 483 q 740 551 750 526 q 715 590 731 575 q 681 610 700 604 q 640 615 661 615 q 599 610 619 615 q 563 590 579 604 q 538 551 547 575 q 528 490 528 526 l 528 472 z "},"ⓕ":{"ha":1278,"x_min":56,"x_max":1222,"o":"m 639 -150 q 412 -104 518 -150 q 226 21 306 -58 q 101 206 147 100 q 56 433 56 313 q 101 660 56 554 q 226 846 147 767 q 412 971 306 925 q 639 1017 518 1017 q 866 971 760 1017 q 1051 846 972 925 q 1176 660 1131 767 q 1222 433 1222 554 q 1176 206 1222 313 q 1051 21 1131 100 q 866 -104 972 -58 q 639 -150 760 -150 m 139 433 q 178 238 139 329 q 285 80 218 147 q 444 -27 353 13 q 639 -67 535 -67 q 834 -27 743 -67 q 992 80 925 13 q 1099 238 1060 147 q 1139 433 1139 329 q 1099 628 1139 538 q 992 787 1060 719 q 834 894 925 854 q 639 933 743 933 q 444 894 535 933 q 285 787 353 854 q 178 628 218 719 q 139 433 139 538 m 447 608 q 494 608 471 608 q 540 610 517 608 l 540 631 q 592 781 540 731 q 729 832 643 832 q 764 831 746 832 q 797 825 782 829 l 797 721 q 776 725 786 724 q 751 726 765 726 q 689 706 714 726 q 664 624 664 685 l 664 614 q 807 626 742 618 l 807 518 q 738 513 774 515 q 664 507 701 510 l 664 54 l 540 54 l 540 503 q 494 501 517 501 q 447 501 471 501 l 447 608 z "},"ⓖ":{"ha":1278,"x_min":56,"x_max":1222,"o":"m 639 -150 q 412 -104 518 -150 q 226 21 306 -58 q 101 206 147 100 q 56 433 56 313 q 101 660 56 554 q 226 846 147 767 q 412 971 306 925 q 639 1017 518 1017 q 866 971 760 1017 q 1051 846 972 925 q 1176 660 1131 767 q 1222 433 1222 554 q 1176 206 1222 313 q 1051 21 1131 100 q 866 -104 972 -58 q 639 -150 760 -150 m 139 433 q 178 238 139 329 q 285 80 218 147 q 444 -27 353 13 q 639 -67 535 -67 q 834 -27 743 -67 q 992 80 925 13 q 1099 238 1060 147 q 1139 433 1139 329 q 1099 628 1139 538 q 992 787 1060 719 q 834 894 925 854 q 639 933 743 933 q 444 894 535 933 q 285 787 353 854 q 178 628 218 719 q 139 433 139 538 m 394 557 q 408 649 394 607 q 447 723 421 692 q 513 772 474 754 q 604 790 553 790 q 749 733 694 790 l 749 779 l 867 779 l 867 261 q 851 174 867 215 q 806 99 836 132 q 733 48 776 67 q 635 29 690 29 q 535 44 576 29 q 465 85 493 60 q 422 144 436 111 q 403 214 407 178 l 525 214 q 558 159 532 182 q 629 136 583 136 q 710 165 678 136 q 743 261 743 194 l 743 288 q 683 249 717 263 q 604 235 649 235 q 513 253 553 235 q 447 303 474 271 q 408 377 421 335 q 394 469 394 419 l 394 557 m 518 469 q 528 407 518 432 q 553 367 538 382 q 590 347 569 353 q 631 342 610 342 q 672 347 651 342 q 708 367 692 353 q 733 407 724 382 q 743 469 743 432 l 743 557 q 733 619 743 594 q 708 658 724 643 q 672 678 692 672 q 631 683 651 683 q 590 678 610 683 q 553 658 569 672 q 528 619 538 643 q 518 557 518 594 l 518 469 z "},"ⓗ":{"ha":1278,"x_min":56,"x_max":1222,"o":"m 639 -150 q 412 -104 518 -150 q 226 21 306 -58 q 101 206 147 100 q 56 433 56 313 q 101 660 56 554 q 226 846 147 767 q 412 971 306 925 q 639 1017 518 1017 q 866 971 760 1017 q 1051 846 972 925 q 1176 660 1131 767 q 1222 433 1222 554 q 1176 206 1222 313 q 1051 21 1131 100 q 866 -104 972 -58 q 639 -150 760 -150 m 139 433 q 178 238 139 329 q 285 80 218 147 q 444 -27 353 13 q 639 -67 535 -67 q 834 -27 743 -67 q 992 80 925 13 q 1099 238 1060 147 q 1139 433 1139 329 q 1099 628 1139 538 q 992 787 1060 719 q 834 894 925 854 q 639 933 743 933 q 444 894 535 933 q 285 787 353 854 q 178 628 218 719 q 139 433 139 538 m 419 836 l 543 836 l 543 581 q 604 619 568 604 q 689 633 640 633 q 769 618 732 633 q 833 576 806 603 q 874 512 860 549 q 889 432 889 475 l 889 68 l 765 68 l 765 399 q 736 493 765 460 q 657 526 707 526 q 574 493 606 526 q 543 399 543 460 l 543 68 l 419 68 l 419 836 z "},"ⓘ":{"ha":1278,"x_min":56,"x_max":1222,"o":"m 639 -150 q 412 -104 518 -150 q 226 21 306 -58 q 101 206 147 100 q 56 433 56 313 q 101 660 56 554 q 226 846 147 767 q 412 971 306 925 q 639 1017 518 1017 q 866 971 760 1017 q 1051 846 972 925 q 1176 660 1131 767 q 1222 433 1222 554 q 1176 206 1222 313 q 1051 21 1131 100 q 866 -104 972 -58 q 639 -150 760 -150 m 139 433 q 178 238 139 329 q 285 80 218 147 q 444 -27 353 13 q 639 -67 535 -67 q 834 -27 743 -67 q 992 80 925 13 q 1099 238 1060 147 q 1139 433 1139 329 q 1099 628 1139 538 q 992 787 1060 719 q 834 894 925 854 q 639 933 743 933 q 444 894 535 933 q 285 787 353 854 q 178 628 218 719 q 139 433 139 538 m 578 613 l 700 613 l 700 58 l 578 58 l 578 613 m 578 826 l 700 826 l 700 689 q 641 677 675 682 q 578 672 607 672 l 578 826 z "},"ⓙ":{"ha":1278,"x_min":56,"x_max":1222,"o":"m 578 886 l 701 886 l 701 750 q 642 738 675 743 q 578 733 608 733 l 578 886 m 56 433 q 101 660 56 554 q 226 846 147 767 q 412 971 306 925 q 639 1017 518 1017 q 866 971 760 1017 q 1051 846 972 925 q 1176 660 1131 767 q 1222 433 1222 554 q 1176 206 1222 313 q 1051 21 1131 100 q 866 -104 972 -58 q 639 -150 760 -150 q 412 -104 518 -150 q 226 21 306 -58 q 101 206 147 100 q 56 433 56 313 m 139 433 q 178 238 139 329 q 285 80 218 147 q 444 -27 353 13 q 639 -67 535 -67 q 834 -27 743 -67 q 992 80 925 13 q 1099 238 1060 147 q 1139 433 1139 329 q 1099 628 1139 538 q 992 787 1060 719 q 834 894 925 854 q 639 933 743 933 q 444 894 535 933 q 285 787 353 854 q 178 628 218 719 q 139 433 139 538 m 474 93 q 488 89 481 90 q 511 88 496 88 q 559 107 540 88 q 578 183 578 126 l 578 672 l 701 672 l 701 183 q 656 33 701 83 q 526 -18 610 -18 q 496 -17 507 -18 q 474 -11 485 -15 l 474 93 z "},"ⓚ":{"ha":1278,"x_min":56,"x_max":1222,"o":"m 639 -150 q 412 -104 518 -150 q 226 21 306 -58 q 101 206 147 100 q 56 433 56 313 q 101 660 56 554 q 226 846 147 767 q 412 971 306 925 q 639 1017 518 1017 q 866 971 760 1017 q 1051 846 972 925 q 1176 660 1131 767 q 1222 433 1222 554 q 1176 206 1222 313 q 1051 21 1131 100 q 866 -104 972 -58 q 639 -150 760 -150 m 139 433 q 178 238 139 329 q 285 80 218 147 q 444 -27 353 13 q 639 -67 535 -67 q 834 -27 743 -67 q 992 80 925 13 q 1099 238 1060 147 q 1139 433 1139 329 q 1099 628 1139 538 q 992 787 1060 719 q 834 894 925 854 q 639 933 743 933 q 444 894 535 933 q 285 787 353 854 q 178 628 218 719 q 139 433 139 538 m 438 836 l 561 836 l 561 396 q 682 501 632 442 q 761 622 732 560 l 885 622 q 824 501 864 564 q 724 379 783 439 l 900 68 l 756 68 l 628 299 q 596 277 613 288 q 561 256 579 267 l 561 68 l 438 68 l 438 836 z "},"ⓛ":{"ha":1278,"x_min":56,"x_max":1222,"o":"m 639 -150 q 412 -104 518 -150 q 226 21 306 -58 q 101 206 147 100 q 56 433 56 313 q 101 660 56 554 q 226 846 147 767 q 412 971 306 925 q 639 1017 518 1017 q 866 971 760 1017 q 1051 846 972 925 q 1176 660 1131 767 q 1222 433 1222 554 q 1176 206 1222 313 q 1051 21 1131 100 q 866 -104 972 -58 q 639 -150 760 -150 m 139 433 q 178 238 139 329 q 285 80 218 147 q 444 -27 353 13 q 639 -67 535 -67 q 834 -27 743 -67 q 992 80 925 13 q 1099 238 1060 147 q 1139 433 1139 329 q 1099 628 1139 538 q 992 787 1060 719 q 834 894 925 854 q 639 933 743 933 q 444 894 535 933 q 285 787 353 854 q 178 628 218 719 q 139 433 139 538 m 578 822 l 700 822 l 700 54 l 578 54 l 578 822 z "},"ⓜ":{"ha":1278,"x_min":56,"x_max":1222,"o":"m 639 -150 q 412 -104 518 -150 q 226 21 306 -58 q 101 206 147 100 q 56 433 56 313 q 101 660 56 554 q 226 846 147 767 q 412 971 306 925 q 639 1017 518 1017 q 866 971 760 1017 q 1051 846 972 925 q 1176 660 1131 767 q 1222 433 1222 554 q 1176 206 1222 313 q 1051 21 1131 100 q 866 -104 972 -58 q 639 -150 760 -150 m 139 433 q 178 238 139 329 q 285 80 218 147 q 444 -27 353 13 q 639 -67 535 -67 q 834 -27 743 -67 q 992 80 925 13 q 1099 238 1060 147 q 1139 433 1139 329 q 1099 628 1139 538 q 992 787 1060 719 q 834 894 925 854 q 639 933 743 933 q 444 894 535 933 q 285 787 353 854 q 178 628 218 719 q 139 433 139 538 m 286 653 q 372 700 317 676 q 493 724 426 724 q 632 683 576 724 q 704 712 664 700 q 789 724 744 724 q 943 674 885 724 q 1001 540 1001 624 l 1001 157 l 879 157 l 879 522 q 853 594 879 571 q 782 617 826 617 q 742 609 763 617 q 706 590 721 601 l 706 157 l 582 157 l 582 522 q 556 594 582 571 q 486 617 531 617 q 444 609 465 617 q 408 590 424 601 l 408 157 l 286 157 l 286 653 z "},"ⓝ":{"ha":1278,"x_min":56,"x_max":1222,"o":"m 639 -150 q 412 -104 518 -150 q 226 21 306 -58 q 101 206 147 100 q 56 433 56 313 q 101 660 56 554 q 226 846 147 767 q 412 971 306 925 q 639 1017 518 1017 q 866 971 760 1017 q 1051 846 972 925 q 1176 660 1131 767 q 1222 433 1222 554 q 1176 206 1222 313 q 1051 21 1131 100 q 866 -104 972 -58 q 639 -150 760 -150 m 139 433 q 178 238 139 329 q 285 80 218 147 q 444 -27 353 13 q 639 -67 535 -67 q 834 -27 743 -67 q 992 80 925 13 q 1099 238 1060 147 q 1139 433 1139 329 q 1099 628 1139 538 q 992 787 1060 719 q 834 894 925 854 q 639 933 743 933 q 444 894 535 933 q 285 787 353 854 q 178 628 218 719 q 139 433 139 538 m 417 668 q 465 688 438 678 q 524 706 493 697 q 588 719 556 714 q 651 724 621 724 q 751 708 708 724 q 823 666 794 693 q 866 602 851 639 q 881 522 881 565 l 881 157 l 757 157 l 757 489 q 729 583 757 550 q 644 617 701 617 q 588 609 615 617 q 540 590 560 601 l 540 157 l 417 157 l 417 668 z "},"ⓞ":{"ha":1278,"x_min":56,"x_max":1222,"o":"m 639 -150 q 412 -104 518 -150 q 226 21 306 -58 q 101 206 147 100 q 56 433 56 313 q 101 660 56 554 q 226 846 147 767 q 412 971 306 925 q 639 1017 518 1017 q 866 971 760 1017 q 1051 846 972 925 q 1176 660 1131 767 q 1222 433 1222 554 q 1176 206 1222 313 q 1051 21 1131 100 q 866 -104 972 -58 q 639 -150 760 -150 m 139 433 q 178 238 139 329 q 285 80 218 147 q 444 -27 353 13 q 639 -67 535 -67 q 834 -27 743 -67 q 992 80 925 13 q 1099 238 1060 147 q 1139 433 1139 329 q 1099 628 1139 538 q 992 787 1060 719 q 834 894 925 854 q 639 933 743 933 q 444 894 535 933 q 285 787 353 854 q 178 628 218 719 q 139 433 139 538 m 403 488 q 419 580 403 538 q 465 654 435 622 q 538 704 494 686 q 639 722 582 722 q 739 704 694 722 q 813 654 783 686 q 859 580 843 622 q 875 488 875 538 l 875 379 q 859 287 875 329 q 813 213 843 244 q 739 163 783 181 q 639 144 694 144 q 538 163 582 144 q 465 213 494 181 q 419 287 435 244 q 403 379 403 329 l 403 488 m 526 379 q 536 317 526 342 q 562 277 546 292 q 598 257 578 263 q 639 251 618 251 q 680 257 660 251 q 716 277 700 263 q 742 317 732 292 q 751 379 751 342 l 751 488 q 742 549 751 525 q 716 588 732 574 q 680 609 700 603 q 639 615 660 615 q 598 609 618 615 q 562 588 578 603 q 536 549 546 574 q 526 488 526 525 l 526 379 z "},"ⓟ":{"ha":1278,"x_min":56,"x_max":1222,"o":"m 639 -150 q 412 -104 518 -150 q 226 21 306 -58 q 101 206 147 100 q 56 433 56 313 q 101 660 56 554 q 226 846 147 767 q 412 971 306 925 q 639 1017 518 1017 q 866 971 760 1017 q 1051 846 972 925 q 1176 660 1131 767 q 1222 433 1222 554 q 1176 206 1222 313 q 1051 21 1131 100 q 866 -104 972 -58 q 639 -150 760 -150 m 139 433 q 178 238 139 329 q 285 80 218 147 q 444 -27 353 13 q 639 -67 535 -67 q 834 -27 743 -67 q 992 80 925 13 q 1099 238 1060 147 q 1139 433 1139 329 q 1099 628 1139 538 q 992 787 1060 719 q 834 894 925 854 q 639 933 743 933 q 444 894 535 933 q 285 787 353 854 q 178 628 218 719 q 139 433 139 538 m 440 789 l 558 789 l 558 742 q 703 800 613 800 q 794 782 754 800 q 860 733 833 764 q 899 659 886 701 q 913 567 913 617 l 913 457 q 899 365 913 407 q 860 290 886 322 q 794 240 833 258 q 703 222 754 222 q 624 237 658 222 q 564 276 590 251 l 564 50 l 440 50 l 440 789 m 564 457 q 574 394 564 419 q 599 355 583 369 q 635 335 615 340 q 676 329 656 329 q 717 335 697 329 q 753 355 738 340 q 779 394 769 369 q 789 457 789 419 l 789 567 q 779 628 789 604 q 753 667 769 653 q 717 688 738 682 q 676 693 697 693 q 635 688 656 693 q 599 667 615 682 q 574 628 583 653 q 564 567 564 604 l 564 457 z "},"ⓠ":{"ha":1278,"x_min":56,"x_max":1222,"o":"m 639 -150 q 412 -104 518 -150 q 226 21 306 -58 q 101 206 147 100 q 56 433 56 313 q 101 660 56 554 q 226 846 147 767 q 412 971 306 925 q 639 1017 518 1017 q 866 971 760 1017 q 1051 846 972 925 q 1176 660 1131 767 q 1222 433 1222 554 q 1176 206 1222 313 q 1051 21 1131 100 q 866 -104 972 -58 q 639 -150 760 -150 m 139 433 q 178 238 139 329 q 285 80 218 147 q 444 -27 353 13 q 639 -67 535 -67 q 834 -27 743 -67 q 992 80 925 13 q 1099 238 1060 147 q 1139 433 1139 329 q 1099 628 1139 538 q 992 787 1060 719 q 834 894 925 854 q 639 933 743 933 q 444 894 535 933 q 285 787 353 854 q 178 628 218 719 q 139 433 139 538 m 365 567 q 378 659 365 617 q 418 733 392 701 q 484 782 444 764 q 575 800 524 800 q 719 742 665 800 l 719 789 l 838 789 l 838 50 l 714 50 l 714 276 q 575 222 663 222 q 484 240 524 222 q 418 290 444 258 q 378 365 392 322 q 365 457 365 407 l 365 567 m 489 457 q 499 394 489 419 q 524 355 508 369 q 560 335 540 340 q 601 329 581 329 q 642 335 622 329 q 678 355 663 340 q 704 394 694 369 q 714 457 714 419 l 714 567 q 704 628 714 604 q 678 667 694 653 q 642 688 663 682 q 601 693 622 693 q 560 688 581 693 q 524 667 540 682 q 499 628 508 653 q 489 567 489 604 l 489 457 z "},"ⓡ":{"ha":1278,"x_min":56,"x_max":1222,"o":"m 639 -150 q 412 -104 518 -150 q 226 21 306 -58 q 101 206 147 100 q 56 433 56 313 q 101 660 56 554 q 226 846 147 767 q 412 971 306 925 q 639 1017 518 1017 q 866 971 760 1017 q 1051 846 972 925 q 1176 660 1131 767 q 1222 433 1222 554 q 1176 206 1222 313 q 1051 21 1131 100 q 866 -104 972 -58 q 639 -150 760 -150 m 139 433 q 178 238 139 329 q 285 80 218 147 q 444 -27 353 13 q 639 -67 535 -67 q 834 -27 743 -67 q 992 80 925 13 q 1099 238 1060 147 q 1139 433 1139 329 q 1099 628 1139 538 q 992 787 1060 719 q 834 894 925 854 q 639 933 743 933 q 444 894 535 933 q 285 787 353 854 q 178 628 218 719 q 139 433 139 538 m 519 711 q 675 717 599 711 q 819 729 751 722 l 819 621 q 734 613 778 617 q 643 607 690 610 l 643 157 l 519 157 l 519 711 z "},"ⓢ":{"ha":1278,"x_min":56,"x_max":1222,"o":"m 639 -150 q 412 -104 518 -150 q 226 21 306 -58 q 101 206 147 100 q 56 433 56 313 q 101 660 56 554 q 226 846 147 767 q 412 971 306 925 q 639 1017 518 1017 q 866 971 760 1017 q 1051 846 972 925 q 1176 660 1131 767 q 1222 433 1222 554 q 1176 206 1222 313 q 1051 21 1131 100 q 866 -104 972 -58 q 639 -150 760 -150 m 139 433 q 178 238 139 329 q 285 80 218 147 q 444 -27 353 13 q 639 -67 535 -67 q 834 -27 743 -67 q 992 80 925 13 q 1099 238 1060 147 q 1139 433 1139 329 q 1099 628 1139 538 q 992 787 1060 719 q 834 894 925 854 q 639 933 743 933 q 444 894 535 933 q 285 787 353 854 q 178 628 218 719 q 139 433 139 538 m 544 319 q 578 263 550 279 q 651 246 607 246 q 711 262 690 246 q 732 306 732 278 q 654 376 732 354 q 596 394 628 383 q 535 417 564 404 q 466 470 490 436 q 442 556 442 504 q 455 618 442 588 q 493 672 468 649 q 556 708 518 694 q 642 722 593 722 q 790 674 736 722 q 850 553 843 625 l 726 553 q 698 604 721 588 q 642 621 675 621 q 582 602 600 621 q 564 561 564 583 q 577 528 564 542 q 622 503 590 514 q 677 485 647 493 q 736 465 707 476 q 821 411 789 447 q 853 313 853 375 q 837 241 853 272 q 792 188 821 210 q 726 156 764 167 q 642 144 688 144 q 491 190 550 144 q 425 319 432 236 l 544 319 z "},"ⓣ":{"ha":1278,"x_min":56,"x_max":1222,"o":"m 639 -150 q 412 -104 518 -150 q 226 21 306 -58 q 101 206 147 100 q 56 433 56 313 q 101 660 56 554 q 226 846 147 767 q 412 971 306 925 q 639 1017 518 1017 q 866 971 760 1017 q 1051 846 972 925 q 1176 660 1131 767 q 1222 433 1222 554 q 1176 206 1222 313 q 1051 21 1131 100 q 866 -104 972 -58 q 639 -150 760 -150 m 139 433 q 178 238 139 329 q 285 80 218 147 q 444 -27 353 13 q 639 -67 535 -67 q 834 -27 743 -67 q 992 80 925 13 q 1099 238 1060 147 q 1139 433 1139 329 q 1099 628 1139 538 q 992 787 1060 719 q 834 894 925 854 q 639 933 743 933 q 444 894 535 933 q 285 787 353 854 q 178 628 218 719 q 139 433 139 538 m 444 642 l 538 642 l 538 807 l 661 807 l 661 647 q 735 653 699 650 q 804 658 771 656 l 804 551 q 661 539 739 543 l 661 233 q 672 201 661 210 q 710 193 682 193 q 754 198 728 193 q 808 208 781 203 l 808 100 q 747 88 778 93 q 672 82 715 82 q 569 117 600 82 q 538 221 538 153 l 538 535 l 444 535 l 444 642 z "},"ⓤ":{"ha":1278,"x_min":56,"x_max":1222,"o":"m 639 -150 q 412 -104 518 -150 q 226 21 306 -58 q 101 206 147 100 q 56 433 56 313 q 101 660 56 554 q 226 846 147 767 q 412 971 306 925 q 639 1017 518 1017 q 866 971 760 1017 q 1051 846 972 925 q 1176 660 1131 767 q 1222 433 1222 554 q 1176 206 1222 313 q 1051 21 1131 100 q 866 -104 972 -58 q 639 -150 760 -150 m 139 433 q 178 238 139 329 q 285 80 218 147 q 444 -27 353 13 q 639 -67 535 -67 q 834 -27 743 -67 q 992 80 925 13 q 1099 238 1060 147 q 1139 433 1139 329 q 1099 628 1139 538 q 992 787 1060 719 q 834 894 925 854 q 639 933 743 933 q 444 894 535 933 q 285 787 353 854 q 178 628 218 719 q 139 433 139 538 m 403 694 l 526 694 l 526 363 q 553 268 526 301 q 639 235 581 235 q 695 242 667 235 q 743 261 724 250 l 743 694 l 867 694 l 867 183 q 818 164 846 174 q 759 146 790 154 q 695 133 728 138 q 632 128 663 128 q 532 143 575 128 q 460 185 489 158 q 417 249 432 213 q 403 329 403 286 l 403 694 z "},"ⓥ":{"ha":1278,"x_min":56,"x_max":1222,"o":"m 639 -150 q 412 -104 518 -150 q 226 21 306 -58 q 101 206 147 100 q 56 433 56 313 q 101 660 56 554 q 226 846 147 767 q 412 971 306 925 q 639 1017 518 1017 q 866 971 760 1017 q 1051 846 972 925 q 1176 660 1131 767 q 1222 433 1222 554 q 1176 206 1222 313 q 1051 21 1131 100 q 866 -104 972 -58 q 639 -150 760 -150 m 139 433 q 178 238 139 329 q 285 80 218 147 q 444 -27 353 13 q 639 -67 535 -67 q 834 -27 743 -67 q 992 80 925 13 q 1099 238 1060 147 q 1139 433 1139 329 q 1099 628 1139 538 q 992 787 1060 719 q 834 894 925 854 q 639 933 743 933 q 444 894 535 933 q 285 787 353 854 q 178 628 218 719 q 139 433 139 538 m 511 694 l 639 276 l 768 694 l 897 694 l 724 140 l 556 140 l 382 694 l 511 694 z "},"ⓦ":{"ha":1278,"x_min":56,"x_max":1222,"o":"m 639 -150 q 412 -104 518 -150 q 226 21 306 -58 q 101 206 147 100 q 56 433 56 313 q 101 660 56 554 q 226 846 147 767 q 412 971 306 925 q 639 1017 518 1017 q 866 971 760 1017 q 1051 846 972 925 q 1176 660 1131 767 q 1222 433 1222 554 q 1176 206 1222 313 q 1051 21 1131 100 q 866 -104 972 -58 q 639 -150 760 -150 m 139 433 q 178 238 139 329 q 285 80 218 147 q 444 -27 353 13 q 639 -67 535 -67 q 834 -27 743 -67 q 992 80 925 13 q 1099 238 1060 147 q 1139 433 1139 329 q 1099 628 1139 538 q 992 787 1060 719 q 834 894 925 854 q 639 933 743 933 q 444 894 535 933 q 285 787 353 854 q 178 628 218 719 q 139 433 139 538 m 389 694 l 474 285 l 558 694 l 719 694 l 804 285 l 889 694 l 1008 694 l 892 140 l 721 140 l 639 528 l 557 140 l 386 140 l 269 694 l 389 694 z "},"ⓧ":{"ha":1278,"x_min":56,"x_max":1222,"o":"m 639 -150 q 412 -104 518 -150 q 226 21 306 -58 q 101 206 147 100 q 56 433 56 313 q 101 660 56 554 q 226 846 147 767 q 412 971 306 925 q 639 1017 518 1017 q 866 971 760 1017 q 1051 846 972 925 q 1176 660 1131 767 q 1222 433 1222 554 q 1176 206 1222 313 q 1051 21 1131 100 q 866 -104 972 -58 q 639 -150 760 -150 m 139 433 q 178 238 139 329 q 285 80 218 147 q 444 -27 353 13 q 639 -67 535 -67 q 834 -27 743 -67 q 992 80 925 13 q 1099 238 1060 147 q 1139 433 1139 329 q 1099 628 1139 538 q 992 787 1060 719 q 834 894 925 854 q 639 933 743 933 q 444 894 535 933 q 285 787 353 854 q 178 628 218 719 q 139 433 139 538 m 557 444 l 396 711 l 533 711 l 639 529 l 744 711 l 882 711 l 721 443 l 893 157 l 749 157 l 639 346 l 529 157 l 385 157 l 557 444 z "},"ⓨ":{"ha":1278,"x_min":56,"x_max":1222,"o":"m 639 -150 q 412 -104 518 -150 q 226 21 306 -58 q 101 206 147 100 q 56 433 56 313 q 101 660 56 554 q 226 846 147 767 q 412 971 306 925 q 639 1017 518 1017 q 866 971 760 1017 q 1051 846 972 925 q 1176 660 1131 767 q 1222 433 1222 554 q 1176 206 1222 313 q 1051 21 1131 100 q 866 -104 972 -58 q 639 -150 760 -150 m 139 433 q 178 238 139 329 q 285 80 218 147 q 444 -27 353 13 q 639 -67 535 -67 q 834 -27 743 -67 q 992 80 925 13 q 1099 238 1060 147 q 1139 433 1139 329 q 1099 628 1139 538 q 992 787 1060 719 q 834 894 925 854 q 639 933 743 933 q 444 894 535 933 q 285 787 353 854 q 178 628 218 719 q 139 433 139 538 m 518 767 l 651 403 l 785 767 l 917 767 l 688 147 q 616 48 663 79 q 499 17 569 17 q 432 26 458 17 l 432 135 q 455 128 442 132 q 483 125 468 125 q 542 138 522 125 q 574 186 561 151 l 588 225 l 386 767 l 518 767 z "},"ⓩ":{"ha":1278,"x_min":56,"x_max":1222,"o":"m 639 -150 q 412 -104 518 -150 q 226 21 306 -58 q 101 206 147 100 q 56 433 56 313 q 101 660 56 554 q 226 846 147 767 q 412 971 306 925 q 639 1017 518 1017 q 866 971 760 1017 q 1051 846 972 925 q 1176 660 1131 767 q 1222 433 1222 554 q 1176 206 1222 313 q 1051 21 1131 100 q 866 -104 972 -58 q 639 -150 760 -150 m 139 433 q 178 238 139 329 q 285 80 218 147 q 444 -27 353 13 q 639 -67 535 -67 q 834 -27 743 -67 q 992 80 925 13 q 1099 238 1060 147 q 1139 433 1139 329 q 1099 628 1139 538 q 992 787 1060 719 q 834 894 925 854 q 639 933 743 933 q 444 894 535 933 q 285 787 353 854 q 178 628 218 719 q 139 433 139 538 m 436 240 q 554 447 486 356 q 688 604 622 539 l 451 604 l 451 711 l 842 711 l 842 600 q 691 440 760 526 q 578 264 622 354 l 833 264 l 833 157 l 436 157 l 436 240 z "},"①":{"ha":1278,"x_min":56,"x_max":1222,"o":"m 639 -150 q 412 -104 518 -150 q 226 21 306 -58 q 101 206 147 100 q 56 433 56 313 q 101 660 56 554 q 226 846 147 767 q 412 971 306 925 q 639 1017 518 1017 q 866 971 760 1017 q 1051 846 972 925 q 1176 660 1131 767 q 1222 433 1222 554 q 1176 206 1222 313 q 1051 21 1131 100 q 866 -104 972 -58 q 639 -150 760 -150 m 139 433 q 178 238 139 329 q 285 80 218 147 q 444 -27 353 13 q 639 -67 535 -67 q 834 -27 743 -67 q 992 80 925 13 q 1099 238 1060 147 q 1139 433 1139 329 q 1099 628 1139 538 q 992 787 1060 719 q 834 894 925 854 q 639 933 743 933 q 444 894 535 933 q 285 787 353 854 q 178 628 218 719 q 139 433 139 538 m 461 790 q 576 798 513 793 q 707 810 639 803 l 707 65 l 583 65 l 583 686 q 519 681 550 683 q 461 679 489 679 l 461 790 z "},"②":{"ha":1278,"x_min":56,"x_max":1222,"o":"m 639 -150 q 412 -104 518 -150 q 226 21 306 -58 q 101 206 147 100 q 56 433 56 313 q 101 660 56 554 q 226 846 147 767 q 412 971 306 925 q 639 1017 518 1017 q 866 971 760 1017 q 1051 846 972 925 q 1176 660 1131 767 q 1222 433 1222 554 q 1176 206 1222 313 q 1051 21 1131 100 q 866 -104 972 -58 q 639 -150 760 -150 m 139 433 q 178 238 139 329 q 285 80 218 147 q 444 -27 353 13 q 639 -67 535 -67 q 834 -27 743 -67 q 992 80 925 13 q 1099 238 1060 147 q 1139 433 1139 329 q 1099 628 1139 538 q 992 787 1060 719 q 834 894 925 854 q 639 933 743 933 q 444 894 535 933 q 285 787 353 854 q 178 628 218 719 q 139 433 139 538 m 406 156 q 413 235 406 201 q 446 301 421 268 q 519 371 471 333 q 650 463 568 408 q 738 538 717 506 q 760 608 760 571 q 730 688 760 660 q 649 717 700 717 q 565 690 600 717 q 531 603 531 664 l 408 603 q 428 706 408 664 q 482 776 449 749 q 559 815 515 803 q 649 828 603 828 q 738 814 694 828 q 813 773 781 800 q 864 704 844 746 q 883 608 883 663 q 846 479 883 533 q 721 367 808 425 q 626 301 663 326 q 568 256 589 275 q 540 222 547 236 q 533 190 533 207 l 597 190 q 766 199 692 190 q 881 217 840 208 l 881 103 q 769 87 840 94 q 597 79 697 79 l 406 79 l 406 156 z "},"③":{"ha":1278,"x_min":56,"x_max":1222,"o":"m 639 -150 q 412 -104 518 -150 q 226 21 306 -58 q 101 206 147 100 q 56 433 56 313 q 101 660 56 554 q 226 846 147 767 q 412 971 306 925 q 639 1017 518 1017 q 866 971 760 1017 q 1051 846 972 925 q 1176 660 1131 767 q 1222 433 1222 554 q 1176 206 1222 313 q 1051 21 1131 100 q 866 -104 972 -58 q 639 -150 760 -150 m 139 433 q 178 238 139 329 q 285 80 218 147 q 444 -27 353 13 q 639 -67 535 -67 q 834 -27 743 -67 q 992 80 925 13 q 1099 238 1060 147 q 1139 433 1139 329 q 1099 628 1139 538 q 992 787 1060 719 q 834 894 925 854 q 639 933 743 933 q 444 894 535 933 q 285 787 353 854 q 178 628 218 719 q 139 433 139 538 m 513 278 q 551 192 515 218 q 636 165 588 165 q 733 197 700 165 q 765 276 765 228 q 734 355 765 325 q 639 385 703 385 l 546 385 l 546 493 l 639 493 q 727 524 697 493 q 757 603 757 554 q 726 676 757 647 q 646 706 696 706 q 567 681 600 706 q 531 601 533 656 l 408 601 q 430 699 410 658 q 482 766 450 740 q 556 804 514 792 q 646 817 599 817 q 735 803 693 817 q 810 764 778 790 q 862 698 843 738 q 881 606 881 658 q 853 510 881 551 q 782 444 826 468 q 859 382 831 425 q 888 274 888 339 q 873 191 888 231 q 828 121 858 151 q 750 72 797 90 q 636 53 703 53 q 544 65 588 53 q 467 105 500 78 q 413 175 433 132 q 390 278 392 218 l 513 278 z "},"④":{"ha":1278,"x_min":56,"x_max":1222,"o":"m 639 -150 q 412 -104 518 -150 q 226 21 306 -58 q 101 206 147 100 q 56 433 56 313 q 101 660 56 554 q 226 846 147 767 q 412 971 306 925 q 639 1017 518 1017 q 866 971 760 1017 q 1051 846 972 925 q 1176 660 1131 767 q 1222 433 1222 554 q 1176 206 1222 313 q 1051 21 1131 100 q 866 -104 972 -58 q 639 -150 760 -150 m 139 433 q 178 238 139 329 q 285 80 218 147 q 444 -27 353 13 q 639 -67 535 -67 q 834 -27 743 -67 q 992 80 925 13 q 1099 238 1060 147 q 1139 433 1139 329 q 1099 628 1139 538 q 992 787 1060 719 q 834 894 925 854 q 639 933 743 933 q 444 894 535 933 q 285 787 353 854 q 178 628 218 719 q 139 433 139 538 m 347 317 l 603 801 l 790 801 l 790 333 q 845 341 818 336 q 897 353 872 346 l 897 240 q 845 230 872 235 q 790 222 818 225 l 790 65 l 667 65 l 667 211 q 559 206 611 207 q 463 206 507 206 l 347 206 l 347 317 m 476 317 q 567 318 519 317 q 667 322 615 319 l 667 683 l 476 317 z "},"⑤":{"ha":1278,"x_min":56,"x_max":1222,"o":"m 639 -150 q 412 -104 518 -150 q 226 21 306 -58 q 101 206 147 100 q 56 433 56 313 q 101 660 56 554 q 226 846 147 767 q 412 971 306 925 q 639 1017 518 1017 q 866 971 760 1017 q 1051 846 972 925 q 1176 660 1131 767 q 1222 433 1222 554 q 1176 206 1222 313 q 1051 21 1131 100 q 866 -104 972 -58 q 639 -150 760 -150 m 139 433 q 178 238 139 329 q 285 80 218 147 q 444 -27 353 13 q 639 -67 535 -67 q 834 -27 743 -67 q 992 80 925 13 q 1099 238 1060 147 q 1139 433 1139 329 q 1099 628 1139 538 q 992 787 1060 719 q 834 894 925 854 q 639 933 743 933 q 444 894 535 933 q 285 787 353 854 q 178 628 218 719 q 139 433 139 538 m 513 272 q 548 193 518 222 q 631 164 578 164 q 724 199 686 164 q 763 306 763 233 q 726 414 763 379 q 638 449 689 449 q 590 441 611 449 q 552 422 568 433 q 525 398 536 411 q 508 375 514 385 l 393 375 l 436 801 l 861 801 l 861 690 l 543 690 l 525 507 q 578 539 544 524 q 664 554 611 554 q 749 539 708 554 q 819 493 789 524 q 868 415 850 463 q 886 306 886 368 q 867 198 886 244 q 813 119 847 151 q 731 69 778 86 q 631 53 685 53 q 537 67 581 53 q 460 108 493 81 q 406 177 426 136 q 383 272 386 218 l 513 272 z "},"⑥":{"ha":1278,"x_min":56,"x_max":1222,"o":"m 639 -150 q 412 -104 518 -150 q 226 21 306 -58 q 101 206 147 100 q 56 433 56 313 q 101 660 56 554 q 226 846 147 767 q 412 971 306 925 q 639 1017 518 1017 q 866 971 760 1017 q 1051 846 972 925 q 1176 660 1131 767 q 1222 433 1222 554 q 1176 206 1222 313 q 1051 21 1131 100 q 866 -104 972 -58 q 639 -150 760 -150 m 139 433 q 178 238 139 329 q 285 80 218 147 q 444 -27 353 13 q 639 -67 535 -67 q 834 -27 743 -67 q 992 80 925 13 q 1099 238 1060 147 q 1139 433 1139 329 q 1099 628 1139 538 q 992 787 1060 719 q 834 894 925 854 q 639 933 743 933 q 444 894 535 933 q 285 787 353 854 q 178 628 218 719 q 139 433 139 538 m 389 576 q 408 676 389 632 q 461 751 428 719 q 540 799 494 782 q 640 815 586 815 q 734 800 690 815 q 811 756 778 785 q 865 687 844 728 q 889 593 886 646 l 760 593 q 724 674 754 644 q 640 704 693 704 q 550 672 585 704 q 515 576 515 639 l 515 468 q 574 509 538 492 q 661 526 610 526 q 742 512 701 526 q 814 468 782 497 q 866 395 846 439 q 886 292 886 351 q 871 199 886 243 q 824 123 856 156 q 747 71 793 90 q 639 51 701 51 q 540 68 586 51 q 461 116 494 85 q 408 192 428 147 q 389 292 389 236 l 389 576 m 513 292 q 548 197 513 231 q 638 164 583 164 q 728 197 693 164 q 764 292 764 231 q 728 385 764 350 q 638 421 693 421 q 548 385 583 421 q 513 292 513 350 z "},"⑦":{"ha":1278,"x_min":56,"x_max":1222,"o":"m 639 -150 q 412 -104 518 -150 q 226 21 306 -58 q 101 206 147 100 q 56 433 56 313 q 101 660 56 554 q 226 846 147 767 q 412 971 306 925 q 639 1017 518 1017 q 866 971 760 1017 q 1051 846 972 925 q 1176 660 1131 767 q 1222 433 1222 554 q 1176 206 1222 313 q 1051 21 1131 100 q 866 -104 972 -58 q 639 -150 760 -150 m 139 433 q 178 238 139 329 q 285 80 218 147 q 444 -27 353 13 q 639 -67 535 -67 q 834 -27 743 -67 q 992 80 925 13 q 1099 238 1060 147 q 1139 433 1139 329 q 1099 628 1139 538 q 992 787 1060 719 q 834 894 925 854 q 639 933 743 933 q 444 894 535 933 q 285 787 353 854 q 178 628 218 719 q 139 433 139 538 m 396 792 l 893 792 l 893 679 q 724 394 794 550 q 613 56 653 238 l 475 56 q 592 396 515 240 q 757 679 668 551 l 396 679 l 396 792 z "},"⑧":{"ha":1278,"x_min":56,"x_max":1222,"o":"m 639 -150 q 412 -104 518 -150 q 226 21 306 -58 q 101 206 147 100 q 56 433 56 313 q 101 660 56 554 q 226 846 147 767 q 412 971 306 925 q 639 1017 518 1017 q 866 971 760 1017 q 1051 846 972 925 q 1176 660 1131 767 q 1222 433 1222 554 q 1176 206 1222 313 q 1051 21 1131 100 q 866 -104 972 -58 q 639 -150 760 -150 m 139 433 q 178 238 139 329 q 285 80 218 147 q 444 -27 353 13 q 639 -67 535 -67 q 834 -27 743 -67 q 992 80 925 13 q 1099 238 1060 147 q 1139 433 1139 329 q 1099 628 1139 538 q 992 787 1060 719 q 834 894 925 854 q 639 933 743 933 q 444 894 535 933 q 285 787 353 854 q 178 628 218 719 q 139 433 139 538 m 390 271 q 418 377 390 333 q 493 443 446 421 q 424 508 450 468 q 397 603 397 549 q 413 685 397 646 q 458 753 428 724 q 534 799 489 782 q 639 815 579 815 q 744 799 699 815 q 819 753 789 782 q 865 685 850 724 q 881 603 881 646 q 854 508 881 549 q 785 443 828 468 q 860 377 832 421 q 888 271 888 333 q 872 187 888 226 q 824 117 856 147 q 747 69 793 86 q 639 51 700 51 q 531 69 578 51 q 453 117 485 86 q 406 187 422 147 q 390 271 390 226 m 514 274 q 547 192 514 222 q 639 163 579 163 q 731 192 699 163 q 764 274 764 222 q 731 354 764 325 q 639 383 699 383 q 547 354 579 383 q 514 274 514 325 m 519 597 q 551 520 519 549 q 639 492 583 492 q 726 520 694 492 q 758 597 758 549 q 726 675 758 646 q 639 704 694 704 q 551 675 583 704 q 519 597 519 646 z "},"⑨":{"ha":1278,"x_min":56,"x_max":1222,"o":"m 639 -150 q 412 -104 518 -150 q 226 21 306 -58 q 101 206 147 100 q 56 433 56 313 q 101 660 56 554 q 226 846 147 767 q 412 971 306 925 q 639 1017 518 1017 q 866 971 760 1017 q 1051 846 972 925 q 1176 660 1131 767 q 1222 433 1222 554 q 1176 206 1222 313 q 1051 21 1131 100 q 866 -104 972 -58 q 639 -150 760 -150 m 139 433 q 178 238 139 329 q 285 80 218 147 q 444 -27 353 13 q 639 -67 535 -67 q 834 -27 743 -67 q 992 80 925 13 q 1099 238 1060 147 q 1139 433 1139 329 q 1099 628 1139 538 q 992 787 1060 719 q 834 894 925 854 q 639 933 743 933 q 444 894 535 933 q 285 787 353 854 q 178 628 218 719 q 139 433 139 538 m 518 274 q 554 192 524 222 q 638 163 585 163 q 728 195 693 163 q 763 290 763 228 l 763 393 q 613 340 710 340 q 533 355 572 340 q 462 399 493 369 q 411 472 431 428 q 392 575 392 515 q 407 667 392 624 q 453 744 422 711 q 531 796 485 776 q 639 815 576 815 q 738 799 692 815 q 817 751 783 782 q 869 675 850 719 q 889 575 889 631 l 889 290 q 869 191 889 235 q 817 116 850 147 q 738 68 783 85 q 638 51 692 51 q 544 67 588 51 q 467 110 500 82 q 413 180 433 139 q 389 274 392 221 l 518 274 m 514 575 q 549 481 514 515 q 640 446 585 446 q 730 481 694 446 q 765 575 765 515 q 730 670 765 638 q 640 703 694 703 q 549 670 585 703 q 514 575 514 638 z "},"⑩":{"ha":1278,"x_min":56,"x_max":1222,"o":"m 639 -150 q 412 -104 518 -150 q 226 21 306 -58 q 101 206 147 100 q 56 433 56 313 q 101 660 56 554 q 226 846 147 767 q 412 971 306 925 q 639 1017 518 1017 q 866 971 760 1017 q 1051 846 972 925 q 1176 660 1131 767 q 1222 433 1222 554 q 1176 206 1222 313 q 1051 21 1131 100 q 866 -104 972 -58 q 639 -150 760 -150 m 139 433 q 178 238 139 329 q 285 80 218 147 q 444 -27 353 13 q 639 -67 535 -67 q 834 -27 743 -67 q 992 80 925 13 q 1099 238 1060 147 q 1139 433 1139 329 q 1099 628 1139 538 q 992 787 1060 719 q 834 894 925 854 q 639 933 743 933 q 444 894 535 933 q 285 787 353 854 q 178 628 218 719 q 139 433 139 538 m 318 790 q 413 798 358 793 q 529 810 467 803 l 529 65 l 413 65 l 413 693 q 367 689 389 690 q 318 686 346 688 l 318 790 m 600 625 q 611 700 600 665 q 644 761 622 735 q 700 802 667 788 q 778 817 733 817 q 856 802 822 817 q 911 761 889 788 q 944 700 933 735 q 956 625 956 665 l 956 244 q 944 169 956 204 q 911 108 933 135 q 856 67 889 82 q 778 53 822 53 q 700 67 733 53 q 644 108 667 82 q 611 169 622 135 q 600 244 600 204 l 600 625 m 717 244 q 730 185 717 208 q 778 161 743 161 q 826 185 813 161 q 839 244 839 208 l 839 625 q 826 685 839 661 q 778 708 813 708 q 730 685 743 708 q 717 625 717 661 l 717 244 z "},"⑪":{"ha":1278,"x_min":56,"x_max":1222,"o":"m 639 -150 q 412 -104 518 -150 q 226 21 306 -58 q 101 206 147 100 q 56 433 56 313 q 101 660 56 554 q 226 846 147 767 q 412 971 306 925 q 639 1017 518 1017 q 866 971 760 1017 q 1051 846 972 925 q 1176 660 1131 767 q 1222 433 1222 554 q 1176 206 1222 313 q 1051 21 1131 100 q 866 -104 972 -58 q 639 -150 760 -150 m 139 433 q 178 238 139 329 q 285 80 218 147 q 444 -27 353 13 q 639 -67 535 -67 q 834 -27 743 -67 q 992 80 925 13 q 1099 238 1060 147 q 1139 433 1139 329 q 1099 628 1139 538 q 992 787 1060 719 q 834 894 925 854 q 639 933 743 933 q 444 894 535 933 q 285 787 353 854 q 178 628 218 719 q 139 433 139 538 m 354 790 q 449 798 394 793 q 567 810 504 803 l 567 65 l 449 65 l 449 693 q 403 689 425 690 q 354 686 382 688 l 354 790 m 639 790 q 734 798 679 793 q 851 810 789 803 l 851 65 l 733 65 l 733 693 q 688 689 710 690 q 639 686 667 688 l 639 790 z "},"⑫":{"ha":1278,"x_min":56,"x_max":1222,"o":"m 639 -150 q 412 -104 518 -150 q 226 21 306 -58 q 101 206 147 100 q 56 433 56 313 q 101 660 56 554 q 226 846 147 767 q 412 971 306 925 q 639 1017 518 1017 q 866 971 760 1017 q 1051 846 972 925 q 1176 660 1131 767 q 1222 433 1222 554 q 1176 206 1222 313 q 1051 21 1131 100 q 866 -104 972 -58 q 639 -150 760 -150 m 139 433 q 178 238 139 329 q 285 80 218 147 q 444 -27 353 13 q 639 -67 535 -67 q 834 -27 743 -67 q 992 80 925 13 q 1099 238 1060 147 q 1139 433 1139 329 q 1099 628 1139 538 q 992 787 1060 719 q 834 894 925 854 q 639 933 743 933 q 444 894 535 933 q 285 787 353 854 q 178 628 218 719 q 139 433 139 538 m 313 789 q 401 797 353 792 q 511 810 449 803 l 511 65 l 394 65 l 394 693 q 313 685 353 688 l 313 789 m 572 599 q 591 699 574 658 q 635 766 608 740 q 694 803 661 792 q 763 814 728 814 q 832 801 797 814 q 894 763 867 789 q 940 697 922 738 q 957 600 957 656 q 920 469 957 524 q 817 354 883 414 q 749 291 774 317 q 713 246 725 265 q 699 210 701 226 q 696 174 696 193 l 710 174 q 849 183 786 174 q 944 200 913 192 l 944 89 q 852 73 913 81 q 682 65 792 65 l 576 65 l 576 150 q 581 225 576 193 q 604 289 586 257 q 658 358 622 321 q 757 450 694 396 q 815 518 793 481 q 836 600 836 556 q 817 677 836 649 q 763 706 797 706 q 713 681 733 706 q 690 599 693 656 l 572 599 z "},"⑬":{"ha":1278,"x_min":56,"x_max":1222,"o":"m 639 -150 q 412 -104 518 -150 q 226 21 306 -58 q 101 206 147 100 q 56 433 56 313 q 101 660 56 554 q 226 846 147 767 q 412 971 306 925 q 639 1017 518 1017 q 866 971 760 1017 q 1051 846 972 925 q 1176 660 1131 767 q 1222 433 1222 554 q 1176 206 1222 313 q 1051 21 1131 100 q 866 -104 972 -58 q 639 -150 760 -150 m 139 433 q 178 238 139 329 q 285 80 218 147 q 444 -27 353 13 q 639 -67 535 -67 q 834 -27 743 -67 q 992 80 925 13 q 1099 238 1060 147 q 1139 433 1139 329 q 1099 628 1139 538 q 992 787 1060 719 q 834 894 925 854 q 639 933 743 933 q 444 894 535 933 q 285 787 353 854 q 178 628 218 719 q 139 433 139 538 m 313 789 q 401 797 353 792 q 511 810 449 803 l 511 65 l 394 65 l 394 693 q 313 685 353 688 l 313 789 m 681 268 q 709 187 685 213 q 763 161 733 161 q 826 194 803 161 q 849 276 849 226 q 828 355 849 325 q 765 385 807 385 l 689 385 l 689 493 l 765 493 q 822 523 801 493 q 843 601 843 553 q 825 676 843 646 q 771 706 807 706 q 720 682 740 706 q 696 610 700 658 l 578 610 q 639 766 585 718 q 771 814 693 814 q 844 801 810 814 q 906 762 879 788 q 948 697 932 736 q 964 604 964 657 q 934 502 964 542 q 869 444 904 463 q 938 386 907 429 q 969 272 969 343 q 956 190 969 229 q 917 119 943 150 q 852 71 890 89 q 763 53 814 53 q 688 65 722 53 q 626 104 653 78 q 582 171 599 131 q 563 268 565 211 l 681 268 z "},"⑭":{"ha":1278,"x_min":56,"x_max":1222,"o":"m 639 -150 q 412 -104 518 -150 q 226 21 306 -58 q 101 206 147 100 q 56 433 56 313 q 101 660 56 554 q 226 846 147 767 q 412 971 306 925 q 639 1017 518 1017 q 866 971 760 1017 q 1051 846 972 925 q 1176 660 1131 767 q 1222 433 1222 554 q 1176 206 1222 313 q 1051 21 1131 100 q 866 -104 972 -58 q 639 -150 760 -150 m 139 433 q 178 238 139 329 q 285 80 218 147 q 444 -27 353 13 q 639 -67 535 -67 q 834 -27 743 -67 q 992 80 925 13 q 1099 238 1060 147 q 1139 433 1139 329 q 1099 628 1139 538 q 992 787 1060 719 q 834 894 925 854 q 639 933 743 933 q 444 894 535 933 q 285 787 353 854 q 178 628 218 719 q 139 433 139 538 m 313 789 q 401 797 353 792 q 511 810 449 803 l 511 65 l 394 65 l 394 693 q 313 685 353 688 l 313 789 m 553 317 l 733 801 l 907 801 l 907 333 q 990 353 947 339 l 990 243 q 950 233 971 238 q 907 225 929 228 l 907 65 l 790 65 l 790 213 q 716 209 751 210 q 651 208 681 208 l 553 208 l 553 317 m 665 317 q 790 321 724 317 l 790 668 l 665 317 z "},"⑮":{"ha":1278,"x_min":56,"x_max":1222,"o":"m 639 -150 q 412 -104 518 -150 q 226 21 306 -58 q 101 206 147 100 q 56 433 56 313 q 101 660 56 554 q 226 846 147 767 q 412 971 306 925 q 639 1017 518 1017 q 866 971 760 1017 q 1051 846 972 925 q 1176 660 1131 767 q 1222 433 1222 554 q 1176 206 1222 313 q 1051 21 1131 100 q 866 -104 972 -58 q 639 -150 760 -150 m 139 433 q 178 238 139 329 q 285 80 218 147 q 444 -27 353 13 q 639 -67 535 -67 q 834 -27 743 -67 q 992 80 925 13 q 1099 238 1060 147 q 1139 433 1139 329 q 1099 628 1139 538 q 992 787 1060 719 q 834 894 925 854 q 639 933 743 933 q 444 894 535 933 q 285 787 353 854 q 178 628 218 719 q 139 433 139 538 m 313 789 q 401 797 353 792 q 511 810 449 803 l 511 65 l 394 65 l 394 693 q 313 685 353 688 l 313 789 m 688 272 q 710 192 692 222 q 760 161 729 161 q 815 197 792 161 q 838 306 838 232 q 816 414 838 379 q 764 449 794 449 q 734 440 747 449 q 712 421 721 432 q 697 397 703 410 q 689 375 692 385 l 576 375 l 610 801 l 939 801 l 939 693 l 718 693 l 703 517 q 735 542 714 531 q 788 554 756 554 q 851 539 821 554 q 906 493 882 524 q 944 415 931 463 q 958 306 958 368 q 943 198 958 244 q 901 119 928 151 q 838 69 875 86 q 760 53 801 53 q 688 67 722 53 q 628 108 654 81 q 585 177 601 136 q 568 272 569 218 l 688 272 z "},"¹":{"ha":418,"x_min":56,"x_max":279,"o":"m 279 536 l 156 536 l 156 1044 q 102 1040 128 1042 q 56 1039 76 1039 l 56 1158 q 158 1165 100 1160 q 279 1176 217 1169 l 279 536 z "},"²":{"ha":553,"x_min":69,"x_max":483,"o":"m 71 979 q 88 1071 71 1033 q 135 1133 106 1108 q 203 1168 165 1157 q 279 1179 240 1179 q 356 1167 318 1179 q 421 1130 393 1154 q 466 1069 449 1106 q 483 985 483 1033 q 451 871 483 918 q 344 775 418 824 q 278 728 304 747 q 235 697 251 710 q 210 674 218 683 q 199 656 201 664 l 238 656 q 390 665 325 656 q 481 681 454 674 l 481 557 q 388 543 449 550 q 238 536 326 536 l 69 536 l 69 613 q 76 682 69 653 q 103 739 82 711 q 166 799 125 767 q 275 876 207 831 q 344 934 329 911 q 360 985 360 957 q 339 1042 360 1021 q 279 1064 318 1064 q 217 1044 242 1064 q 194 979 193 1024 l 71 979 l 71 979 z "},"³":{"ha":586,"x_min":69,"x_max":501,"o":"m 192 725 q 219 661 194 682 q 283 640 244 640 q 355 663 332 640 q 378 722 378 686 q 356 777 378 757 q 285 797 335 797 l 199 797 l 199 914 l 285 914 q 351 934 329 914 q 372 990 372 954 q 351 1043 372 1022 q 292 1064 329 1064 q 231 1044 254 1064 q 207 985 208 1025 l 85 985 q 103 1073 86 1036 q 149 1133 121 1110 q 215 1168 178 1157 q 292 1179 251 1179 q 369 1167 332 1179 q 433 1132 406 1156 q 478 1074 461 1108 q 494 992 494 1039 q 472 913 494 946 q 414 861 450 879 q 478 807 454 844 q 501 715 501 769 q 488 643 501 678 q 448 582 475 608 q 380 540 421 556 q 283 525 339 525 q 203 536 242 525 q 136 572 165 547 q 89 633 107 596 q 69 725 71 671 l 192 725 l 192 725 z "},"⁴":{"ha":549,"x_min":42,"x_max":517,"o":"m 428 785 q 517 801 478 792 l 517 682 q 474 672 496 675 q 428 665 451 668 l 428 536 l 304 536 l 304 654 q 222 651 263 651 q 147 650 182 650 l 42 650 l 42 760 l 257 1167 l 428 1167 l 428 785 m 181 769 q 304 774 239 769 l 304 1010 l 181 769 z "},"ⁿ":{"ha":581,"x_min":97,"x_max":483,"o":"m 97 961 q 137 978 114 969 q 186 993 160 986 q 240 1004 213 1000 q 293 1008 268 1008 q 435 960 386 1008 q 483 836 483 911 l 483 536 l 364 536 l 364 811 q 346 876 364 854 q 286 897 328 897 q 249 892 267 897 q 217 881 231 888 l 217 536 l 97 536 l 97 961 l 97 961 z "},"₁":{"ha":418,"x_min":56,"x_max":279,"o":"m 279 -264 l 156 -264 l 156 244 q 102 240 128 242 q 56 239 76 239 l 56 358 q 158 365 100 360 q 279 376 217 369 l 279 -264 z "},"₂":{"ha":553,"x_min":69,"x_max":483,"o":"m 71 179 q 88 271 71 233 q 135 333 106 308 q 203 368 165 357 q 279 379 240 379 q 356 367 318 379 q 421 330 393 354 q 466 269 449 306 q 483 185 483 233 q 451 71 483 118 q 344 -25 418 24 q 278 -72 304 -53 q 235 -103 251 -90 q 210 -126 218 -117 q 199 -144 201 -136 l 238 -144 q 390 -135 325 -144 q 481 -119 454 -126 l 481 -243 q 388 -257 449 -250 q 238 -264 326 -264 l 69 -264 l 69 -187 q 76 -118 69 -147 q 103 -61 82 -89 q 166 -1 125 -33 q 275 76 207 31 q 344 134 329 111 q 360 185 360 157 q 339 242 360 221 q 279 264 318 264 q 217 244 242 264 q 194 179 193 224 l 71 179 l 71 179 z "},"₃":{"ha":586,"x_min":69,"x_max":501,"o":"m 192 -75 q 219 -139 194 -118 q 283 -160 244 -160 q 355 -137 332 -160 q 378 -78 378 -114 q 356 -23 378 -43 q 285 -3 335 -3 l 199 -3 l 199 114 l 285 114 q 351 134 329 114 q 372 190 372 154 q 351 243 372 222 q 292 264 329 264 q 231 244 254 264 q 207 185 208 225 l 85 185 q 103 273 86 236 q 149 333 121 310 q 215 368 178 357 q 292 379 251 379 q 369 367 332 379 q 433 332 406 356 q 478 274 461 308 q 494 192 494 239 q 472 113 494 146 q 414 61 450 79 q 478 7 454 44 q 501 -85 501 -31 q 488 -157 501 -122 q 448 -218 475 -192 q 380 -260 421 -244 q 283 -275 339 -275 q 203 -264 242 -275 q 136 -228 165 -253 q 89 -167 107 -204 q 69 -75 71 -129 l 192 -75 l 192 -75 z "},"₄":{"ha":549,"x_min":42,"x_max":517,"o":"m 428 -15 q 517 1 478 -8 l 517 -118 q 474 -128 496 -125 q 428 -135 451 -132 l 428 -264 l 304 -264 l 304 -146 q 222 -149 263 -149 q 147 -150 182 -150 l 42 -150 l 42 -40 l 257 367 l 428 367 l 428 -15 m 181 -31 q 304 -26 239 -31 l 304 210 l 181 -31 z "},"가":{"ha":1278,"x_min":69,"x_max":1264,"o":"m 69 42 q 261 103 168 56 q 426 232 354 150 q 540 433 497 314 q 583 711 583 553 l 583 850 l 97 850 l 97 1014 l 764 1014 l 764 711 q 714 387 764 533 q 572 132 664 240 q 353 -44 481 24 q 69 -131 225 -112 l 69 42 m 944 1042 l 1125 1042 l 1125 569 l 1264 569 l 1264 397 l 1125 397 l 1125 -172 l 944 -172 l 944 1042 z "},"각":{"ha":1278,"x_min":69,"x_max":1264,"o":"m 69 503 q 270 531 176 503 q 433 606 364 560 q 543 714 503 653 q 583 842 583 775 l 583 856 l 97 856 l 97 1014 l 764 1014 l 764 889 q 708 660 764 761 q 558 490 653 560 q 336 382 463 419 q 69 344 210 344 l 69 503 m 125 233 q 637 265 389 239 q 1125 344 885 290 l 1125 -172 l 944 -172 l 944 147 q 544 94 746 111 q 125 72 342 76 l 125 233 m 944 1042 l 1125 1042 l 1125 792 l 1264 792 l 1264 625 l 1125 625 l 1125 401 q 1033 381 1081 390 q 944 364 986 371 l 944 1042 z "},"간":{"ha":1278,"x_min":69,"x_max":1264,"o":"m 69 517 q 270 544 176 517 q 433 616 364 571 q 543 719 503 661 q 583 842 583 778 l 583 856 l 97 856 l 97 1014 l 764 1014 l 764 889 q 708 665 764 764 q 558 499 653 567 q 336 394 463 431 q 69 358 210 358 l 69 517 m 125 261 l 306 261 l 306 -21 q 731 0 524 -15 q 1139 51 939 15 l 1139 -110 q 644 -167 897 -153 q 125 -186 392 -182 l 125 261 m 944 1042 l 1125 1042 l 1125 729 l 1264 729 l 1264 563 l 1125 563 l 1125 178 l 944 178 l 944 1042 z "},"갇":{"ha":1278,"x_min":69,"x_max":1264,"o":"m 125 306 l 1125 306 l 1125 147 l 303 147 l 303 -24 q 729 -3 521 -18 q 1139 49 938 13 l 1139 -110 q 644 -167 897 -153 q 125 -186 392 -182 l 125 306 m 69 561 q 270 584 176 561 q 433 646 364 607 q 543 735 503 685 q 583 842 583 786 l 583 856 l 97 856 l 97 1014 l 764 1014 l 764 889 q 708 682 764 772 q 558 529 653 592 q 336 435 463 467 q 69 403 210 403 l 69 561 m 944 1042 l 1125 1042 l 1125 785 l 1264 785 l 1264 618 l 1125 618 l 1125 361 l 944 361 l 944 1042 z "},"갈":{"ha":1278,"x_min":69,"x_max":1264,"o":"m 950 168 l 950 236 l 125 236 l 125 375 l 1125 375 l 1125 35 l 300 35 l 300 -47 q 515 -44 406 -46 q 731 -37 624 -42 q 941 -24 838 -32 q 1139 -6 1044 -17 l 1139 -144 q 897 -167 1024 -158 q 639 -179 769 -175 q 378 -185 508 -183 q 125 -186 247 -186 l 125 168 l 950 168 m 69 611 q 270 631 176 611 q 433 683 364 650 q 543 760 503 717 q 583 853 583 804 l 583 861 l 97 861 l 97 1014 l 764 1014 l 764 894 q 708 706 764 788 q 558 569 653 624 q 336 486 463 514 q 69 458 210 458 l 69 611 m 944 1042 l 1125 1042 l 1125 817 l 1264 817 l 1264 656 l 1125 656 l 1125 431 l 944 431 l 944 1042 z "},"갉":{"ha":1278,"x_min":69,"x_max":1264,"o":"m 944 1042 l 1125 1042 l 1125 817 l 1264 817 l 1264 656 l 1125 656 l 1125 431 l 944 431 l 944 1042 m 69 611 q 270 631 176 611 q 433 683 364 650 q 543 760 503 717 q 583 853 583 804 l 583 861 l 97 861 l 97 1014 l 764 1014 l 764 894 q 708 706 764 788 q 558 569 653 624 q 336 486 463 514 q 69 458 210 458 l 69 611 m 125 175 l 447 175 l 447 236 l 125 236 l 125 375 l 611 375 l 611 42 l 289 42 l 289 -32 q 477 -22 385 -29 q 660 4 569 -15 l 660 -135 q 399 -167 532 -161 q 125 -172 267 -172 l 125 175 m 660 375 l 1125 375 l 1125 -172 l 956 -172 l 956 225 l 660 225 l 660 375 z "},"갊":{"ha":1278,"x_min":69,"x_max":1264,"o":"m 125 175 l 433 175 l 433 236 l 125 236 l 125 375 l 597 375 l 597 42 l 289 42 l 289 -32 q 448 -22 371 -29 q 604 4 525 -14 l 604 -135 q 372 -167 488 -161 q 125 -172 256 -172 l 125 175 m 69 611 q 270 631 176 611 q 433 683 364 650 q 543 760 503 717 q 583 853 583 804 l 583 861 l 97 861 l 97 1014 l 764 1014 l 764 894 q 708 706 764 788 q 558 569 653 624 q 336 486 463 514 q 69 458 210 458 l 69 611 m 653 375 l 1125 375 l 1125 -172 l 653 -172 l 653 375 m 961 -33 l 961 236 l 817 236 l 817 -33 l 961 -33 m 944 1042 l 1125 1042 l 1125 817 l 1264 817 l 1264 656 l 1125 656 l 1125 431 l 944 431 l 944 1042 z "},"감":{"ha":1278,"x_min":69,"x_max":1264,"o":"m 125 306 l 1125 306 l 1125 -112 q 637 -167 885 -153 q 125 -186 389 -182 l 125 306 m 69 561 q 270 584 176 561 q 433 646 364 607 q 543 735 503 685 q 583 842 583 786 l 583 856 l 97 856 l 97 1014 l 764 1014 l 764 889 q 708 682 764 772 q 558 529 653 592 q 336 435 463 467 q 69 403 210 403 l 69 561 m 300 -26 q 630 -12 468 -22 q 950 17 792 -3 l 950 150 l 300 150 l 300 -26 m 944 1042 l 1125 1042 l 1125 785 l 1264 785 l 1264 618 l 1125 618 l 1125 361 l 944 361 l 944 1042 z "},"갑":{"ha":1278,"x_min":69,"x_max":1264,"o":"m 300 331 l 300 238 l 950 238 l 950 331 l 1125 331 l 1125 -112 q 637 -167 885 -153 q 125 -186 389 -182 l 125 331 l 300 331 m 69 572 q 270 594 176 572 q 433 654 364 617 q 543 740 503 692 q 583 842 583 789 l 583 856 l 97 856 l 97 1014 l 764 1014 l 764 889 q 708 685 764 774 q 558 537 653 597 q 336 445 463 476 q 69 414 210 414 l 69 572 m 300 -26 q 630 -12 468 -22 q 950 17 792 -3 l 950 85 l 300 85 l 300 -26 m 944 1042 l 1125 1042 l 1125 790 l 1264 790 l 1264 624 l 1125 624 l 1125 381 l 944 381 l 944 1042 z "},"값":{"ha":1278,"x_min":69,"x_max":1264,"o":"m 69 572 q 270 594 176 572 q 433 654 364 617 q 543 740 503 692 q 583 842 583 789 l 583 856 l 97 856 l 97 1014 l 764 1014 l 764 889 q 708 685 764 774 q 558 537 653 597 q 336 445 463 476 q 69 414 210 414 l 69 572 m 125 331 l 289 331 l 289 221 l 443 221 l 443 331 l 607 331 l 607 -169 q 371 -180 490 -176 q 125 -186 251 -183 l 125 331 m 944 1042 l 1125 1042 l 1125 790 l 1264 790 l 1264 624 l 1125 624 l 1125 381 l 944 381 l 944 1042 m 656 -6 q 712 25 682 3 q 767 81 742 47 q 810 156 793 114 q 826 247 826 199 l 826 331 l 996 331 l 996 247 q 1013 156 996 199 q 1055 81 1029 114 q 1110 25 1081 47 q 1167 -6 1140 3 l 1167 -172 q 1104 -150 1139 -167 q 1035 -108 1069 -133 q 968 -47 1000 -82 q 911 29 936 -12 q 854 -47 886 -12 q 788 -108 822 -82 q 718 -150 753 -133 q 656 -172 683 -167 l 656 -6 m 443 -39 l 443 85 l 289 85 l 289 -44 l 443 -39 z "},"갓":{"ha":1278,"x_min":69,"x_max":1264,"o":"m 944 1042 l 1125 1042 l 1125 757 l 1264 757 l 1264 590 l 1125 590 l 1125 250 l 944 250 l 944 1042 m 69 533 q 270 559 176 533 q 433 627 364 585 q 543 725 503 669 q 583 842 583 781 l 583 856 l 97 856 l 97 1014 l 764 1014 l 764 889 q 708 672 764 767 q 558 510 653 576 q 336 410 463 444 q 69 375 210 375 l 69 533 m 111 -8 q 260 16 183 -4 q 399 69 336 36 q 501 147 461 103 q 542 242 542 192 l 542 319 l 722 319 l 722 242 q 763 147 722 192 q 865 69 803 103 q 1004 16 928 36 q 1153 -8 1081 -4 l 1153 -172 q 1013 -153 1088 -169 q 866 -106 938 -136 q 733 -35 794 -76 q 632 57 671 6 q 531 -35 592 6 q 398 -106 469 -76 q 251 -153 326 -136 q 111 -172 176 -169 l 111 -8 z "},"갔":{"ha":1278,"x_min":69,"x_max":1264,"o":"m 944 1042 l 1125 1042 l 1125 785 l 1264 785 l 1264 618 l 1125 618 l 1125 361 l 944 361 l 944 1042 m 69 561 q 270 584 176 561 q 433 646 364 607 q 543 735 503 685 q 583 842 583 786 l 583 856 l 97 856 l 97 1014 l 764 1014 l 764 889 q 708 682 764 772 q 558 529 653 592 q 336 435 463 467 q 69 403 210 403 l 69 561 m 111 -6 q 180 23 143 1 q 248 76 217 44 q 299 148 279 107 q 319 236 319 189 l 319 306 l 494 306 l 494 236 q 510 149 494 189 q 547 77 525 108 q 594 24 569 46 q 639 -6 619 3 q 683 24 658 3 q 731 77 708 46 q 768 149 753 108 q 783 236 783 189 l 783 306 l 958 306 l 958 236 q 978 148 958 189 q 1030 76 999 107 q 1098 23 1061 44 q 1167 -6 1135 1 l 1167 -172 q 1094 -151 1133 -167 q 1015 -110 1054 -135 q 938 -51 975 -85 q 874 25 901 -17 q 819 -50 850 -17 q 756 -109 788 -83 q 692 -151 724 -135 q 639 -172 661 -167 q 585 -151 615 -167 q 522 -109 554 -135 q 459 -50 490 -83 q 404 25 428 -17 q 340 -51 376 -17 q 263 -110 303 -85 q 184 -151 224 -135 q 111 -172 144 -167 l 111 -6 z "},"강":{"ha":1278,"x_min":69,"x_max":1264,"o":"m 350 -172 q 257 -153 300 -172 q 181 -102 214 -135 q 130 -26 149 -69 q 111 67 111 17 q 130 160 111 117 q 181 235 149 203 q 257 287 214 268 q 350 306 300 306 l 900 306 q 993 287 950 306 q 1069 235 1036 268 q 1120 160 1101 203 q 1139 67 1139 117 q 1120 -26 1139 17 q 1069 -102 1101 -69 q 993 -153 1036 -135 q 900 -172 950 -172 l 350 -172 m 69 561 q 270 584 176 561 q 433 646 364 607 q 543 735 503 685 q 583 842 583 786 l 583 856 l 97 856 l 97 1014 l 764 1014 l 764 889 q 708 682 764 772 q 558 529 653 592 q 336 435 463 467 q 69 403 210 403 l 69 561 m 286 67 q 309 8 286 32 q 367 -17 332 -17 l 883 -17 q 941 8 918 -17 q 964 67 964 32 q 941 126 964 101 q 883 150 918 150 l 367 150 q 309 126 332 150 q 286 67 286 101 m 944 1042 l 1125 1042 l 1125 785 l 1264 785 l 1264 618 l 1125 618 l 1125 347 l 944 347 l 944 1042 z "},"갖":{"ha":1278,"x_min":69,"x_max":1264,"o":"m 944 1042 l 1125 1042 l 1125 786 l 1264 786 l 1264 619 l 1125 619 l 1125 372 l 944 372 l 944 1042 m 69 572 q 270 594 176 572 q 433 654 364 617 q 543 740 503 692 q 583 842 583 789 l 583 856 l 97 856 l 97 1014 l 764 1014 l 764 889 q 708 685 764 774 q 558 537 653 597 q 336 445 463 476 q 69 414 210 414 l 69 572 m 117 -14 q 247 1 179 -12 q 372 38 314 15 q 474 92 431 61 q 529 158 517 122 l 125 158 l 125 317 l 1125 317 l 1125 158 l 721 158 q 776 92 733 122 q 876 38 818 61 q 1003 1 935 15 q 1133 -14 1071 -12 l 1133 -172 q 998 -158 1071 -171 q 855 -120 925 -144 q 724 -61 785 -96 q 625 18 664 -26 q 525 -61 586 -26 q 394 -120 464 -96 q 252 -158 325 -144 q 117 -172 179 -171 l 117 -14 z "},"갗":{"ha":1278,"x_min":69,"x_max":1264,"o":"m 944 1042 l 1125 1042 l 1125 786 l 1264 786 l 1264 619 l 1125 619 l 1125 356 l 944 356 l 944 1042 m 69 572 q 270 594 176 572 q 433 654 364 617 q 543 740 503 692 q 583 842 583 789 l 583 856 l 97 856 l 97 1014 l 764 1014 l 764 889 q 708 685 764 774 q 558 537 653 597 q 336 445 463 476 q 69 414 210 414 l 69 572 m 117 -14 q 241 -3 176 -14 q 363 26 306 7 q 463 71 419 44 q 525 131 507 97 l 125 131 l 125 289 l 535 289 l 535 389 l 715 389 l 715 289 l 1125 289 l 1125 131 l 725 131 q 787 71 743 97 q 888 26 831 44 q 1008 -3 944 7 q 1133 -14 1072 -14 l 1133 -172 q 997 -160 1069 -172 q 853 -126 924 -149 q 723 -69 783 -103 q 625 7 663 -36 q 527 -69 588 -36 q 397 -126 467 -103 q 253 -160 326 -149 q 117 -172 181 -172 l 117 -14 z "},"같":{"ha":1278,"x_min":69,"x_max":1264,"o":"m 1125 375 l 1125 236 l 300 236 l 300 168 l 1111 168 l 1111 35 l 300 35 l 300 -47 q 515 -44 406 -46 q 731 -37 624 -42 q 941 -24 838 -32 q 1139 -6 1044 -17 l 1139 -144 q 897 -167 1024 -158 q 639 -179 769 -175 q 378 -185 508 -183 q 125 -186 247 -186 l 125 375 l 1125 375 m 69 611 q 270 631 176 611 q 433 683 364 650 q 543 760 503 717 q 583 853 583 804 l 583 861 l 97 861 l 97 1014 l 764 1014 l 764 894 q 708 706 764 788 q 558 569 653 624 q 336 486 463 514 q 69 458 210 458 l 69 611 m 944 1042 l 1125 1042 l 1125 817 l 1264 817 l 1264 656 l 1125 656 l 1125 431 l 944 431 l 944 1042 z "},"갚":{"ha":1278,"x_min":69,"x_max":1264,"o":"m 118 -33 q 205 -32 163 -32 q 292 -29 247 -32 l 292 153 l 125 153 l 125 306 l 1125 306 l 1125 153 l 958 153 l 958 15 q 1046 28 1003 22 q 1132 42 1089 35 l 1132 -111 q 637 -167 892 -153 q 118 -186 382 -182 l 118 -33 m 69 561 q 270 584 176 561 q 433 646 364 607 q 543 735 503 685 q 583 842 583 786 l 583 856 l 97 856 l 97 1014 l 764 1014 l 764 889 q 708 682 764 772 q 558 529 653 592 q 336 435 463 467 q 69 403 210 403 l 69 561 m 467 -24 q 783 -3 626 -18 l 783 153 l 467 153 l 467 -24 m 944 1042 l 1125 1042 l 1125 785 l 1264 785 l 1264 618 l 1125 618 l 1125 361 l 944 361 l 944 1042 z "},"갛":{"ha":1278,"x_min":69,"x_max":1264,"o":"m 111 208 l 111 347 l 542 347 l 542 436 l 722 436 l 722 347 l 1153 347 l 1153 208 l 111 208 m 69 597 q 270 618 176 597 q 433 674 364 639 q 543 756 503 710 q 583 853 583 803 l 583 861 l 97 861 l 97 1014 l 764 1014 l 764 894 q 708 701 764 785 q 558 560 653 617 q 336 474 463 503 q 69 444 210 444 l 69 597 m 125 -7 q 138 58 125 28 q 173 111 150 89 q 226 146 196 133 q 292 158 256 158 l 972 158 q 1038 146 1007 158 q 1091 111 1068 133 q 1126 58 1114 89 q 1139 -7 1139 28 q 1126 -73 1139 -43 q 1091 -125 1114 -103 q 1038 -160 1068 -147 q 972 -172 1007 -172 l 292 -172 q 226 -160 256 -172 q 173 -125 196 -147 q 138 -73 150 -103 q 125 -7 125 -43 m 300 -7 q 309 -30 300 -21 q 333 -39 318 -39 l 931 -39 q 955 -30 946 -39 q 964 -7 964 -21 q 955 16 964 7 q 931 25 946 25 l 333 25 q 309 16 318 25 q 300 -7 300 7 m 944 1042 l 1125 1042 l 1125 803 l 1264 803 l 1264 642 l 1125 642 l 1125 403 l 944 403 l 944 1042 z "},"개":{"ha":1278,"x_min":83,"x_max":1153,"o":"m 717 1036 l 889 1036 l 889 550 l 978 550 l 978 1042 l 1153 1042 l 1153 -172 l 978 -172 l 978 389 l 889 389 l 889 -161 l 717 -161 l 717 1036 m 83 36 q 217 88 151 49 q 333 200 282 126 q 414 385 383 274 q 444 656 444 497 l 444 856 l 111 856 l 111 1014 l 619 1014 l 619 656 q 583 342 619 481 q 477 104 546 204 q 309 -55 408 4 q 83 -131 210 -114 l 83 36 z "},"객":{"ha":1278,"x_min":83,"x_max":1153,"o":"m 717 1036 l 889 1036 l 889 779 l 978 779 l 978 1042 l 1153 1042 l 1153 401 q 1064 381 1108 390 q 978 365 1019 372 l 978 624 l 889 624 l 889 354 q 801 340 850 347 q 717 329 753 333 l 717 1036 m 83 497 q 226 524 160 497 q 341 597 293 551 q 417 704 389 643 q 444 833 444 765 l 444 861 l 111 861 l 111 1014 l 619 1014 l 619 881 q 577 652 619 751 q 462 484 535 553 q 291 380 389 415 q 83 344 193 344 l 83 497 m 139 233 q 658 265 407 239 q 1153 344 908 290 l 1153 -172 l 972 -172 l 972 147 q 564 94 769 111 q 139 72 358 76 l 139 233 z "},"갠":{"ha":1278,"x_min":83,"x_max":1167,"o":"m 319 261 l 319 -21 q 752 0 540 -15 q 1167 51 964 15 l 1167 -110 q 665 -167 922 -153 q 139 -186 407 -182 l 139 261 l 319 261 m 83 511 q 226 537 160 511 q 341 606 293 563 q 417 709 389 650 q 444 833 444 768 l 444 861 l 111 861 l 111 1014 l 619 1014 l 619 881 q 577 657 619 754 q 462 493 535 560 q 291 392 389 426 q 83 358 193 358 l 83 511 m 717 1036 l 889 1036 l 889 731 l 978 731 l 978 1042 l 1153 1042 l 1153 192 l 978 192 l 978 575 l 889 575 l 889 206 l 717 206 l 717 1036 z "},"갤":{"ha":1278,"x_min":83,"x_max":1167,"o":"m 978 168 l 978 236 l 139 236 l 139 375 l 1153 375 l 1153 35 l 314 35 l 314 -47 q 531 -44 421 -46 q 751 -37 642 -42 q 966 -24 861 -32 q 1167 -6 1071 -17 l 1167 -144 q 922 -167 1050 -158 q 660 -179 793 -175 q 394 -185 526 -183 q 139 -186 261 -186 l 139 168 l 978 168 m 83 606 q 226 625 160 606 q 341 678 293 644 q 417 756 389 711 q 444 853 444 801 l 444 867 l 111 867 l 111 1014 l 619 1014 l 619 900 q 577 706 619 789 q 462 568 535 624 q 291 485 389 513 q 83 458 193 458 l 83 606 m 717 1036 l 889 1036 l 889 818 l 978 818 l 978 1042 l 1153 1042 l 1153 431 l 978 431 l 978 668 l 889 668 l 889 433 l 717 433 l 717 1036 z "},"갬":{"ha":1278,"x_min":83,"x_max":1153,"o":"m 1153 306 l 1153 -112 q 658 -167 911 -153 q 139 -186 406 -182 l 139 306 l 1153 306 m 83 556 q 226 578 160 556 q 341 638 293 600 q 417 726 389 675 q 444 833 444 776 l 444 861 l 111 861 l 111 1014 l 619 1014 l 619 881 q 577 674 619 763 q 462 524 535 585 q 291 433 389 464 q 83 403 193 403 l 83 556 m 314 -26 q 651 -12 486 -22 q 978 18 817 -3 l 978 150 l 314 150 l 314 -26 m 717 1036 l 889 1036 l 889 786 l 978 786 l 978 1042 l 1153 1042 l 1153 361 l 978 361 l 978 631 l 889 631 l 889 364 l 717 364 l 717 1036 z "},"갭":{"ha":1278,"x_min":83,"x_max":1153,"o":"m 314 331 l 314 238 l 978 238 l 978 331 l 1153 331 l 1153 -112 q 658 -167 911 -153 q 139 -186 406 -182 l 139 331 l 314 331 m 83 567 q 226 588 160 567 q 341 644 293 608 q 417 729 389 681 q 444 833 444 778 l 444 861 l 111 861 l 111 1014 l 619 1014 l 619 881 q 577 678 619 765 q 462 532 535 590 q 291 444 389 474 q 83 414 193 414 l 83 567 m 314 -26 q 651 -12 486 -22 q 978 18 817 -3 l 978 85 l 314 85 l 314 -26 m 717 1036 l 889 1036 l 889 796 l 978 796 l 978 1042 l 1153 1042 l 1153 381 l 978 381 l 978 640 l 889 640 l 889 383 l 717 383 l 717 1036 z "},"갯":{"ha":1278,"x_min":83,"x_max":1181,"o":"m 717 1036 l 889 1036 l 889 779 l 978 779 l 978 1042 l 1153 1042 l 1153 250 l 978 250 l 978 624 l 889 624 l 889 375 l 717 375 l 717 1036 m 83 528 q 226 552 160 528 q 341 618 293 576 q 417 715 389 660 q 444 833 444 771 l 444 861 l 111 861 l 111 1014 l 619 1014 l 619 881 q 577 663 619 757 q 462 505 535 569 q 291 408 389 440 q 83 375 193 375 l 83 528 m 139 -8 q 288 16 211 -4 q 426 69 364 36 q 529 147 489 103 q 569 242 569 192 l 569 319 l 750 319 l 750 242 q 790 147 750 192 q 893 69 831 103 q 1032 16 956 36 q 1181 -8 1108 -4 l 1181 -172 q 1040 -153 1115 -169 q 894 -106 965 -136 q 760 -35 822 -76 q 660 57 699 6 q 558 -35 619 6 q 426 -106 497 -76 q 279 -153 354 -136 q 139 -172 204 -169 l 139 -8 z "},"갰":{"ha":1278,"x_min":83,"x_max":1181,"o":"m 125 -6 q 194 23 157 1 q 262 76 231 44 q 313 148 293 107 q 333 236 333 189 l 333 306 l 508 306 l 508 236 q 524 149 508 189 q 561 77 539 108 q 608 24 583 46 q 653 -6 633 3 q 697 24 672 3 q 744 77 722 46 q 782 149 767 108 q 797 236 797 189 l 797 306 l 972 306 l 972 236 q 992 148 972 189 q 1044 76 1013 107 q 1112 23 1075 44 q 1181 -6 1149 1 l 1181 -172 q 1108 -151 1147 -167 q 1028 -110 1068 -135 q 952 -51 989 -85 q 888 25 915 -17 q 833 -50 864 -17 q 769 -109 801 -83 q 706 -151 738 -135 q 653 -172 675 -167 q 599 -151 629 -167 q 536 -109 568 -135 q 473 -50 504 -83 q 418 25 442 -17 q 353 -51 390 -17 q 277 -110 317 -85 q 198 -151 238 -135 q 125 -172 158 -167 l 125 -6 m 83 556 q 226 578 160 556 q 341 638 293 600 q 417 726 389 675 q 444 833 444 776 l 444 861 l 111 861 l 111 1014 l 619 1014 l 619 881 q 577 674 619 763 q 462 524 535 585 q 291 433 389 464 q 83 403 193 403 l 83 556 m 717 1036 l 889 1036 l 889 786 l 978 786 l 978 1042 l 1153 1042 l 1153 361 l 978 361 l 978 631 l 889 631 l 889 364 l 717 364 l 717 1036 z "},"갱":{"ha":1278,"x_min":83,"x_max":1167,"o":"m 364 -172 q 271 -153 314 -172 q 195 -102 228 -135 q 144 -26 163 -69 q 125 67 125 17 q 144 160 125 117 q 195 235 163 203 q 271 287 228 268 q 364 306 314 306 l 928 306 q 1021 287 978 306 q 1097 235 1064 268 q 1148 160 1129 203 q 1167 67 1167 117 q 1148 -26 1167 17 q 1097 -102 1129 -69 q 1021 -153 1064 -135 q 928 -172 978 -172 l 364 -172 m 83 556 q 226 578 160 556 q 341 638 293 600 q 417 726 389 675 q 444 833 444 776 l 444 861 l 111 861 l 111 1014 l 619 1014 l 619 881 q 577 674 619 763 q 462 524 535 585 q 291 433 389 464 q 83 403 193 403 l 83 556 m 300 67 q 323 8 300 32 q 381 -17 346 -17 l 911 -17 q 969 8 946 -17 q 992 67 992 32 q 969 126 992 101 q 911 150 946 150 l 381 150 q 323 126 346 150 q 300 67 300 101 m 717 1036 l 889 1036 l 889 786 l 978 786 l 978 1042 l 1153 1042 l 1153 347 l 978 347 l 978 631 l 889 631 l 889 364 l 717 364 l 717 1036 z "},"갸":{"ha":1278,"x_min":69,"x_max":1257,"o":"m 944 1042 l 1125 1042 l 1125 803 l 1257 803 l 1257 636 l 1125 636 l 1125 331 l 1257 331 l 1257 164 l 1125 164 l 1125 -172 l 944 -172 l 944 1042 m 69 42 q 261 103 168 56 q 426 232 354 150 q 540 433 497 314 q 583 711 583 553 l 583 850 l 97 850 l 97 1014 l 764 1014 l 764 711 q 714 387 764 533 q 572 132 664 240 q 353 -44 481 24 q 69 -131 225 -112 l 69 42 z "},"갹":{"ha":1278,"x_min":69,"x_max":1257,"o":"m 944 147 q 544 94 746 111 q 125 72 342 76 l 125 233 q 637 265 389 239 q 1125 344 885 290 l 1125 -172 l 944 -172 l 944 147 m 69 503 q 270 531 176 503 q 433 606 364 560 q 543 714 503 653 q 583 842 583 775 l 583 856 l 97 856 l 97 1014 l 764 1014 l 764 889 q 708 660 764 761 q 558 490 653 560 q 336 382 463 419 q 69 344 210 344 l 69 503 m 944 1042 l 1125 1042 l 1125 925 l 1257 925 l 1257 764 l 1125 764 l 1125 667 l 1257 667 l 1257 506 l 1125 506 l 1125 401 q 1033 381 1081 390 q 944 364 986 371 l 944 1042 z "},"갼":{"ha":1278,"x_min":69,"x_max":1257,"o":"m 69 517 q 270 544 176 517 q 433 616 364 571 q 543 719 503 661 q 583 842 583 778 l 583 856 l 97 856 l 97 1014 l 764 1014 l 764 889 q 708 665 764 764 q 558 499 653 567 q 336 394 463 431 q 69 358 210 358 l 69 517 m 125 261 l 306 261 l 306 -21 q 731 0 524 -15 q 1139 51 939 15 l 1139 -110 q 644 -167 897 -153 q 125 -186 392 -182 l 125 261 m 944 1042 l 1125 1042 l 1125 893 l 1257 893 l 1257 732 l 1125 732 l 1125 615 l 1257 615 l 1257 454 l 1125 454 l 1125 178 l 944 178 l 944 1042 z "}}}
